<svg xmlns="http://www.w3.org/2000/svg" viewBox="0 0 79.34 125.12"><defs><style>.cls-1{fill:#ffc79c;}.cls-2{fill:#353535;}.cls-3{fill:#231f20;}.cls-11,.cls-4,.cls-5,.cls-7{fill:none;}.cls-4{stroke:#fff;}.cls-4,.cls-7{stroke-linecap:round;stroke-linejoin:round;}.cls-4,.cls-5{stroke-width:0.2px;}.cls-5{stroke:#231f20;stroke-miterlimit:10;}.cls-6{fill:#4285f4;}.cls-7{stroke:#353535;stroke-width:0.1px;}.cls-8{fill:#ccc;}.cls-9{fill:#fff;}.cls-10{fill:#f2f2f2;}.cls-12{fill:#db4437;}.cls-13{fill:#ce1f11;}.cls-14{fill:#eeab77;}</style></defs><g id="Layer_2" data-name="Layer 2"><g id="Layer_2-2" data-name="Layer 2"><path class="cls-1" d="M3.46,41.56a4.06,4.06,0,0,0,.09-1.51,4.33,4.33,0,0,0-.48-1.49,12.7,12.7,0,0,1-.95-4.48c-.26-2.41.11-2.71.27-2.79.45-.24,1,.35,1.52,0s.23-.75.69-1.1C4.89,30,5.15,30,5.69,30a9.84,9.84,0,0,0,1.87-.36l.18-6.24a1.08,1.08,0,0,1,.89-.8,1.14,1.14,0,0,1,1.08,1.24l.17,8.47a12.5,12.5,0,0,0,1.24,1c.78.54.88.5,1.07.72.78.88.13,2.85-.62,4a5.93,5.93,0,0,1-2.14,2l-.09,1.51Z"/><path class="cls-2" d="M18.79,118.06v.19q.13,3.45.31,6.87H34.16q.66-8,1.34-16,.82,8,1.64,16H52l-.09-7.1-14.12.71-2.68-13.59q-.71,6.87-1.42,13.72Z"/><path class="cls-1" d="M28.28,37a11.55,11.55,0,0,0,1.65,4.4c.78,1.22,2.46,3.87,4.81,4.1,3.61.36,8-5.1,7.13-9.8a6.93,6.93,0,0,0-2.36-3.91c-3.51-2.88-9.71-2-11.19.88C27.72,33.8,28,35.15,28.28,37Z"/><path class="cls-3" d="M15.52,44.15c-.32-.25.12-1.46.48-2.41.29-.79.45-.92,1.15-2.38a8.63,8.63,0,0,0,1-2.58A3.5,3.5,0,0,0,18,34.73c-.36-.8-.82-.78-1.19-1.4-.79-1.31.11-3.39.86-4.51s1.46-1.21,2.26-2.47a6.18,6.18,0,0,0,1-3.09c0-1.84-1.14-2.12-1.82-4.27a9.6,9.6,0,0,1,.51-6.42A11.53,11.53,0,0,1,22,9.19,17.1,17.1,0,0,1,25.86,6a14.56,14.56,0,0,1,1.46-.74c1-.45,1.24-.5,2.1-.9a18,18,0,0,0,2-1c1.14-.66,1.69-1.1,2.14-1.39A8.76,8.76,0,0,1,38.41.78a12.36,12.36,0,0,1,5.8,1.66c2,1,4.83,2.44,6.48,5.41,1.73,3.12,1.92,7.5,2,8.32a11.15,11.15,0,0,0,.83,3.95,5.61,5.61,0,0,0,1.75,2.46,9,9,0,0,0,1.76.86,6.69,6.69,0,0,1,2.7,2.74l0,3.86-.33.06v3.5l.6.74c1.68,2.08,2.48,2.83,3,3.54a8.14,8.14,0,0,1,1.51,4.6l.08,4.1L59,51c-.48-.51-1.21-1.32-2-2.35a54.83,54.83,0,0,1-3.93-6c-1.18-1.76-3.55-3.88-8.82-5.08l-4.22-1.38a3.81,3.81,0,0,1-.35-.46,4.78,4.78,0,0,1-.54-2.67c.2-2.85,5.46-8.9,4.34-12.21-.7-2.07-3.33-1.53-8.43-5a29.56,29.56,0,0,1-5-4.28l-4.37,9.51,4.6,11.7a4.9,4.9,0,0,1,0,1.28,5.18,5.18,0,0,1-.72,2c-.87,1.27-3.06,1.13-4.39,1.27C19.64,38,16.31,44.75,15.52,44.15Z"/><path class="cls-4" d="M33.89,5.38A13,13,0,0,1,40,5.16c.65.14,5.71,1.27,8,5.44a15.77,15.77,0,0,1,1.65,6.19c.14,2.19-.26,3.1.44,4.66A8.7,8.7,0,0,0,53,24.76c2.15,1.64,3.35,1.45,3.94,2.79a5.23,5.23,0,0,1,.07,3c-.26,1.51-.74,1.73-.81,2.94a6.39,6.39,0,0,0,.67,2.9c.82,2,1.55,2.27,2.1,3.65a6.89,6.89,0,0,1,.13,4.28"/><path class="cls-5" d="M18.22,36.26a7.27,7.27,0,0,1-1.57-1.78,5,5,0,0,1-.94-3.39,4.78,4.78,0,0,1,1.34-2.23c2.31-2.71,3.53-2.65,3.83-4,.24-1.08-.32-2.14-1.16-3.74C19,19.82,18.81,20,18.3,18.88a7.9,7.9,0,0,1-.72-4.59,7.39,7.39,0,0,1,1-2.73c.84-1.35,1.87-1.9,4.21-3.2,5.64-3.14,6.4-3.71,7-4.17,1.95-1.61,1.64-1.94,3-2.77A11.5,11.5,0,0,1,40,.22a14.46,14.46,0,0,1,7.35,2.67,11.45,11.45,0,0,1,4,4.63c.64,1.45.6,2.32.76,6.11.34,8,.78,9.86,1.87,10.29.79.31,1.37-.34,3.25,0a4.75,4.75,0,0,1,2,.8A4.71,4.71,0,0,1,61,28.11c.07,1.1-.3,1.47-.71,3.34a20.26,20.26,0,0,0-.45,3.16"/><path class="cls-6" d="M2.3,41.29C1.59,45.79,1.05,49.8.64,53.21c-.89,7.3-1,10.14.53,13.12C1.8,67.58,3,69.87,5.09,70.55c3.57,1.15,8.86-2.5,12.66-9.5-.06,2.71-.24,12.25-.3,15-.26,13-.22,16.83-.47,23.34-.17,4.27-.5,10.73-1.19,18.72l18.06,1.07L35.09,106l2.56,13,19.13-1L53.69,99.25l-1.37-10.1q-.15-5-.29-10L41.81,66.33l17.34-15c-.16-.4-.4-1-.71-1.66a31.34,31.34,0,0,0-3-5.42,16.91,16.91,0,0,0-3.78-4.14,13.72,13.72,0,0,0-7.13-2.56l-.53,1-3.33,5.53-1.37-.6q-2.4,8.06-4.81,16.1-1.87-8-3.74-16l-1.31.6-4-6.84a11.63,11.63,0,0,0-3,.84,13.66,13.66,0,0,0-2.79,1.72c-1.83,1.47-5.26,5.52-9.09,11.35l-.18-9.63Z"/><path class="cls-7" d="M34.25,59.62l1,46.57"/><path class="cls-2" d="M43.62,39.07c.15-.68.32-.82.45-.83.71-.1,1.93,3.77,2.47,7.17a41.85,41.85,0,0,1,.4,5.09c.13,3,.16,5.45.15,7.25l-1,0c.1-2.12.07-4,0-5.55,0-.42-.1-2.14-.35-4.43a31.55,31.55,0,0,0-.72-4.63A22,22,0,0,0,43.62,39.07Z"/><path class="cls-8" d="M18.31,59.8l1-.06q.62,3.19,1.13,6.65c.21,1.46.4,2.89.57,4.28a9.24,9.24,0,0,0,.1,1.71,6.4,6.4,0,0,0,.49,1.84,3.89,3.89,0,0,0,1.54,1.89,3.59,3.59,0,0,0,1.13.38,7.61,7.61,0,0,0,2.91.09l.15.86-3.59-.06a3,3,0,0,1-1.16-.47,3.76,3.76,0,0,1-.86-.89,7.45,7.45,0,0,1-.95-1.76,25.39,25.39,0,0,1-1-5.19c-.08-.55-.21-1.31-.39-2.23Z"/><path class="cls-2" d="M19.32,59.74l-1,.06a7,7,0,0,1-.12-.92A5.17,5.17,0,0,1,18.37,57a3.51,3.51,0,0,1,1.24-1.9,3.26,3.26,0,0,1,1.88-.6,32.33,32.33,0,0,1,0-5.17,23.28,23.28,0,0,1,1.21-6.4,17.65,17.65,0,0,1,2.76-5.06l.45.71-.3.83c-.17.31-.4.75-.65,1.28A24.43,24.43,0,0,0,23,46.2a23.14,23.14,0,0,0-.45,3l-.18,5.22a4.38,4.38,0,0,1,.68.18,4.17,4.17,0,0,1,2.6,3.26,3.81,3.81,0,0,1-.1,1.55l-1,0-.15-1.69a2.89,2.89,0,0,0-.58-1.17,2.93,2.93,0,0,0-2-1,2.62,2.62,0,0,0-1.93.66,2.37,2.37,0,0,0-.58.89,2.88,2.88,0,0,0-.16.88A11.15,11.15,0,0,0,19.32,59.74Z"/><path class="cls-9" d="M29.33,44.53l-4.39-7.19,3.8-2.13L34,41Z"/><path class="cls-9" d="M36.05,41.26,41,35l3.68,2.37-4.16,7.31Z"/><path class="cls-10" d="M34,41l-3.75,2.91q2,8.43,4,16.87,2.64-8.41,5.26-16.83l-3.47-2.66-1.13,3.45Z"/><circle class="cls-11" cx="34.94" cy="48.66" r="0.62"/><circle class="cls-11" cx="34.94" cy="54.29" r="0.62"/><circle class="cls-9" cx="34.94" cy="48.66" r="0.62"/><circle class="cls-9" cx="34.94" cy="54.29" r="0.62"/><path class="cls-8" d="M16.23,76.43l0,.83,2.41.12a3.42,3.42,0,0,0,2-.49,3.77,3.77,0,0,0,.95-1,7.8,7.8,0,0,0,1.13-2.08c.3-1.08.73-2.73,1.13-4.78.27-1.42.37-2.2.64-3.78.23-1.39.59-3.39,1.11-5.85l-1.1-.06-1.13,6.85c-.38,2.12-.66,3.61-.83,4.48-.27,1.36-.2.91-.31,1.52a8.46,8.46,0,0,1-.52,2.32A3.39,3.39,0,0,1,20.43,76a4.51,4.51,0,0,1-2.27.48A10.61,10.61,0,0,1,16.23,76.43Z"/><circle class="cls-2" cx="15.27" cy="76.67" r="1.05"/><circle class="cls-2" cx="27.95" cy="76.67" r="1.04"/><ellipse class="cls-10" cx="46.52" cy="60.57" rx="3.12" ry="3"/><circle class="cls-8" cx="46.52" cy="60.57" r="1.4"/><path class="cls-12" d="M41.07,67,54.43,83.22,79.07,65,64.23,47.31Z"/><path class="cls-13" d="M41.07,67l.35-1.47,23.13-19,14.79,17.2L79.07,65,64.19,47.62Z"/><path class="cls-1" d="M64.19,76.54l2.48.2a5.65,5.65,0,0,0,1.89-1.32,5.79,5.79,0,0,0,1.11-1.73,4.18,4.18,0,0,0,.27-2.23l-2-2.9L66.1,66.74a1.56,1.56,0,0,0-.8-.27,1.45,1.45,0,0,0-1.16.4c-.29.36,0,.66-.33,1s-.79.06-1.13.41,0,.68-.36,1.34c-.22.41-.37.34-.45.62-.2.68.6,1.23.36,1.65-.14.25-.46.13-.67.4s-.1.86.09,1.29Z"/><path class="cls-14" d="M64.2,76.37a3.67,3.67,0,0,0,3,0,4.12,4.12,0,0,0,1.87-1.61,3.68,3.68,0,0,0,.85-2.57c-.17-.08-.46,1.18-1.58,1.64-.48.19-.87.14-1.2.52s-.15.45-.41.84a2.46,2.46,0,0,1-1,.77A4.75,4.75,0,0,1,64.2,76.37Z"/><path class="cls-14" d="M25.86,16.85a7.19,7.19,0,0,0,3-1.66,1.94,1.94,0,0,1,1.22-.75c.48,0,.87.27,1.46.72a7.38,7.38,0,0,1,1.2,1.12A18.58,18.58,0,0,1,37,17.8c3.7,1.86,6.51,4.82,6.78,4.55.07-.08-.14-.29-.18-.84a3.76,3.76,0,0,1,.18-1.16c.1-1-2-2.09-2.37-2.25-5.56-2.7-6.72-3.11-7.95-4.22A9.85,9.85,0,0,1,31,10.46c-1.09.84-2,1.61-2.69,2.23-1.52,1.37-2,2-2.31,2.91A4.35,4.35,0,0,0,25.86,16.85Z"/><path class="cls-1" d="M43.11,26.68l.48-4.13a1.72,1.72,0,0,1,.36-.74,1.75,1.75,0,0,1,2-.56c.52.31.58,1,.65,1.78a3.78,3.78,0,0,1-.3,2A2.88,2.88,0,0,1,45,26.53,2.73,2.73,0,0,1,43.11,26.68Z"/><path class="cls-1" d="M26.79,26.82a3.32,3.32,0,0,1-1.88-1.06,3.66,3.66,0,0,1-.75-1.66,3.28,3.28,0,0,1,0-2c.2-.5.44-.63.51-.66a1.06,1.06,0,0,1,.86.06l.3-4.72a4.69,4.69,0,0,1,2.2-1.57,2.39,2.39,0,0,0,1.15-.59c.41-.44.33-.83.6-.93s.91.64,1.75,1.4a8.8,8.8,0,0,0,2.2,1.39c1.36.67,1.73.43,4.19,1.22a13.53,13.53,0,0,1,2.22.86,5.9,5.9,0,0,1,2.5,2,4.56,4.56,0,0,1,.65,1.61l-.47,2.67a23.88,23.88,0,0,0-2.79-.63c-4.35-.74-6.7,1.12-11.8.72-.68-.06-1.23-.13-1.54-.18Z"/><path class="cls-9" d="M25.59,21.3l1.25,3.33a4.26,4.26,0,0,0,1.42,0,4.51,4.51,0,0,0,1.55-.53,10.74,10.74,0,0,1,4.28-.89,13,13,0,0,1,4.66.54,22.62,22.62,0,0,0,2.58.76c.64.15,1.16.24,1.52.3l.62-2.59.27.24c-.06.45-.15,1.13-.24,2-.13,1.19-.15,1.68-.21,2.11a10.45,10.45,0,0,1-1.13,3.54,8.7,8.7,0,0,1-9.06,4.15,8,8,0,0,1-5.25-3.77c-.53-.95-.52-1.51-1.25-4.42-.48-1.92-.94-3.47-1.25-4.49Z"/></g></g></svg>