<svg xmlns="http://www.w3.org/2000/svg" viewBox="0 0 358.81 365.75"><defs><style>.cls-1{fill:#e6e6e6;}.cls-2{fill:#f6ad80;}.cls-3{fill:#4285f4;}.cls-4{fill:#353535;}.cls-5{fill:#fff;}</style></defs><g id="Layer_2" data-name="Layer 2"><g id="Layer_1-2" data-name="Layer 1"><rect class="cls-1" x="29.28" y="167.27" width="294.42" height="198.49" rx="4.68"/><path class="cls-2" d="M31.06,307.59c1-.31,1.25-.59,2.5-1.07a16.48,16.48,0,0,1,2.49-.72,22.34,22.34,0,0,1,6.54,0c4.43.38,6.67.56,8.2,0a11.75,11.75,0,0,0,3.8-2.61,25.42,25.42,0,0,0,6.53-9.39c.7-1.73.9-2.8.6-3.92a5.49,5.49,0,0,0-2.38-3c-2-1.33-4.18-1.31-6.53-1.18-3.3.17-6.71,0-11.05,1.3-2.18.63-4,1.4-4.16,1.07s.88-1.2,1.9-1.78c1.39-.81,2-.55,2.85-1.31s1.29-1.86.95-2.37c-.63-.95-4.3.11-7,1.54-3.1,1.64-2.68,2.58-6.42,4.63-3.46,1.91-4.63,2.38-4.63,2.38-1.47.59-2.48.86-3.33,1.9a6.07,6.07,0,0,0-1.07,2.62,11.54,11.54,0,0,0-.11,4.63,11.74,11.74,0,0,0,2.37,5.11,6,6,0,0,0,1.67,1.66,6.51,6.51,0,0,0,3.56.83A9.12,9.12,0,0,0,31.06,307.59Z"/><path class="cls-3" d="M29.87,288.89q-.07-26.55-.14-53.1c-2.06,2.67-8.85,11.53-14.44,19.15-.81,1.11-2.49,3.4-4.54,6.51a75,75,0,0,0-4.82,7.84,51.91,51.91,0,0,0-4,11A53.94,53.94,0,0,0,.05,292a52.23,52.23,0,0,0,.29,8.29c.22.47.54,1.12,1,1.87a40,40,0,0,0,3.12,4.37,38.48,38.48,0,0,0,7,6.77,26.52,26.52,0,0,0,5,3.3c2.82,1.35,5.52,2.77,8.64,2.05a9.16,9.16,0,0,0,4.73-2.94l.31-7.84a11,11,0,0,1-2.28.09,6.91,6.91,0,0,1-2.44-.45,6.11,6.11,0,0,1-2.31-2,11.29,11.29,0,0,1-2.24-4.5,10.27,10.27,0,0,1,0-5.8c.37-1.11.69-2.09,1.54-2.56.33-.19,1.49-.72,2.24-1.07.51-.23.27-.14,3.2-1.68Z"/><path class="cls-2" d="M303.85,294c.59,1.21,5.29.81,6,.59,0,0,.14-.05.21,0s0,.81-.23,1.18a3,3,0,0,1-1.91,1.19c-1.3.31-3.24,2-7.12,5.47-5.49,4.86-8.24,7.36-8.68,10.81a4.58,4.58,0,0,0,.48,3.09c.69,1.15,2,1.87,5.11,2.37,4.08.67,7.56,1.24,11.64-.35a21.72,21.72,0,0,0,8.2-6.06c1.31-1.59,1.92-2.86,3.8-3.92l.28-.15a29,29,0,0,1,4.35-1.75,24.42,24.42,0,0,0,2.62-1.07,11.33,11.33,0,0,0,4.26-3.37,9.21,9.21,0,0,0,.85-8.28,10.1,10.1,0,0,0-6.31-5.9A4,4,0,0,0,325,288a16.5,16.5,0,0,0-1.47.82,8.27,8.27,0,0,1-2.48.65c-1.67.33-1.6.48-3.44.9a31.26,31.26,0,0,1-3.57.59,17.35,17.35,0,0,0-3.92.12c-1.8.27-1.44.52-3.44.83-1.21.19-2,.2-2.5.83C304.16,292.8,303.6,293.52,303.85,294Z"/><path class="cls-3" d="M324,288.41a5.05,5.05,0,0,1,2.36-.62c4.08,0,8.61,5.56,7.85,10.6a9.26,9.26,0,0,1-3.43,5.72,16.89,16.89,0,0,1-3,1.7,28.74,28.74,0,0,1-3.64,1.43l0,9.42a27.4,27.4,0,0,0,3.16-.18,30.7,30.7,0,0,0,7.17-1.74,23.48,23.48,0,0,0,5.13-2.22c2.34-1.45,3.63-2.45,4.45-3.83a6.55,6.55,0,0,0,.4-.76c.56-.27,1.4-.66,2.45-1.07,1.73-.68,3-1,3.57-1.2a25.48,25.48,0,0,0,6.33-2.72c.8-.49,1.42-.95,1.82-1.25a38.28,38.28,0,0,0,0-8.6,39.37,39.37,0,0,0-.8-4.41,42.46,42.46,0,0,0-2.14-6.42A162.8,162.8,0,0,0,348.29,267a173,173,0,0,0-9.53-14.92,202.38,202.38,0,0,0-14.89-18.58Z"/><path class="cls-2" d="M144.65,143.27l.59,3.56a138.41,138.41,0,0,0,9.39,11.41c3.21,3.5,6.37,6.6,9.38,9.31l26.38,0,14-18.66.15-2.06c-1.85-3.06-3.56-3.85-4.78-4-1.84-.22-2.88.92-4.76.6s-3.13-1.92-3.92-3.21a35.66,35.66,0,0,1-.95-7.48c0-1.27.13-1.43.12-3.21,0-2-.15-2.52.24-2.85.79-.69,2.15.89,4,.59s1.84-2.18,4.39-3.92,3.86-.71,5.83-2.38c1.65-1.4,1.5-2.79,2.61-5,2.16-4.28,5-3.57,7.84-7.13,3.17-4,4.19-10.8,2.73-16-.71-2.55-2.13-5.15-.95-7.84.11-.25.91-2.06,2.14-2.14s1.59,1.83,3.57,2.62,4.43.14,5.11-1.19c.45-.9-.41-1.24-.24-3s1.23-2.32,1.66-5a4.6,4.6,0,0,0,.12-1.19c-.33-2-3.3-2.28-3.92-4.75-.1-.41,0-.33-.12-.83-.28-1.22-1.2-3.13-2.73-3.57s-2.34,1-4.16.36a5.17,5.17,0,0,1-1.31-.71,10.55,10.55,0,0,1-2.37-2.38c-1.09-1.36-1.64-2-1.67-2.49-.09-1.41,1.56-2,2.38-3.33,1.62-2.64-.36-7.65-3.09-10.34-4.43-4.37-11.58-3.34-16.63-2.61A48.74,48.74,0,0,0,182,48.93c-5.73,2.6-6.87,4-12.35,5.94-5.11,1.77-8,2.73-11,1.55-5-2-6.6-8.3-6.89-9.63a21.31,21.31,0,0,0-5.11,6.42c-1.71,3.35-2.14,6.56-4.87,9-.56.5-1.86,1.56-2.14,1.78A21.37,21.37,0,0,1,136,66.64c-2,.94-2.79.09-4.39.71-2.91,1.11-5.15,5.71-3.8,8.67,1,2.2,3.83,3.2,5.22,3.69,2.21.77,2.87.31,3.57,1.06,1.58,1.74-1.28,4.84-.72,8.8.49,3.4,2.9,3.25,6.18,8.19,2.26,3.4,3.21,6.86,5.11,13.79.85,3.1,1.42,5.72,1.78,7.6-1.48,2.12-4.61,7.24-3.68,13.43a16.49,16.49,0,0,0,.71,2.85c1-.26,1.58-.22,1.9.12Q149,136.78,144.65,143.27Z"/><path class="cls-3" d="M95.46,167.74c1.5-1.78,3.12-3.61,4.87-5.46,2.46-2.61,4.89-5,7.25-7.13a21.28,21.28,0,0,1,3.21-2.26c2.15-1.25,3.85-1.67,7.48-2.73,4.35-1.27,2.32-.76,6.3-1.9,5.46-1.56,8.19-2.35,11.05-3a92.48,92.48,0,0,1,10.45-1.66l.12,3.2a99.18,99.18,0,0,0,20.32,20.68q-19.44.31-39.33.35Q111.18,167.89,95.46,167.74Z"/><path class="cls-4" d="M95.46,167.74l-8.26-.38c.13-1,.36-2.58.71-4.46,1.27-6.67,3.09-10.46,6.87-20.31,1.84-4.82,1.14-3.19,4-10.61,2.91-7.7,5.15-13.37,5.76-14.91,2.45-6.23,6.37-16.47,12.74-34,.11-.51.26-1.26.39-2.17a14.76,14.76,0,0,0,.23-3.68c-.12-1.21-.43-1.5-1.12-3.5,0,0-.45-1.3-1.1-3.95a39.67,39.67,0,0,1-1-9.48,36.89,36.89,0,0,1,1.57-9.3c2.73-8.87,8.72-15,12.09-18.38C134.92,25.91,141,22.38,148.69,18c6.72-3.84,11.95-6.07,20.61-9.77a116.7,116.7,0,0,1,15.12-5.55A57.43,57.43,0,0,1,197.61.1a45.61,45.61,0,0,1,14.25,1.16c4.18,1.12,8.07,2.16,11.23,5.61,1,1.14,2.35,2.91,4.19,8.47.59,1.78,1.91,5.61,3.39,15,.87,5.5,1.29,9.65,1.3,9.77,2.66,23.51,2.59,22.13,2.74,24.18.67,9.59.13,11.09,1.12,20.55.28,2.61.76,6.65,1.79,11.71,1.2,5.91,1.77,9.27,3.65,12.65,1.61,2.89,3.81,5.62,10.16,10.69,8.72,7,18.71,13.1,26,17.56a54,54,0,0,1,8.3,6.19,45.41,45.41,0,0,1,4.05,4.15,32.4,32.4,0,0,1,4.94,7.3,23.93,23.93,0,0,1,2,12.21l-46.79.47c-.19-.4-.49-1-.87-1.67a33.87,33.87,0,0,0-6.33-8,38.61,38.61,0,0,0-5.86-4.42,23.82,23.82,0,0,0-6.9-3.25,26.86,26.86,0,0,0-4.76-.77c-1.52-.13-2.34,0-3.61-.1-3.2-.16-5.7-.45-7-.62a90.28,90.28,0,0,1-9-1.62l-1.76-.39v-.32c-.5,0-1.18-.07-2-.16a29.75,29.75,0,0,1-7.26-1.8,28.38,28.38,0,0,1-6.13-3.3c0-.19,0-.56,0-1-.07-3-.39-5.75-.46-7.5,0-.45,0-1.21,0-2.2a20.66,20.66,0,0,1,.24-2.4,5.6,5.6,0,0,1,.52-2.07,3.49,3.49,0,0,1,1.17-1.17c.32-.19.48-.2,1.33-.6l.78-.38c.87-.45,1.43-.81,2.71-1.59.92-.57,1.39-.86,1.54-.94a20,20,0,0,1,2.54-1.08c1.22-.46,1.39-.46,2.08-.77a15.4,15.4,0,0,0,1.77-1,18.29,18.29,0,0,0,3.26-2.88,24.3,24.3,0,0,0,2.45-3.2,48.64,48.64,0,0,0,4.93-10,43.46,43.46,0,0,0,1.7-5.33,32.66,32.66,0,0,0,1.23-8.69c0-1.11.06-2.41.21-5,.08-1.45.17-2.65.74-2.83.37-.12.64.28,1.26.62A4.93,4.93,0,0,0,223,81a5.64,5.64,0,0,0,2.32-3.19,9.09,9.09,0,0,0,.6-3,7.71,7.71,0,0,0-.38-2.36,7.16,7.16,0,0,0-4.72-4.59,6.75,6.75,0,0,0-1,0,4,4,0,0,0-1.13.18c-.25.08-.54.2-.7.26a2.18,2.18,0,0,1-.71.23c-.2,0-.32,0-.43-.05s-.17-.13-.24-.78a6,6,0,0,0-.07-.79,2.77,2.77,0,0,0-.21-.58,5,5,0,0,0-1-1.4,5.63,5.63,0,0,0-1.26-.89,6.47,6.47,0,0,1-2.4-3.1,10.79,10.79,0,0,1-.73-3.89c-.16-1.93-.24-2.9.12-3.91a15.91,15.91,0,0,0,.65-2.18,5.78,5.78,0,0,0,.18-1c0-1.5-1.85-2.64-2.32-2.93a9.92,9.92,0,0,0-4.76-1.23,34.15,34.15,0,0,0-6.29-.06,37.28,37.28,0,0,0-9.13,1.9c-1.41.5-2.69,1.09-5.26,2.26-1,.44-2.71,1.24-4.94,2.39-2.38,1.22-3,1.66-5.47,2.85-1.18.58-2,1-3.06,1.4-.71.29-1.47.57-4.26,1.44a35.34,35.34,0,0,1-5,1.39,7.84,7.84,0,0,1-4.66-.77,7.72,7.72,0,0,1-2.82-3,15,15,0,0,1-2.2-7.18L143,66.28a5.41,5.41,0,0,1-1,1.92,3.48,3.48,0,0,1-1.13,1,3.55,3.55,0,0,1-1.26.33,12.07,12.07,0,0,1-2.32,0c-1.26-.1-1.89-.14-2.29-.21a10.05,10.05,0,0,0-2.16-.34,3.26,3.26,0,0,0-1.43.25,3.5,3.5,0,0,0-1.07.83A6.32,6.32,0,0,0,129,72.06a7.23,7.23,0,0,0-.39,1.3,4.57,4.57,0,0,0,.17,3.12A3.53,3.53,0,0,0,130.36,78a6.63,6.63,0,0,0,2.14.46,13,13,0,0,0,2,.13c1,0,1.18-.15,2.18-.13a2.83,2.83,0,0,1,1.52.24c.15.09.61.4,1,1.58a7.89,7.89,0,0,1,.31,2.44s0,1.44.3,3.79a28.2,28.2,0,0,0,.75,3.74c.33,1.36.43,1.53,1.28,4.54s.79,2.95,1.11,3.91a38.06,38.06,0,0,0,1.68,4.13c.38.79.9,1.81,2,3.67A69.3,69.3,0,0,0,150.9,113,57.7,57.7,0,0,0,156,119c.57.58,1.06,1,1.41,1.38l.24,5.14c0,1.76.06,3.25,0,4.4,0,4-.29,7.08-.43,8.67s-.32,3-.45,4c-2.92.17-6.55.48-10.71,1a116.66,116.66,0,0,0-15.79,3c-4.31,1.16-4.85,1.6-10.72,3.14-4.86,1.27-5.16,1.14-6.81,1.87s-3.84,1.95-9.46,7.59C101.21,161.32,98.49,164.17,95.46,167.74Z"/><path class="cls-3" d="M250.86,167.74a32.54,32.54,0,0,0-4-6.26,34,34,0,0,0-7.24-6.64,27.21,27.21,0,0,0-10.49-5.06,23.12,23.12,0,0,0-5.18-.48c-4.07,0-10.4-.5-20.14-2.78l-.12,2L189.13,167.5Z"/><path class="cls-5" d="M160.48,100c.47-.5,2,.76,5.08,1.78,4.13,1.36,7.54,1.12,11.52.84a44.31,44.31,0,0,0,12.93-3,9.93,9.93,0,0,1-.75,6.27c-3.22,6.29-14.58,7.76-21.63,3.68C162.58,106.72,159.64,100.9,160.48,100Z"/><path class="cls-4" d="M179.7,81.37a44.51,44.51,0,0,0,3,6.18,2.26,2.26,0,0,1,.47,1.78,1.57,1.57,0,0,1-.59.77l-.89.54c-.6.37-1.15.75-1.67,1.12,0,0-.65.24-1-.05s-.09-1,.18-1.31.47-.33,1.19-.77c.34-.22.6-.41.77-.54l-2.67-6.53a.89.89,0,0,1,1.19-1.19Z"/><path class="cls-4" d="M161.7,72.4c-.61-.49-1-1-.84-1.31.21-.46,1.58-.21,1.73-.18,1.14.22,3.78,1.17,3.92,3.39a3.75,3.75,0,0,1-2.08,3.33,4,4,0,0,1-4.22-.36A4,4,0,0,1,158.84,75c-.22-.89-.36-2.58.42-3S161.91,72.57,161.7,72.4Z"/><path class="cls-4" d="M192.16,72.4c-.6-.49-1-1-.83-1.31.21-.46,1.57-.21,1.72-.18,1.15.22,3.78,1.17,3.92,3.39a3.75,3.75,0,0,1-2.08,3.33,4,4,0,0,1-4.21-.36A4,4,0,0,1,189.31,75c-.23-.89-.36-2.58.42-3S192.37,72.57,192.16,72.4Z"/></g></g></svg>