<svg xmlns="http://www.w3.org/2000/svg" viewBox="0 0 386 86.49"><defs><style>.cls-1{font-size:61.89px;font-family:ProductSans-Bold, Product Sans;font-weight:700;}.cls-1,.cls-6,.cls-9{fill:#353535;}.cls-2{letter-spacing:-0.02em;}.cls-3{letter-spacing:0em;}.cls-4{letter-spacing:0em;}.cls-5{letter-spacing:-0.01em;}.cls-6{font-size:29.57px;font-family:ProductSans-Regular, Product Sans;}.cls-7{letter-spacing:0em;}.cls-8{letter-spacing:-0.01em;}.cls-10{fill:#0f9d58;}.cls-11{fill:#727272;}.cls-12{fill:#1e55af;}</style></defs><g id="Layer_2" data-name="Layer 2"><g id="Layer_2-2" data-name="Layer 2"><text class="cls-1" transform="translate(0 53.1)"><tspan class="cls-2">D</tspan><tspan class="cls-3" x="43.57" y="0">o</tspan><tspan class="cls-4" x="79.21" y="0">ct</tspan><tspan class="cls-5" x="137.14" y="0">o</tspan><tspan x="172.17" y="0">r</tspan></text><text class="cls-6" transform="translate(286.64 45.72)">M<tspan class="cls-7" x="24.55" y="0">e</tspan><tspan class="cls-8" x="40.54" y="0">e</tspan><tspan x="55.95" y="0">tup</tspan></text><path class="cls-9" d="M251.49,8.35h-.67V7.89l.37.25A3.06,3.06,0,0,1,251.49,8.35Z"/><path class="cls-10" d="M272,7.81H255.16v.54h-3.67a3.06,3.06,0,0,0-.29-.21l-.37-.25V7.81H232.94v.54h-4.43V7.81H212a5.71,5.71,0,0,0-5.71,5.71V52.61a5.71,5.71,0,0,0,5.71,5.7h60a5.7,5.7,0,0,0,5.7-5.7V13.52A5.71,5.71,0,0,0,272,7.81ZM242,50.7a17.76,17.76,0,1,1,17.76-17.76A17.76,17.76,0,0,1,242,50.7Z"/><path class="cls-10" d="M254.77,30v5.53a.69.69,0,0,1-.68.68h-8.8V45a.68.68,0,0,1-.68.69h-5.52a.69.69,0,0,1-.69-.69V36.24h-8.79a.68.68,0,0,1-.68-.68V30a.68.68,0,0,1,.68-.68h8.79V20.56a.69.69,0,0,1,.69-.69h5.52a.68.68,0,0,1,.68.69v8.79h8.8A.69.69,0,0,1,254.77,30Z"/><rect class="cls-10" x="228.51" y="7.81" width="4.43" height="0.54"/><path class="cls-10" d="M255.16,7.81v.54h-3.67a3.06,3.06,0,0,0-.29-.21l-.37-.25V7.81Z"/><path class="cls-11" d="M247.31,60.38c-.43.94-1,2.34-1.69,4.07-1.43,3.74-2.78,7.32-3.1,11.85-.21,2.94-.34,5.33,1.28,7.16a6.25,6.25,0,0,0,3.09,1.81h4.16V83.88c-.53,0-1.33,0-2.29,0a7,7,0,0,1-2.13-.27A4.36,4.36,0,0,1,244.49,81a9.3,9.3,0,0,1-.3-5,54.76,54.76,0,0,1,3.18-12.21c.5-1.31.94-2.37,1.25-3.06Z"/><path class="cls-12" d="M254.08,86.07a2,2,0,0,0,.8-1.57,1.93,1.93,0,0,0-.86-1.69,2.78,2.78,0,0,0-2.43.12c-1.11.53-1.27.62-1.56.73a5.11,5.11,0,0,1-.76.23l0,1.38,1,.18c.27.09.68.22,1.19.36C252.85,86.19,253.59,86.39,254.08,86.07Z"/><path class="cls-11" d="M265.91,61.57c.31,1,.75,2.45,1.19,4.24,1,3.88,1.86,7.61,1.63,12.14-.15,2.94-.31,5.33-2.15,7a6.23,6.23,0,0,1-3.29,1.42l-4.13-.5.17-1.39c.53.09,1.31.21,2.27.28a6.69,6.69,0,0,0,2.16,0,4.35,4.35,0,0,0,2.44-2.33,9.43,9.43,0,0,0,.91-5,55.7,55.7,0,0,0-1.67-12.5c-.33-1.36-.65-2.46-.86-3.19Z"/><path class="cls-12" d="M256.06,86.24a2.1,2.1,0,0,1-.61-1.66A2,2,0,0,1,256.52,83a2.79,2.79,0,0,1,2.4.41c1,.67,1.18.77,1.46.92a5.82,5.82,0,0,0,.72.33c-.05.45-.09.91-.14,1.37l-1,0c-.28.06-.71.14-1.23.21C257.27,86.5,256.51,86.62,256.06,86.24Z"/><path class="cls-12" d="M266.87,62.37l-.75.09-1.35.16-.13,0a44,44,0,0,0-1.6-6.41c-1-2.86-1.47-3.47-1.87-3.84a6.47,6.47,0,0,0-7-.71,7.15,7.15,0,0,0-3.57,5.26l-1.69,4.54-.44-.08-1.35-.25h0l-.61-.11c.33-.92.8-2.21,1.43-3.74,2-4.81,3-5.88,3.3-6.24,1.66-1.71,2.48-1.19,3.92-2.5,1-.92,2-2.48,2.4-11,.24-5.29.36-7.93-.17-11.76-.7-5-1-7.53-2.68-10.25a18.81,18.81,0,0,0-14.79-8.73,18.55,18.55,0,0,0-6.63.82l-.3.09,0-2.26V5.06l.3-.08c5.08-1.36,11.57-.37,16.8,2.7l.76.46.37.25a3.06,3.06,0,0,1,.29.21,18.2,18.2,0,0,1,6.2,7.08c.8,1.67,1.07,3.19,1.61,6.24a53.52,53.52,0,0,1,.53,8.55c-.07,3.94-.57,6.93-.36,12.39.09,2.16.27,4.31,1.68,6.26.75,1,1.13,1,2.16,2.38a16.41,16.41,0,0,1,2.49,5.17A22.5,22.5,0,0,1,266.87,62.37Z"/><path class="cls-9" d="M255.16,2.45V7.81h-4.33V7.64l0-4.1H233l0,1.27v.45l0,2.26v.29h-4.43V2.45A2.12,2.12,0,0,1,230.64.33H253A2.13,2.13,0,0,1,255.16,2.45Z"/><path class="cls-9" d="M220.18,5.68h2.23a1.83,1.83,0,0,1,1.83,1.83v2.81a0,0,0,0,1,0,0h-5.88a0,0,0,0,1,0,0V7.5A1.83,1.83,0,0,1,220.18,5.68Z"/><path class="cls-9" d="M261.17,5.68h2.23a1.83,1.83,0,0,1,1.83,1.83v2.81a0,0,0,0,1,0,0h-5.88a0,0,0,0,1,0,0V7.5A1.83,1.83,0,0,1,261.17,5.68Z"/></g></g></svg>