<svg xmlns="http://www.w3.org/2000/svg" viewBox="0 0 71.41 86.16"><defs><style>.cls-1{fill:#353535;}.cls-2{fill:#0f9d58;}.cls-3{fill:#727272;}.cls-4{fill:#1e55af;}</style></defs><g id="Layer_2" data-name="Layer 2"><g id="Layer_2-2" data-name="Layer 2"><path class="cls-1" d="M45.23,8h-.67V7.56l.37.25A3.06,3.06,0,0,1,45.23,8Z"/><path class="cls-2" d="M65.71,7.48H48.9V8H45.23a3.06,3.06,0,0,0-.29-.21l-.37-.25V7.48H26.68V8H22.25V7.48H5.71A5.71,5.71,0,0,0,0,13.19V52.28A5.71,5.71,0,0,0,5.71,58h60a5.7,5.7,0,0,0,5.7-5.7V13.19A5.71,5.71,0,0,0,65.71,7.48Zm-30,42.89A17.76,17.76,0,1,1,53.47,32.61,17.76,17.76,0,0,1,35.71,50.37Z"/><path class="cls-2" d="M48.51,29.7v5.53a.69.69,0,0,1-.68.68H39V44.7a.68.68,0,0,1-.68.69H32.83a.69.69,0,0,1-.69-.69V35.91H23.35a.68.68,0,0,1-.68-.68V29.7a.68.68,0,0,1,.68-.68h8.79V20.23a.69.69,0,0,1,.69-.69h5.52a.68.68,0,0,1,.68.69V29h8.8A.69.69,0,0,1,48.51,29.7Z"/><rect class="cls-2" x="22.25" y="7.48" width="4.43" height="0.54"/><path class="cls-2" d="M48.9,7.48V8H45.23a3.06,3.06,0,0,0-.29-.21l-.37-.25V7.48Z"/><path class="cls-3" d="M41.05,60.05c-.42.94-1,2.34-1.69,4.07-1.43,3.73-2.78,7.32-3.1,11.84-.21,2.94-.34,5.34,1.29,7.17a6.17,6.17,0,0,0,3.09,1.81h4.15v-1.4a21.24,21.24,0,0,1-2.28,0,6.78,6.78,0,0,1-2.14-.26,4.38,4.38,0,0,1-2.14-2.62,9.39,9.39,0,0,1-.3-5,56,56,0,0,1,3.18-12.2c.5-1.31,1-2.37,1.25-3.06Z"/><path class="cls-4" d="M47.82,85.74a2.1,2.1,0,0,0,.81-1.57,2,2,0,0,0-.87-1.69,2.75,2.75,0,0,0-2.43.11c-1.11.54-1.27.62-1.56.74s-.43.15-.76.23l0,1.38,1,.18c.27.09.68.22,1.19.36C46.59,85.86,47.33,86.06,47.82,85.74Z"/><path class="cls-3" d="M59.66,61.24c.3,1,.74,2.45,1.18,4.24,1,3.88,1.86,7.61,1.63,12.14-.15,2.94-.31,5.33-2.15,6.95A6.2,6.2,0,0,1,57,86l-4.12-.51.17-1.38c.52.09,1.31.2,2.27.28a6.93,6.93,0,0,0,2.15,0A4.35,4.35,0,0,0,59.94,82a9.33,9.33,0,0,0,.91-5,55.25,55.25,0,0,0-1.66-12.5c-.34-1.36-.66-2.47-.87-3.19Z"/><path class="cls-4" d="M49.8,85.91a2,2,0,0,1-.6-1.66,2,2,0,0,1,1.06-1.58,2.77,2.77,0,0,1,2.4.42c1,.67,1.18.77,1.46.92a5,5,0,0,0,.73.32L54.7,85.7l-1,.06c-.28.06-.7.14-1.22.21C51,86.17,50.25,86.29,49.8,85.91Z"/><path class="cls-4" d="M60.61,62l-.75.09-1.35.16-.13,0a44,44,0,0,0-1.6-6.41c-1-2.86-1.47-3.47-1.87-3.84a6.47,6.47,0,0,0-7-.71,7.15,7.15,0,0,0-3.57,5.26l-1.69,4.54-.44-.08-1.35-.25h0l-.61-.11c.33-.92.8-2.21,1.43-3.74,2-4.81,2.95-5.88,3.3-6.24,1.66-1.71,2.48-1.19,3.92-2.5,1-.92,2-2.48,2.4-11,.24-5.29.36-7.93-.17-11.76-.7-5-1-7.53-2.68-10.25A18.81,18.81,0,0,0,33.61,6.53,18.55,18.55,0,0,0,27,7.35l-.3.09,0-2.26V4.73l.3-.08c5.08-1.36,11.57-.37,16.8,2.7l.76.46.37.25a3.06,3.06,0,0,1,.29.21,18.2,18.2,0,0,1,6.2,7.08c.8,1.67,1.07,3.19,1.61,6.24a53.52,53.52,0,0,1,.53,8.55c-.07,3.94-.57,6.93-.36,12.39.09,2.16.27,4.31,1.68,6.26.75,1,1.13,1,2.16,2.38a16.41,16.41,0,0,1,2.49,5.17A22.5,22.5,0,0,1,60.61,62Z"/><path class="cls-1" d="M48.9,2.12V7.48H44.57V7.31l0-4.1H26.73l0,1.27v.45l0,2.26v.29H22.25V2.12A2.12,2.12,0,0,1,24.38,0H46.77A2.13,2.13,0,0,1,48.9,2.12Z"/><path class="cls-1" d="M13.92,5.34h2.23A1.83,1.83,0,0,1,18,7.17V10a0,0,0,0,1,0,0H12.09a0,0,0,0,1,0,0V7.17A1.83,1.83,0,0,1,13.92,5.34Z"/><path class="cls-1" d="M54.91,5.34h2.23A1.83,1.83,0,0,1,59,7.17V10a0,0,0,0,1,0,0H53.08a0,0,0,0,1,0,0V7.17A1.83,1.83,0,0,1,54.91,5.34Z"/></g></g></svg>