<svg xmlns="http://www.w3.org/2000/svg" xmlns:xlink="http://www.w3.org/1999/xlink" viewBox="0 0 972.77 806.85"><defs><style>.cls-1,.cls-14,.cls-25,.cls-26,.cls-31{fill:#f2f2f2;}.cls-2,.cls-23,.cls-3,.cls-7{fill:#727272;}.cls-14,.cls-15,.cls-16,.cls-17,.cls-20,.cls-21,.cls-22,.cls-23,.cls-24,.cls-25,.cls-26,.cls-27,.cls-28,.cls-29,.cls-3,.cls-30,.cls-31,.cls-33,.cls-34,.cls-35,.cls-36,.cls-7,.cls-9{stroke:#353535;}.cls-14,.cls-15,.cls-16,.cls-17,.cls-19,.cls-20,.cls-21,.cls-22,.cls-23,.cls-24,.cls-25,.cls-26,.cls-27,.cls-28,.cls-29,.cls-3,.cls-30,.cls-33,.cls-34,.cls-7,.cls-9{stroke-miterlimit:10;}.cls-3{stroke-width:3.72px;}.cls-4{fill:url(#linear-gradient);}.cls-5{fill:url(#linear-gradient-2);}.cls-34,.cls-37,.cls-41,.cls-6{fill:#353535;}.cls-7{stroke-width:3.52px;}.cls-8{fill:#ffc79c;}.cls-15,.cls-17,.cls-21,.cls-22,.cls-35,.cls-36,.cls-9{fill:none;}.cls-9{stroke-width:0.97px;}.cls-10{fill:#e6e6e6;}.cls-11{fill:#f7941d;}.cls-12,.cls-33{fill:#db4437;}.cls-13{fill:#231f20;}.cls-14{stroke-width:0.9px;}.cls-15,.cls-20,.cls-31,.cls-35{stroke-width:4.82px;}.cls-16,.cls-45{fill:#1e55af;}.cls-16,.cls-17{stroke-width:2.41px;}.cls-18,.cls-19,.cls-20{fill:#4285f4;}.cls-19{stroke:#f2f2f2;stroke-width:0.39px;}.cls-21,.cls-29{stroke-width:3.61px;}.cls-22{stroke-width:4.84px;}.cls-23,.cls-30,.cls-33,.cls-34{stroke-width:1.2px;}.cls-24,.cls-27,.cls-28,.cls-29,.cls-30,.cls-32{fill:#ccc;}.cls-24{stroke-width:2.52px;}.cls-25{stroke-width:2.4px;}.cls-26{stroke-width:2.54px;}.cls-27{stroke-width:2.69px;}.cls-28{stroke-width:4.79px;}.cls-31,.cls-35,.cls-36{stroke-linecap:round;stroke-linejoin:round;}.cls-36{stroke-width:3.76px;}.cls-37{font-size:2.56px;font-family:ProductSans-Bold, Product Sans;font-weight:700;}.cls-38{letter-spacing:-0.02em;}.cls-39{letter-spacing:0em;}.cls-40{letter-spacing:-0.01em;}.cls-41{font-size:1.22px;font-family:ProductSans-Regular, Product Sans;}.cls-42{letter-spacing:0em;}.cls-43{letter-spacing:-0.01em;}.cls-44{fill:#0f9d58;}</style><linearGradient id="linear-gradient" x1="428.57" y1="547.25" x2="488.4" y2="547.25" gradientUnits="userSpaceOnUse"><stop offset="0" stop-color="#353535"/><stop offset="0.27" stop-color="#383838"/><stop offset="0.47" stop-color="#424242"/><stop offset="0.66" stop-color="#525252"/><stop offset="0.84" stop-color="#6a6a6a"/><stop offset="1" stop-color="#878787"/></linearGradient><linearGradient id="linear-gradient-2" x1="750.62" y1="547.25" x2="810.46" y2="547.25" xlink:href="#linear-gradient"/></defs><g id="Layer_2" data-name="Layer 2"><g id="Layer_2-2" data-name="Layer 2"><polygon class="cls-1" points="0.01 690.43 4.56 806.25 157.22 806.25 305.47 683.46 0.01 690.43"/><polygon class="cls-2" points="430.86 577.82 221.3 806.25 972.77 806.25 771.81 526.29 511.59 493.66 430.86 577.82"/><path class="cls-3" d="M755.06,554.06a630.48,630.48,0,0,0-269.77-2.86V522H755.06Z"/><path class="cls-4" d="M428.57,502.08H488.4a0,0,0,0,1,0,0v68.73a21.61,21.61,0,0,1-21.61,21.61h-16.6a21.61,21.61,0,0,1-21.61-21.61V502.08a0,0,0,0,1,0,0Z"/><path class="cls-5" d="M750.62,502.08h59.83a0,0,0,0,1,0,0v68.73a21.61,21.61,0,0,1-21.61,21.61h-16.6a21.61,21.61,0,0,1-21.61-21.61V502.08A0,0,0,0,1,750.62,502.08Z"/><path class="cls-6" d="M551.66,323.61l9.74-27.77,118.51,1.43q-1.71,17.46-3.43,34.93l-124.82-1.15Z"/><path class="cls-7" d="M532.93,344.87c1.71,1.73,3.91,2.07,12.57,2.21,8.15.14,14.19,0,15.86-.07,16.44-.42,19.59.48,21.53-2.16,1.15-1.57.69-5.25-.28-12.55-1-7.77-1.55-11.65-2.79-13.11-3.46-4.09-8.51-1.74-27.07-2-12.36-.14-16.29-1.26-19.25,2-2.37,2.58-2.47,6.21-2.66,13.49C530.67,339.07,530.58,342.51,532.93,344.87Z"/><path class="cls-8" d="M671.55,314.11c-1.65-.78-3.88-1.83-4.4-3.94-.46-1.87.68-3.57,2.31-6,.6-.89,1.48-2.19,2.1-2s.71,2.49.79,2.49a18.65,18.65,0,0,1,.12-4.42,13.7,13.7,0,0,1,1.62-3.93c1.62-3.08,2.43-4.62,3.47-4.86,1.85-.43,2.62,2.06,6.25,2.78a16.12,16.12,0,0,0,4.17,0c2.75-.19,5.78-.7,5.79-.7,2-.33,2.36-.48,3-.23,1.07.42,1.57,1.52,2.55,3.7,1.12,2.5,1.73,3.88,1.39,5.56a15.58,15.58,0,0,0-.46,2.08c-.12.91-.31,2.5.23,2.78.82.41,2.41-2.66,3.47-2.32s1.66,5.2-.7,7.41c-.65.62-1.21.73-3.23,1.34-5.91,1.79-5.26,2.06-7.18,2.36-2.14.34-2-.16-8.33-.46-3.26-.15-3.47,0-5.79-.23C675.29,315.21,673.53,315,671.55,314.11Z"/><path class="cls-6" d="M671.4,303.19l2.09,3-.65,1.83-2.3-3.38C670.83,304.15,671.12,303.67,671.4,303.19Z"/><path class="cls-6" d="M701,305.92l-2.59.61.18,1.69,2.64-.67Z"/><ellipse class="cls-9" cx="678.68" cy="307.76" rx="5.67" ry="5.32"/><ellipse class="cls-9" cx="693.61" cy="307.43" rx="5.32" ry="4.99"/><ellipse class="cls-6" cx="679.25" cy="308.01" rx="2.02" ry="1.8"/><ellipse class="cls-6" cx="693.15" cy="308.01" rx="2.02" ry="1.8"/><rect class="cls-6" x="684.22" y="306.26" width="4.24" height="1.05"/><path class="cls-10" d="M677,324.35a15.93,15.93,0,0,0,18.13.64,16.61,16.61,0,0,0,4.82-5.53,15.73,15.73,0,0,0,1.71-5.7c-3.37.15-6.19.24-8.21.29-4.89.13-11,.27-18.69,0-1.55-.05-2.82-.11-3.63-.15A16.25,16.25,0,0,0,677,324.35Z"/><path class="cls-11" d="M699,334.66a1.14,1.14,0,0,0,1.56.45l.52,1,.87,3.18,5,.23c.34-.39.69-.77,1-1.16.09-.36.19-.73.29-1.1s.27-1,.4-1.56a16.5,16.5,0,0,0-5.84-1.91,17,17,0,0,0-3.52-.07A1,1,0,0,0,699,334.66Z"/><path class="cls-12" d="M677.74,331.18q3.81,7.29,7.64,14.58l9-14.41Z"/><path class="cls-13" d="M672.1,307.27,670.85,306a1.68,1.68,0,0,0-.88-1c-.85-.3-1.66.67-2.24.34-.23-.13-.43-.48-.41-1.51a9.94,9.94,0,0,1,1-3.76c1.14-2.9-.75-3.72.23-6.83.42-1.33,1.22-2.33,2.83-4.33a29.48,29.48,0,0,1,3.53-3.65,13.71,13.71,0,0,1,1.74-1.39c1.51-.9,3-1.05,5.67-1.1,2.93-.05,3.43.1,6,.12,4.91,0,6.63-.47,7.63.75.67.81.18,1.36,1,2.55s1.92,1.24,3.24,2.31a7.82,7.82,0,0,1,2.31,3.3l.12,8.73-1,.29-.06,5-1.51.12-.92-4.06a4.8,4.8,0,0,0-.4-2.31c-.71-1.55-2.29-2.69-2.78-2.37s.54,1.63-.06,2.66c-.88,1.52-4.48,1-5.84.75a12.82,12.82,0,0,1-5.7-2c-3.17-2.16-3.61-4.87-5.12-4.69-.55.06-.76.46-2.43,3-2.84,4.33-3.11,4.52-3.64,5.84A16.57,16.57,0,0,0,672.1,307.27Z"/><path class="cls-10" d="M648.4,347.49c5.53-9.13,11.41-12.06,13.72-13a74.22,74.22,0,0,1,9.89-3c2.56-.59,4.72-1,6.25-1.21q3.56,7.72,7.12,15.45,4.93-7.9,9.89-15.8l15.27,3.47,11.36,13.76Z"/><path class="cls-6" d="M666.41,347.91c-.83-4.13.09-7.93,2.6-9.69a5.89,5.89,0,0,1,2.24-.93c-.06-1.8-.12-3.6-.19-5.4,2.42-.9,3.26-.74,3.54-.38s0,1-.18,2.43a11.33,11.33,0,0,0,0,2.42,8.3,8.3,0,0,1,5.4,2.42,8.59,8.59,0,0,1,1.68,8.76l-2.74.18a7.28,7.28,0,0,0-.62-5.77,5.1,5.1,0,0,0-3.35-2.61c-2.49-.44-4.37,1.75-4.47,1.86a6.07,6.07,0,0,0-.56,6.52Z"/><path class="cls-6" d="M698.16,333.88l-.63,3.72a3.78,3.78,0,0,0-2.84.35,3.6,3.6,0,0,0-1.73,3.47,3.56,3.56,0,0,0,2.19,2.89,3.81,3.81,0,0,0,4.92-2.26,4,4,0,0,0-1-3.41q.51-2.49,1-5Z"/><circle class="cls-10" cx="696.56" cy="341.14" r="1.39"/><path class="cls-6" d="M649.1,349.4l-8.33-.69a49.49,49.49,0,0,1,12.84-15.28A50.38,50.38,0,0,1,678,323.26,51.87,51.87,0,0,1,730.5,347l-8,1A41.36,41.36,0,0,0,708.63,336c-9-4.75-17.19-4.72-23.43-4.7-7.19,0-14.82,0-22.87,4.69A36.53,36.53,0,0,0,649.1,349.4Z"/><path class="cls-8" d="M696,329.7a2.62,2.62,0,0,1,2.21-.37c1.16.5,1.8,2.66.78,5.09a2.32,2.32,0,0,1-2.11-.35,2.27,2.27,0,0,1-.81-1.62C696.06,331.53,696,330.62,696,329.7Z"/><path class="cls-8" d="M692.69,324.53c0,.19-.16,1.16.42,1.63a1,1,0,0,0,1,.16c.27-.22-.2-.82.06-1.1a.55.55,0,0,1,.73,0c.21.25-.25.71-.05,1a.68.68,0,0,0,.94,0c.21-.29-.32-.78-.1-1.1a.6.6,0,0,1,.79-.1c.27.24-.14.79.15,1.2s.73.43.9.27-.49-1.15-.16-1.53a.47.47,0,0,1,.46-.12c.59.16.34,1.56,1,1.84a.78.78,0,0,0,.89-.25c.3-.48-.53-1.38-.31-1.57s.4,0,.57.17c.5.35.37.84.81,1.19a.94.94,0,0,0,.93.19c.44-.25.33-1.31.15-1.87-.63-2.06-4.09-3.81-6.72-2.78A4,4,0,0,0,692.69,324.53Z"/><path class="cls-14" d="M603.19,296.35a8.87,8.87,0,0,1,4.44-9.9l31.92.13a9.09,9.09,0,0,1,4,5,8.84,8.84,0,0,1,0,5.24Z"/><path class="cls-6" d="M619.47,281.2q-.12,4-.25,8.06l4.23.13-.36-8.58Z"/><path class="cls-15" d="M732.31,347.5l-221.15-1.92,2.89-11.75,4.79-22a47.28,47.28,0,0,1,1.45-5.95c1.68-5.3,5-15.84,14.06-20a20.45,20.45,0,0,1,10.81-1.6l19.78.29,137.88-.87a22.14,22.14,0,0,1,6.81,2.32c6.59,3.56,9.84,9.88,12.47,16.68C728.75,319.82,731.43,340,732.31,347.5Z"/><path class="cls-16" d="M754.85,324.92c-3-13.12-4.3-17.14-5.26-19.77-4.46-12.23-9.45-25.89-21.31-32.12-2.47-1.3-5.57-2.43-23.77-2.88-16-.4-27.72.19-35,.42-11.42.38-28.85.82-50.25.87-14.79,0-23.43.05-35.2-.22-45.73-1-62.41-4.54-73.93,6.16a54.77,54.77,0,0,0-9.81,13.17c-1.43,3.41-2.81,7.11-4.1,11.07a147.54,147.54,0,0,0-4.49,17.48q-3.23,19.22-6.44,38.43l276.32,2.15C760.29,351.57,758.14,339.54,754.85,324.92ZM511.48,345.58l2.9-11.75,4.79-22a44,44,0,0,1,1.45-5.95c1.67-5.3,5-15.84,14.06-20a20.41,20.41,0,0,1,10.8-1.6l19.78.29,137.89-.87A22,22,0,0,1,710,286c6.59,3.56,9.85,9.88,12.47,16.68,6.65,17.15,9.34,37.32,10.22,44.83Z"/><path class="cls-17" d="M732.31,347.5l-221.15-1.92,2.89-11.75,4.79-22a47.28,47.28,0,0,1,1.45-5.95c1.68-5.3,5-15.84,14.06-20a20.45,20.45,0,0,1,10.81-1.6l19.78.29,137.88-.87a22.14,22.14,0,0,1,6.81,2.32c6.59,3.56,9.84,9.88,12.47,16.68C728.75,319.82,731.43,340,732.31,347.5Z"/><path class="cls-18" d="M453.64,400.17a19.3,19.3,0,0,1-3,9.76c-5.27,8.2-15.12,9-16.37,9l2.56,58.94,369,2L807.59,398Z"/><path class="cls-19" d="M471.79,358.83,444,387.45a16.21,16.21,0,0,1,3,1.7,17.89,17.89,0,0,1,6.26,8.75l334.29.19a17.5,17.5,0,0,1,1.3-3.35,20.64,20.64,0,0,1,5.38-6.42,27.4,27.4,0,0,1,3.06-2.3l-22-25.48Z"/><path class="cls-15" d="M761.61,359.68l-276.32-2.15q3.22-19.21,6.44-38.43a147.54,147.54,0,0,1,4.49-17.48c1.29-4,2.67-7.66,4.1-11.07a54.77,54.77,0,0,1,9.81-13.17c11.52-10.7,28.2-7.18,73.93-6.16,11.77.27,20.41.24,35.2.22,21.4-.05,38.83-.49,50.25-.87,7.28-.23,19-.82,35-.42,18.2.45,21.3,1.58,23.77,2.88,11.86,6.23,16.85,19.89,21.31,32.12,1,2.63,2.31,6.65,5.26,19.77C758.14,339.54,760.29,351.57,761.61,359.68Z"/><path class="cls-20" d="M764.08,321c-8-27.82-12-41.78-13.76-44.48C737.19,256.5,707.77,260.67,628,260.49c-88.32-.21-116.17-5.45-131,15C489.26,286.2,484.33,305,478.52,327c-3.54,13.47-5.62,24.82-6.86,32.64l303.59.86C772.68,351.36,768.84,337.66,764.08,321Zm-278.79,36.5q3.22-19.21,6.44-38.43a147.54,147.54,0,0,1,4.49-17.48c1.29-4,2.67-7.66,4.1-11.07a54.77,54.77,0,0,1,9.81-13.17c11.52-10.7,28.2-7.18,73.93-6.16,11.77.27,20.41.24,35.2.22,21.4-.05,38.83-.49,50.25-.87,7.28-.23,19-.82,35-.42,18.2.45,21.3,1.58,23.77,2.88,11.86,6.23,16.85,19.89,21.31,32.12,1,2.63,2.31,6.65,5.26,19.77,3.29,14.62,5.44,26.65,6.76,34.76Z"/><path class="cls-1" d="M792.82,396.16a12.75,12.75,0,0,0,3.48-1.42c1.05-.76,1-1.55,1.54-2.56l-1.35,1,.36-.14-1.74-.23c1.3.66,1.59,2.15,2.65,3.06a5.62,5.62,0,0,0,3.83,1.13l-.6-4.44c-1.49.58-3.52.31-5.11.29a27.3,27.3,0,0,1-5.64-.62c-2.84-.64-4,3.72-1.21,4.36a34.33,34.33,0,0,0,6.85.78c2,0,4.44.28,6.31-.45,2.25-.89,2.12-4.43-.6-4.44-1.25,0-1.4-1.09-2.16-1.93a5.86,5.86,0,0,0-2.58-1.87,2.88,2.88,0,0,0-2.55.72c-.46.44-.44.89-.79,1.36-.48.65-1,.72-1.89,1-2.75.92-1.57,5.29,1.2,4.36Z"/><path class="cls-21" d="M798.36,387.57c-5.06-.36-9.48,3.78-9.87,9.26"/><path class="cls-12" d="M789.41,404.07c2.61,4.71,6,9.62,10.74,12.38,3,1.74,8.12-.41,7.63-4.38a47,47,0,0,1-.3-7.86,5.08,5.08,0,1,0-10.15,0,45.91,45.91,0,0,0,.31,7.86l7.63-4.38c-3.22-1.87-5.35-5.58-7.1-8.74-3.17-5.71-11.94-.6-8.76,5.12Z"/><path class="cls-21" d="M788.11,399.11c0,10.43,9.19,18.86,20.49,18.83"/><path class="cls-1" d="M449.38,392.38c-.89-.3-1.39-.34-1.89-1-.26-.34-.32-.79-.61-1.13a2.81,2.81,0,0,0-2.73-.95,5.6,5.6,0,0,0-2.37,1.61c-.84.86-1.06,2.18-2.37,2.18-2.7,0-2.88,3.55-.6,4.44,1.87.74,4.33.48,6.31.45a32.75,32.75,0,0,0,6.84-.78c2.84-.63,1.64-5-1.2-4.35a28.08,28.08,0,0,1-5.64.62c-1.54,0-3.66.28-5.11-.29l-.6,4.43a5.57,5.57,0,0,0,3.83-1.12c1.06-.92,1.35-2.4,2.65-3.06l-1.74.22.35.15-1.35-1c.57,1,.49,1.78,1.55,2.56a12.75,12.75,0,0,0,3.48,1.42c2.76.92,3.95-3.44,1.2-4.36Z"/><path class="cls-21" d="M442.64,388.15c5.06-.37,9.48,3.77,9.87,9.26"/><path class="cls-12" d="M442.83,399.52c-1.76,3.16-3.88,6.88-7.1,8.74l7.63,4.38a45.83,45.83,0,0,0,.31-7.86,5.18,5.18,0,0,0-5.08-5.07,5.12,5.12,0,0,0-5.07,5.07,46.87,46.87,0,0,1-.3,7.86c-.5,4,4.62,6.13,7.63,4.38,4.76-2.75,8.12-7.66,10.74-12.38,3.17-5.71-5.59-10.83-8.76-5.12Z"/><path class="cls-21" d="M452.89,399.68c0,10.44-9.19,18.86-20.5,18.83"/><path class="cls-22" d="M470.36,358.82l-37.21,39.59L435.44,479l370.44,2,1.71-82.65h0l-32.34-37.85Z"/><line class="cls-15" x1="434.29" y1="398.93" x2="807.59" y2="398.04"/><ellipse class="cls-23" cx="620.37" cy="386.01" rx="15.04" ry="4.89"/><path class="cls-1" d="M614.88,383.45l1-.42-.72,1.49h-1.26l.18-1.49h12.26l.18,1.49h-1.26l-.72-1.49,1,.42Zm5.56,4.71,3.15.12v.33h-6.74v-.33l3.14-.12Zm-1.23-2.54c0-.86,0-1.73-.07-2.59h2.16c-.07.84-.07,1.71-.07,2.59V386c0,.86,0,1.73.07,2.58h-2.16c.07-.84.07-1.7.07-2.58Z"/><path class="cls-24" d="M472.22,412h43.53a1.05,1.05,0,0,1,1.05,1.05v51a1.05,1.05,0,0,1-1.05,1.05H454a7.85,7.85,0,0,1-7.85-7.85V438A26.09,26.09,0,0,1,472.22,412Z"/><path class="cls-25" d="M589.41,466.17l-102.75-1.32c1.28-.82,13.48-9,14.26-23.88.62-12-6.35-23.43-17.68-29l106.29.27a7.73,7.73,0,0,1,7.72,7.73v38.49A7.73,7.73,0,0,1,589.41,466.17Z"/><circle class="cls-26" cx="474.86" cy="438.16" r="19.65"/><rect class="cls-6" x="511.87" y="412.21" width="6.15" height="52.67"/><rect class="cls-6" x="529.26" y="412.21" width="6.15" height="52.67"/><rect class="cls-6" x="545.37" y="412.21" width="6.15" height="52.67"/><path class="cls-24" d="M732.25,412H794a1.05,1.05,0,0,1,1.05,1.05v51A1.05,1.05,0,0,1,794,465H750.48A26.09,26.09,0,0,1,724.39,439V419.82a7.85,7.85,0,0,1,7.85-7.85Z" transform="translate(1519.46 877) rotate(-180)"/><path class="cls-25" d="M651.8,466.17l102.74-1.32c-1.28-.82-13.48-9-14.25-23.88-.62-12,6.34-23.43,17.67-29l-106.28.27A7.74,7.74,0,0,0,644,420v38.49A7.73,7.73,0,0,0,651.8,466.17Z"/><circle class="cls-26" cx="766.34" cy="438.16" r="19.65"/><rect class="cls-6" x="723.18" y="412.21" width="6.15" height="52.67" transform="translate(1452.51 877.1) rotate(-180)"/><rect class="cls-6" x="705.79" y="412.21" width="6.15" height="52.67" transform="translate(1417.73 877.1) rotate(-180)"/><rect class="cls-6" x="689.68" y="412.21" width="6.15" height="52.67" transform="translate(1385.52 877.1) rotate(-180)"/><rect class="cls-27" x="600.95" y="405.62" width="19.04" height="67.56" rx="9.52"/><rect class="cls-27" x="621.33" y="405.71" width="19.04" height="67.56" rx="9.52"/><rect class="cls-6" x="436.18" y="507.66" width="374.28" height="19.24"/><path class="cls-28" d="M432.53,480H811.08a7.68,7.68,0,0,1,7.68,7.68v4a14.51,14.51,0,0,1-14.51,14.51H439.36a14.51,14.51,0,0,1-14.51-14.51v-4a7.68,7.68,0,0,1,7.68-7.68Z"/><path class="cls-29" d="M488.4,480h16.89a0,0,0,0,1,0,0v42a0,0,0,0,1,0,0h-6.87a10,10,0,0,1-10-10V480A0,0,0,0,1,488.4,480Z"/><path class="cls-29" d="M735.74,481.06h16.89a0,0,0,0,1,0,0v42a0,0,0,0,1,0,0h-6.87a10,10,0,0,1-10-10v-32A0,0,0,0,1,735.74,481.06Z"/><polygon class="cls-1" points="386.2 708.79 319.21 792.53 367.3 792.53 430.43 711.37 386.2 708.79"/><polygon class="cls-1" points="458.48 708.79 402.51 792.53 467.36 792.53 505.29 710.94 458.48 708.79"/><polygon class="cls-1" points="534.77 710.94 496.84 792.53 571.7 792.53 576.86 710.94 534.77 710.94"/><polygon class="cls-1" points="600.95 710.94 599.18 792.53 659.73 792.53 657.59 710.94 600.95 710.94"/><polygon class="cls-1" points="681.63 708.79 681.63 792.53 752.63 790.81 722.43 708.79 681.63 708.79"/><path class="cls-1" d="M749.91,710.94q16.1,40.78,32.2,81.59H834.5l-48.09-81.59Z"/><polygon class="cls-1" points="815.18 710.94 868.86 795.53 908.79 795.53 839.66 708.79 815.18 710.94"/><polyline class="cls-30" points="0.01 694.07 298.17 687.32 153.46 806.25 180.42 806.25 330.48 679.16 0.01 679.16"/><line class="cls-23" x1="224.31" y1="806.25" x2="180.42" y2="806.25"/><polyline class="cls-23" points="180.42 806.25 330.48 679.16 330.8 679.16 330.8 708.8 224.31 806.25"/><rect class="cls-31" x="110.94" y="2.41" width="113.37" height="292.57"/><polygon class="cls-6" points="224.74 32.18 250.5 64.82 224.74 68.83 224.74 32.18"/><polyline class="cls-6" points="224.74 240.88 224.74 204.23 250.5 236.87"/><polyline class="cls-6" points="224.74 149.84 224.74 113.2 250.5 145.83"/><rect class="cls-32" x="128.55" y="19.59" width="82.45" height="253.64" rx="21.76"/><circle class="cls-33" cx="169.49" cy="65.39" r="37.79"/><circle class="cls-34" cx="169.49" cy="150.99" r="37.79"/><circle class="cls-34" cx="169.49" cy="236.58" r="37.79"/><line class="cls-34" x1="134.85" y1="188.77" x2="204.13" y2="188.77"/><line class="cls-34" x1="129.7" y1="274.37" x2="210.43" y2="274.37"/><path class="cls-31" d="M145.15,754.17l8.31-457.91,19.75.57,7.21,457.34a36.24,36.24,0,0,1-35.27,0Z"/><path class="cls-35" d="M151.74,490.79a31.62,31.62,0,0,1,23.76,0"/><path class="cls-36" d="M154.6,359.11a27.15,27.15,0,0,1,19.18,0"/><polygon class="cls-6" points="149.95 489.63 145.16 754.16 162.9 758.75 180.42 754.16 176.25 489.63 149.95 489.63"/><polygon class="cls-6" points="153.46 296.26 173.78 297.27 173.78 357.36 152.32 358.82 153.46 296.26"/><text class="cls-37" transform="translate(532.6 291.56)"><tspan class="cls-38">D</tspan><tspan x="1.8" y="0">o</tspan><tspan class="cls-39" x="3.28" y="0">ct</tspan><tspan class="cls-40" x="5.67" y="0">o</tspan><tspan x="7.12" y="0">r</tspan></text><text class="cls-41" transform="translate(544.46 291.25)">M<tspan class="cls-42" x="1.02" y="0">e</tspan><tspan class="cls-43" x="1.68" y="0">e</tspan><tspan x="2.31" y="0">tup</tspan></text><path class="cls-6" d="M543,289.71h0v0h0Z"/><path class="cls-44" d="M543.85,289.69h-.69v0h-.92v0h-.19v0h-.68a.23.23,0,0,0-.24.23v1.62a.23.23,0,0,0,.24.23h2.48a.23.23,0,0,0,.24-.23v-1.62A.23.23,0,0,0,543.85,289.69Zm-1.24,1.77a.74.74,0,1,1,.74-.74A.74.74,0,0,1,542.61,291.46Z"/><path class="cls-44" d="M543.14,290.6v.23a0,0,0,0,1,0,0h-.36v.37s0,0,0,0h-.23l0,0v-.37h-.36a0,0,0,0,1,0,0v-.23s0,0,0,0h.36v-.37l0,0h.23a0,0,0,0,1,0,0v.37h.36S543.14,290.59,543.14,290.6Z"/><rect class="cls-44" x="542.05" y="289.69" width="0.18" height="0.02"/><path class="cls-44" d="M543.16,289.69v0h0Z"/><path class="cls-2" d="M542.83,291.86l-.07.17a1.76,1.76,0,0,0-.13.49.34.34,0,0,0,.06.29.25.25,0,0,0,.12.08H543v-.06h-.19s-.07-.08-.09-.11a.5.5,0,0,1,0-.21,2.43,2.43,0,0,1,.13-.5.81.81,0,0,1,.06-.13Z"/><path class="cls-45" d="M543.11,292.92a.08.08,0,0,0,0-.06.06.06,0,0,0,0-.07s-.09,0-.1,0l-.07,0h0v.06H543C543.06,292.93,543.09,292.94,543.11,292.92Z"/><path class="cls-2" d="M543.6,291.91l0,.17a1.7,1.7,0,0,1,.07.51.39.39,0,0,1-.09.28.24.24,0,0,1-.14.06l-.17,0v-.06l.09,0h.09a.19.19,0,0,0,.1-.1.39.39,0,0,0,0-.21,2.19,2.19,0,0,0-.07-.51c0-.06,0-.1,0-.13Z"/><path class="cls-45" d="M543.19,292.93s0-.07,0-.07a.07.07,0,0,1,0-.06.13.13,0,0,1,.1,0l.06,0h0v.06h-.1C543.24,292.94,543.21,293,543.19,292.93Z"/><path class="cls-45" d="M543.64,291.94h-.09a1.13,1.13,0,0,0-.07-.26c0-.12-.06-.15-.08-.16a.27.27,0,0,0-.29,0,.29.29,0,0,0-.14.22l-.07.19h-.1a1.16,1.16,0,0,1,.06-.16,1.19,1.19,0,0,1,.13-.26c.07-.07.1,0,.16-.1s.09-.1.1-.45a2.65,2.65,0,0,0,0-.49,1.14,1.14,0,0,0-.11-.42.79.79,0,0,0-.62-.36.77.77,0,0,0-.27,0h0v-.11h0a.93.93,0,0,1,.7.11l0,0h0a.73.73,0,0,1,.26.29,1.51,1.51,0,0,1,.07.26,2.51,2.51,0,0,1,0,.35c0,.17,0,.29,0,.52a.59.59,0,0,0,.07.25c0,.05.05.05.09.1a.75.75,0,0,1,.11.22A2.07,2.07,0,0,1,543.64,291.94Z"/><path class="cls-6" d="M543.16,289.46v.23H543v-.17h-.74v.18h-.19v-.23a.09.09,0,0,1,.09-.08h.93A.09.09,0,0,1,543.16,289.46Z"/><path class="cls-6" d="M541.71,289.6h.09a.08.08,0,0,1,.08.08v.12a0,0,0,0,1,0,0h-.24a0,0,0,0,1,0,0v-.12A.08.08,0,0,1,541.71,289.6Z"/><path class="cls-6" d="M543.4,289.6h.09a.08.08,0,0,1,.08.08v.12a0,0,0,0,1,0,0h-.24a0,0,0,0,1,0,0v-.12A.08.08,0,0,1,543.4,289.6Z"/></g></g></svg>