<svg xmlns="http://www.w3.org/2000/svg" viewBox="0 0 411.17 289.93"><defs><style>.cls-1{fill:#dff1fd;}.cls-2{fill:#e8dbcb;}.cls-3{fill:#f4e7d7;}.cls-4{fill:#c59b6e;}.cls-5{fill:#8c623a;}.cls-6{fill:#fdfdfc;}.cls-7{fill:#0a2131;}.cls-8{fill:#513625;}.cls-9{fill:#f39663;}.cls-10{fill:#363a3d;}.cls-11{fill:#a77d54;}.cls-12{fill:#e4e3e3;}.cls-13{fill:#113043;}.cls-14{fill:#f4b400;}.cls-15{fill:#98c9d5;}.cls-16{fill:#4285f4;}</style></defs><g id="Layer_2" data-name="Layer 2"><g id="Layer_1-2" data-name="Layer 1"><path class="cls-1" d="M.07,137.72Q.07,70.25,0,2.77C0,.64.26,0,2.64,0q203,.12,405.92,0c2.43,0,2.6.72,2.6,2.79q-.09,94.47-.05,188.94H371c3.56-4.91,7.53-9.36,9.81-15.34,2.76-7.27,4.61-14.47,4.66-22.18,0-4.82,0-9.65,0-14.48a6.67,6.67,0,0,0-.14-2.29c-2-5.11-2.06-10.62-3.57-15.88-1.77-6.14-3.27-12.34-5.53-18.34A56.78,56.78,0,0,0,363.11,83c-1.45-1.45-3.22-2.21-4.82-3.28a55.25,55.25,0,0,0-19.13-8,46.25,46.25,0,0,0-10.24-1.24c-1.09,0-1.46-.79-1.71-1.68a53.29,53.29,0,0,0,1.49-27.27c-1.21-5.92-3.41-11.35-10.43-12.76.77-1,2.22-1,2.6-2.3-1.27-1-3.43-.77-3.95-3-.19-.78-1.14-.25-1.27.51-.17,1-.17,2-.28,3.37a19.34,19.34,0,0,0-10-7.37,25.88,25.88,0,0,0-31.86,14.5c-1.86,4.2-3.27,8.56-5.84,12.47-2.12,3.22.21,7.22,4.14,7.78,2.76.39,5.45-.31,8.16-.65l.49,2.19a2.29,2.29,0,0,0,.32,2.89,47.13,47.13,0,0,0,3.47,16.58c3.18,7.27,7.21,14.59,18.15,13.18,1.71,0,3,.26,1.19,2.12a17.77,17.77,0,0,0-2.46,3.82c-5.28,9.2-7.78,19.37-9,29.66-.8,7.09-2.06,14.25-1.6,21.47.07,1.07.41,2.39-.38,3.18-2.38,2.36-2.34,5.28-2.26,8.25-1.11.47-2.2,1-3.32,1.4C274.36,163,264,166.73,254.24,172c-5.77,3.1-8.87,7.91-9.87,14.23-.29,1.83-.42,3.68-.62,5.52-7.21,0-14.43-.2-21.62.1-3.5.14-4.16-1.09-4.1-4.27.19-10.05.07-20.09.06-30.14,4.16-2.65,8.76-4.4,13.17-6.54,7.06-3.44,7.32-3.87,6.48-11.64-.08-.81-.11-1.56-1.21-1.49-.65-.05-1.31-.14-2-.14h-86.2c-1,0-2,.16-2.94.25a5.79,5.79,0,0,1-.53-2.87q-2.51-27.65-5-55.3c-.37-4.11-1.44-5-5.63-5.1l-17.75-.24c-.53-.7-.2-1.44-.13-2.18a47.92,47.92,0,0,0-1.78-16.59l-.06-.13.38-1,2-.19c.26.33.47.24.65-.08a20.93,20.93,0,0,0,3.75-1.15c2.36-1.23,3.15-4.4,1.22-6.12-3.72-3.32-6.28-7.57-9.74-11.1-7.61-7.73-22.92-4.7-27.37,1.48-2.42,3.34-4.39,6.48-8.66,8.24-4,1.63-5,6.37-6.22,10.39-1.74,5.82-1.79,11.9-2.71,17.84-6.35-.12-12.69-.28-19-.36-4.43,0-5.73,1.28-5.42,5.69.76,11,1.67,22,2.38,33.06.55,8.5,1.64,17,1.61,25.52l-.58,0Zm122.7-71.49a6.29,6.29,0,0,0,3.33,1.71c4.6,1.35,8.85.23,12.94-1.74a5.12,5.12,0,0,1,5.25,0c5,2.88,10.51,2.93,16.13,3.14,13.15.48,26.19-10.78,29.13-23.51,2.53-11,.3-20.95-7.39-29.25a31.35,31.35,0,0,0-39-5.75c-10.31,6-15.48,15-16,26.8-.29,7.14,2.4,13.46,6.13,19.36a2.68,2.68,0,0,1-.05,3.45C130.89,64.17,127.07,65.29,122.77,66.23Z"/><path class="cls-2" d="M157.5,289.86q-77.4,0-154.8.07c-2.25,0-2.71-.44-2.7-2.7.12-18.44.07-36.88.07-55.33H127.12c0,1.31.1,2.62.1,3.93,0,14.3,0,28.6,0,42.91,0,1.15-.75,2.86,1.19,3.25,2.87.57,5.77,1.13,8.63-.08,2.4-1.5,4.73-3.14,7.23-4.44,2.15-1.12,2.74-2.64,2.73-5-.06-13.53,0-27.07.08-40.6q22.94,0,45.87,0c1.56,0,3.05,0,4.13,1.36,0,4.67,0,9.34.06,14,0,1.29-.18,2.9,1.72,2.9,2.67,0,5.39.63,8-.42,3.61-1.52,6.62-4,9.88-6.11l.29-.52.31-2.62c1.11-1,.69-2.24.71-3.39.09-5.82-.69-5.15,5.36-5.19,3,0,5.93.08,8.89,0,2.36-.09,4.56.17,5.36,2.71s-1.16,3.7-3,4.86c-12.68,8.17-25.33,16.39-38,24.52-12.24,7.84-24.53,15.58-36.78,23.41C159,288,157.65,288.4,157.5,289.86Z"/><path class="cls-3" d="M411.11,201.61q0,43,.06,85.95c0,2-.4,2.36-2.36,2.36q-47.26-.12-94.53-.06c1.55-3.31,5.18-3.76,7.84-5.43,16.31-10.28,31.8-21.57,45.23-35.5a25.18,25.18,0,0,0,5.06-6.8,3.8,3.8,0,0,0-.89-4.74,14.56,14.56,0,0,0-8.42-4.06c-2.16-.32-2.74-1.24-2.72-3.21.07-9.53.07-19.07.09-28.6Z"/><path class="cls-4" d="M.07,137.72H46.83a29.52,29.52,0,0,0,.24,5.89c.57,2.43-.63,5.33,1.82,7.28l.58.43a5.61,5.61,0,0,0,4.06,3.85c4.26,1.35,8.38,3.14,12.63,4.51,8.18,2.64,16,6.81,25.07,5.6,2.39-.32,4.79-.47,7.19-.65,9.5-.71,19-1.19,28.49-2.15,15.35-1.55,30.74-2.49,46.11-3.83,5.11-.44,10.2-1.16,15.3-1.78,2.29-.28,2.85-1.36,1.39-3.27-8.71-2.56-17.72-3.6-26.6-5.3-6.28-1.21-12.7-1.72-18.89-3.41,1.71-2.12,1.12-4.64,1.21-7,1-.09,2-.25,2.94-.25h86.2c.65,0,1.31.09,2,.14-7.85,4.82-16.44,8.15-24.67,12.22-17.83,8.82-35.8,17.36-53.71,26L.07,175.92Z"/><path class="cls-3" d="M127.12,231.89H.07V201.61l127,0Q127.12,216.73,127.12,231.89Z"/><path class="cls-2" d="M360.47,201.52c0,9.53,0,19.07-.09,28.6,0,2,.56,2.89,2.72,3.21a14.56,14.56,0,0,1,8.42,4.06,3.8,3.8,0,0,1,.89,4.74,25.18,25.18,0,0,1-5.06,6.8c-13.43,13.93-28.92,25.22-45.23,35.5-2.66,1.67-6.29,2.12-7.84,5.43H257c-1.93-2.35-4.92-2.37-7.47-3.28-6.4-2.26-12.6-4.93-18.11-8.94-4.06-2.95-4.76-7.52-1.38-11,2.21-2.29,4.24-4.41,4.51-7.72-.34,3.63-.26,7.11,3.44,9.24,3,3,6.78,3.12,10.6,2.28,2.83-.63,5.57-1.62,8.36-2.44-.27,4.4-.13,8.66,4.09,11.47a14.75,14.75,0,0,0,13,2.49,57.51,57.51,0,0,0,23-12.15,4.2,4.2,0,0,0,1.66-2.74c.66-2.78-.3-5.49-.41-8.24a6.27,6.27,0,0,0,1.61-2.55c1.15-.21,1.21-1.07,1.21-2,0-5.26,0-10.52,0-15.78,0-.94-.11-1.78-1.26-2l-.1-2c1.49-1.51.14-3.55.94-5.2,1,.34-.24,2.15,1.59,2-.34-2.94,1.3-4.06,4-4.13l.12,42c0,5.75,0,5.75,6,5.38,2.66-1.57,6.68-2,6.7-6.09.07-15.95,0-31.9-.11-47.85.11-.67.21-1.33.31-2,.69,1.92.32,3.91.3,5.85s.48,2.65,2.56,2.78c8.34.52,16.67,1.23,24.94,2.55.05,6.76.18,13.53.1,20.28,0,2.19.73,3,2.84,2.75,1.06-.13,2.19.28,3.16-.48,2.63-1.46,6.57-1.84,6.62-5.78.16-10.41,0-20.83-.09-31.25,0-1.64,0-3.28.16-4.91.27-3.19-.68-6.46.56-9.59Q360.44,201.22,360.47,201.52Z"/><path class="cls-3" d="M234.52,258.9c-.27,3.31-2.3,5.43-4.51,7.72-3.38,3.5-2.68,8.07,1.38,11,5.51,4,11.71,6.68,18.11,8.94,2.55.91,5.54.93,7.47,3.28H157.5c.15-1.46,1.46-1.87,2.41-2.48,12.25-7.83,24.54-15.57,36.78-23.41,12.71-8.13,25.36-16.35,38-24.52,1.81-1.16,3.77-2.33,3-4.86s-3-2.8-5.36-2.71c-3,.11-5.92,0-8.89,0-6,0-5.27-.63-5.36,5.19,0,1.15.4,2.44-.71,3.39l-.24,0A1.37,1.37,0,0,0,217,239q0-15.28,0-30.57c.85-2.21.11-4.53.48-6.76h27.05c.09,1.52.22,3,.25,4.57.34,13.11-.32,26.25.9,39.35.19,2.12.81,3.81,2.73,4.88-2.57,2-5.69,2.75-8.64,3.85C237.35,255.18,235.45,256.45,234.52,258.9Z"/><path class="cls-5" d="M.07,175.92l158.08.05c0,3.26,0,6.52,0,9.77-2.62.09-5.25.34-7.86.21-2.39-.13-3.82.4-3.48,3.11-2.61.67-5.22,1.32-7.83,2-1.36.36-2.12.05-1.89-1.5.51-3.48-1.48-4-4.28-3.8a20.89,20.89,0,0,0-5.46.61l-.22.13c-1.09-1.12-2.49-.58-3.73-.58q-48.68,0-97.36,0c-8.66,0-17.32-.06-26-.1Z"/><path class="cls-6" d="M127.1,201.58l-127,0v-9.88l127.05,0,.24.64C127.27,195.42,127.19,198.5,127.1,201.58Z"/><path class="cls-1" d="M127.12,191.71l-127,0v-5.27l127.07,0,.22-.13Z"/><path class="cls-6" d="M360.47,201.52q0-.3-.09-.6c1.94-.87,3.83-1.88,5.84-2.55,1.65-.55,2.2-1.47,1.89-3.07,0-1.92,1.46-2.73,2.85-3.58h40.15v9.88Z"/><path class="cls-2" d="M127.14,186.51l-127.07,0v-.66c8.66,0,17.32.1,26,.1q48.68,0,97.36,0C124.65,185.93,126.05,185.39,127.14,186.51Z"/><path class="cls-3" d="M371,191.72c-1.39.85-2.82,1.66-2.85,3.58-1.55-1.05-2.4.49-3.42,1-9.69,5.12-18.31,3-24.25-6l-2.17-5a8.54,8.54,0,0,0,8.24-4.27c4.72-7.37,2.94-18.83-3.45-24.78-2.32-2.16-5-4.14-6.69-6.72-1.14-1.7-3.57-2.34-3.74-4.71.69-4.22,2.73-8,2.82-12.52.24-12.22-1.66-24.13-4.29-35.94a54.61,54.61,0,0,0-4.63-14c-1.22-4.41-4-8.19-5.11-12.64,1.9-.5,4.17,1.23,5.79-1,.25.89.62,1.69,1.71,1.68a46.25,46.25,0,0,1,10.24,1.24,55.25,55.25,0,0,1,19.13,8c1.6,1.07,3.37,1.83,4.82,3.28a56.78,56.78,0,0,1,13.06,20.17c2.26,6,3.76,12.2,5.53,18.34,1.51,5.26,1.61,10.77,3.57,15.88a6.67,6.67,0,0,1,.14,2.29c0,4.83,0,9.66,0,14.48-.05,7.71-1.9,14.91-4.66,22.18C378.49,182.36,374.52,186.81,371,191.72Z"/><path class="cls-6" d="M122.77,66.23c4.3-.94,8.12-2.06,10.54-5.79a2.68,2.68,0,0,0,.05-3.45c-3.73-5.9-6.42-12.22-6.13-19.36.48-11.77,5.65-20.81,16-26.8a31.35,31.35,0,0,1,39,5.75c7.69,8.3,9.92,18.27,7.39,29.25-2.94,12.73-16,24-29.13,23.51-5.62-.21-11.12-.26-16.13-3.14a5.12,5.12,0,0,0-5.25,0c-4.09,2-8.34,3.09-12.94,1.74A6.29,6.29,0,0,1,122.77,66.23ZM145,42.89c0,.87-.07,1.75,0,2.62.16,3.9,2.46,6.17,5.87,7.49,2.67,1,6.55-.12,8.6-2.56s4-4.9,6-7.36c1.79-2.07,3.63-4.09,5.35-6.22,3.21-4,2.81-9-.87-12-3.53-2.91-8.47-2.43-11.77,1.23-1.84,2-3.55,4.18-5.32,6.27a20.86,20.86,0,0,0-2.26,2.73C148.94,37.86,145.81,39.55,145,42.89Z"/><path class="cls-7" d="M248.37,250.43c-1.92-1.07-2.54-2.76-2.73-4.88-1.22-13.1-.56-26.24-.9-39.35,0-1.53-.16-3-.25-4.57a38.35,38.35,0,0,0-.74-9.91c.2-1.84.33-3.69.62-5.52,1-6.32,4.1-11.13,9.87-14.23,9.75-5.24,20.12-9,30.35-13.13,1.12-.44,2.21-.93,3.32-1.4,2.7-.33,5.4-.84,8.11-1,7.89-.37,15.74-.32,23,3.61-1.83.24-3.71-.37-5.49.56-12.58,6.54-25.87,11.59-38.25,18.57-8.86,5-11.68,12.44-10.75,21.39.46,4.51,1.25,9.1,1.55,13.61.87,12.93,1.36,25.88,2.88,38.76A111,111,0,0,1,248.37,250.43Z"/><path class="cls-2" d="M319,160.09c-7.22-3.93-15.07-4-23-3.61-2.71.12-5.41.63-8.11,1-.08-3-.12-5.89,2.26-8.25.79-.79.45-2.11.38-3.18-.46-7.22.8-14.38,1.6-21.47,1.17-10.29,3.67-20.46,9-29.66a17.77,17.77,0,0,1,2.46-3.82c1.8-1.86.52-2.15-1.19-2.12,4.3-2.14,4.53-2,4.68,2.62a2.68,2.68,0,0,0-.62,2.14q0,11.14.08,22.3c-.23,3.35-2,4.47-5.1,3.09a17,17,0,0,1-1.61-1.1,1.9,1.9,0,0,0-2.42,0,2.23,2.23,0,0,0-.73,2.66,19.36,19.36,0,0,0,1.39,2.37c-1.64.25-3.11-2.1-4.29.07s1.49,2.91,2.24,4.4c-1.12.5-2.8.31-2.44,2.13.3,1.53,1.58,1.56,2.84,1.59.52,0,1.64-.36,1.43.63-.72,3.31,1.36,2.48,3,2.09,3.45-.8,6.9-1.39,10.27.08a19.31,19.31,0,0,0,5.73,1.22c2.9,4.22,7.43,6.49,11.34,9.51a3.36,3.36,0,0,0,4.47.07c.17,2.37,2.6,3,3.74,4.71,1.73,2.58,4.37,4.56,6.69,6.72,6.39,5.95,8.17,17.41,3.45,24.78a8.54,8.54,0,0,1-8.24,4.27c-3.56-.24-5.62-2.61-7.36-5.32a35,35,0,0,1-4-10.63A12.79,12.79,0,0,0,319,160.09Z"/><path class="cls-8" d="M327.21,68.81c-1.62,2.19-3.89.46-5.79,1a10.35,10.35,0,0,1-1.72-4.09c4.74.15,6.36-2.71,4.69-7.87-.54-1.68-1.22-3.46-3.26-3.68s-2.78,1.45-3.32,3c-.8,2.37-1.76,1.41-2.55.11-1.29-2.13-2.42-4.36-3.63-6.55.05-1.32-.22-2.56-1.81-2.59a7.24,7.24,0,0,1-7.07-4.95c-1.39,1.38-2.56,2.67-3.86,3.81-2.79,2.45-2.8,2.61.36,4.9a1.11,1.11,0,0,0,.53.17l.11,0a13.86,13.86,0,0,0,1.5.61c1.25.35,2.45,1,2.12,2.42-.37,1.6-1.76,1.81-3.17,1.29s-2.61-1.1-3.92-1.66a8.45,8.45,0,0,0-1.18-1.52c-1-.79-1-3.21-2.94-2.23-2.28,1.14-6,.32-6.3,4.39-1.18,2.06-2.58,3.79-5.25,3.79a2.29,2.29,0,0,1-.32-2.89,2.68,2.68,0,0,0,2.43-2.53,2.61,2.61,0,0,0-2.92.34c-2.71.34-5.4,1-8.16.65-3.93-.56-6.26-4.56-4.14-7.78,2.57-3.91,4-8.27,5.84-12.47A25.88,25.88,0,0,1,305.34,20a19.34,19.34,0,0,1,10,7.37c.11-1.41.11-2.41.28-3.37.13-.76,1.08-1.29,1.27-.51.52,2.22,2.68,2,3.95,3-.38,1.35-1.83,1.27-2.6,2.3,7,1.41,9.22,6.84,10.43,12.76A53.29,53.29,0,0,1,327.21,68.81Z"/><path class="cls-8" d="M117,54.28l-2,.19c-2.6-2.69-5.91-2.62-9.2-2.15-4.27.61-8.46,1-12.56-1.34-.07,1.23-.13,2.21-.19,3.18-3.69-.62-1.19,2.24-1.86,3.33-.3,2.16-.52,4.33-.91,6.47-.23,1.21-.74,2.38-2.42,1.84-1-1.38-1.92-3.5-4-2.31s-1.56,3.69-1.14,5.68c.36,1.76,1.26,3.58,3.51,3,1.61-.44,1.88.34,2.27,1.43,1.23,3.4.2,6.61-.73,9.84-7.94,1.41-15,4.06-18.5,12.26-.18.44-.75.73-1.14,1.08l-.3-20.1.13-.8,0-2.06c.92-5.94,1-12,2.71-17.84,1.2-4,2.26-8.76,6.22-10.39,4.27-1.76,6.24-4.9,8.66-8.24,4.45-6.18,19.76-9.21,27.37-1.48,3.46,3.53,6,7.78,9.74,11.1,1.93,1.72,1.14,4.89-1.22,6.12a21.08,21.08,0,0,1-3.74,1.15Z"/><path class="cls-9" d="M280.75,59.18c2.67,0,4.07-1.73,5.25-3.79,3.52.64,7.08,1.72,10.42-.64,1.31.56,2.59,1.17,3.92,1.66s2.8.31,3.17-1.29c.33-1.44-.87-2.07-2.12-2.42a14.9,14.9,0,0,1-1.51-.61c1.67-1.65,3.52.41,5.34-.31a16.35,16.35,0,0,1,6.41-1.07c1.21,2.19,2.34,4.42,3.63,6.55.79,1.3,1.75,2.26,2.55-.11.54-1.57,1.28-3.24,3.32-3s2.72,2,3.26,3.68c1.67,5.16.05,8-4.69,7.87a10.35,10.35,0,0,0,1.72,4.09c1.11,4.45,3.89,8.23,5.11,12.64-1.36.38-1.3,1.69-1.57,2.66-1.5,5.35-4.36,9.64-9.29,12.39-3.17,1.77-5.64,1-7.19-2.29-.55-1.17-1-2.4-1.43-3.61-.15-4.63-.38-4.76-4.68-2.62-10.94,1.41-15-5.91-18.15-13.18A47.13,47.13,0,0,1,280.75,59.18Zm13,19.28c1.56-.43,4,.11,4.42-2.12.24-1.38-1.62-2.19-3.12-2.16-1.93,0-3.42,1-3.59,3.06C291.32,78.75,292.68,78.37,293.73,78.46ZM299,59c-.73.44-2.23-.06-2.29,1.24a2.06,2.06,0,0,0,2,2.16c1.16,0,1.53-1.06,1.62-2.1C300.46,59.41,300.18,58.78,299,59Zm-12.51,5.06c0-1-.52-1.42-1.44-1.19s-2.24.08-2.25,1.4a2,2,0,0,0,2.13,2C286.07,66.2,286.44,65.11,286.52,64.05Z"/><path class="cls-10" d="M67.88,73.78c0,.69,0,1.38,0,2.06-4.88,0-9.75-.09-14.62,0-2.11,0-4.32-.62-6.34.55-1.61,1.33-.71,3.08-.6,4.58,1.48,20.79,3.06,41.57,4.62,62.35.34,4.56.35,4.56,5.13,3.67a88,88,0,0,0,13.28-.6l1.18-.1c7.93-.24,15.86-.55,23.76-1.35l2-.06,12.64-.77,1.19.08,11.85-.67,1.31,0c4.2.57,8.32-.63,12.49-.67,1.42-.07,2.84-.24,4.26-.19,2.12.08,2.77-.67,2.55-2.89q-2.92-29.76-5.63-59.53c-.21-2.32-1.2-2.82-3.31-2.8-6.14,0-12.27-.09-18.41-.16.14-1.1-.1-2.38,1.31-2.92l17.75.24c4.19.07,5.26,1,5.63,5.1q2.53,27.65,5,55.3a5.79,5.79,0,0,0,.53,2.87c-.09,2.4.5,4.92-1.21,7-6,2-12.37,1.44-18.56,1.89-4.82.35-9.67,1.22-14.55.75a3.43,3.43,0,0,0-2.38.83c-9.47-.56-18.83,1.28-28.27,1.32-4.87.85-9.81.65-14.71,1.05s-10,.41-14.93,1l-1.35-.38-.58-.43q-.73-6.6-1.48-13.21c0-8.54-1.06-17-1.61-25.52-.71-11-1.62-22-2.38-33.06-.31-4.41,1-5.74,5.42-5.69C55.19,73.5,61.53,73.66,67.88,73.78Z"/><path class="cls-11" d="M158.16,185.74c0-3.25,0-6.51,0-9.77,17.91-8.65,35.88-17.19,53.71-26,8.23-4.07,16.82-7.4,24.67-12.22,1.1-.07,1.13.68,1.21,1.49.84,7.77.58,8.2-6.48,11.64-4.41,2.14-9,3.89-13.17,6.54l-.66.1-.7.66c-2.41.5-4.3,2.23-6.59,2.89-2.62.76-3.48,2.34-3.21,4.88.12,1.09.06,2.19.08,3.29l-.11.11h-9.12c-.33-.71.3-2.45-1.59-1.49-2.59,1.19-5.18,2.35-7.76,3.57Z"/><path class="cls-9" d="M116.5,74.35c-1.41.54-1.17,1.82-1.31,2.92-2,2.78-3.44,6-6.56,7.78-2.33.34-4.8-.63-7,.71a.84.84,0,0,0-.09.6,3.87,3.87,0,0,0-.05,4c.25,1.28.5,2.55.76,3.83-2.66,2-5.27,1.33-7.74-.27-.94-.6-1.73-1.29-2.92-1.09-1.42-3-1-6.71-3.9-9a1.43,1.43,0,0,1,0-.46c.93-3.23,2-6.44.73-9.84-.39-1.09-.66-1.87-2.27-1.43-2.25.62-3.15-1.2-3.51-3-.42-2-1-4.44,1.14-5.68s3,.93,4,2.31S90.44,67,91,65.89c.67-1.35,3.15-2.47,1.26-4.58,1.24-2.28.65-4.75.72-7.15L93.15,51c4.1,2.35,8.29,2,12.56,1.34,3.29-.47,6.6-.54,9.2,2.15l-.38,1c-1.22-.35-2.36-1.2-3.7-.71-.69.25-1.7,1.1-.79,1.5,1.41.61,3.32,1.37,4.55-.67a47.92,47.92,0,0,1,1.78,16.59C116.3,72.91,116,73.65,116.5,74.35Zm-12.1,4.88a6.72,6.72,0,0,0,4.93-3c1.2-1.61.81-2.74-1.14-3A32.79,32.79,0,0,1,100.63,71c-2.13-.85-2.88.2-2.95,2.07C97.56,76.18,100.65,79.25,104.4,79.23Zm-1-16.33c-.11-1.21-.3-2.68-1.7-2.77-1.68-.1-2,1.46-2,2.8s.32,2.9,2,2.79C103.07,65.63,103.35,64.18,103.42,62.9Zm-5.09-6c.91.78,1.76.36,2.65-.05a4.31,4.31,0,0,1,1.26-.18c.9-.1,2.05-.21.89-1.38-1-1-2.23-.48-3.32.08C99.18,55.64,98.39,55.9,98.33,56.85ZM114,61.59c-.1-.9-.22-2-1.3-2-1.28,0-1.43,1.16-1.47,2.15s.28,2,1.3,2C113.75,63.74,113.88,62.59,114,61.59Z"/><path class="cls-6" d="M217.43,157.51l.66-.1c0,10.05.13,20.09-.06,30.14-.06,3.18.6,4.41,4.1,4.27,7.19-.3,14.41-.09,21.62-.1a38.35,38.35,0,0,1,.74,9.91H217.44Z"/><path class="cls-2" d="M47.41,137.69q.75,6.6,1.48,13.21c-2.45-2-1.25-4.85-1.82-7.28a29.52,29.52,0,0,1-.24-5.89Z"/><path class="cls-11" d="M279.94,54.1a2.61,2.61,0,0,1,2.92-.34,2.68,2.68,0,0,1-2.43,2.53C280.27,55.56,280.1,54.83,279.94,54.1Z"/><path class="cls-9" d="M117,54.28l.66-.08C117.43,54.52,117.22,54.61,117,54.28Z"/><path class="cls-3" d="M197.11,233.25c-1.08-1.37-2.57-1.36-4.13-1.36q-22.93,0-45.87,0,0-15.16,0-30.32l49.85,0,.13,30.5Z"/><path class="cls-11" d="M147.12,201.57q0,15.17,0,30.32c0,13.53-.14,27.07-.08,40.6,0,2.33-.58,3.85-2.73,5-2.5,1.3-4.83,2.94-7.23,4.44q0-32.55,0-65.11c0-6.91-.11-13.82.06-20.72.07-2.94-1-3.95-3.84-3.72-2,.17-3.95,0-5.92,0l-.24-.64.24-5.33a20.89,20.89,0,0,1,5.46-.61c2.8-.18,4.79.32,4.28,3.8-.23,1.55.53,1.86,1.89,1.5,2.61-.69,5.22-1.34,7.83-2l.3,2.68Z"/><path class="cls-4" d="M127.36,192.35c2,0,4,.17,5.92,0,2.82-.23,3.91.78,3.84,3.72-.17,6.9-.06,13.81-.06,20.72q0,32.55,0,65.11c-2.86,1.21-5.76.65-8.63.08-1.94-.39-1.18-2.1-1.19-3.25,0-14.31,0-28.61,0-42.91,0-1.31-.07-2.62-.1-3.93q0-15.15,0-30.31C127.19,198.5,127.27,195.42,127.36,192.35Z"/><path class="cls-11" d="M217,208.38q0,15.28,0,30.57a1.54,1.54,0,0,0,.14,1.51l.24,0c-.1.88-.2,1.75-.31,2.62a1.17,1.17,0,0,0-.29.52c-3.26,2.09-6.27,4.59-9.88,6.11v-80.4l.11-.11,9.67-4.56c0,2.63.07,5.26.09,7.89Q216.88,190.47,217,208.38Z"/><path class="cls-4" d="M206.9,169.34v80.4c-2.62,1-5.34.43-8,.42-1.9,0-1.71-1.61-1.72-2.9,0-4.67,0-9.34-.06-14,0-.41,0-.81,0-1.22.89-1.29.5-2.77.51-4.16q.1-29.26.17-58.54Z"/><path class="cls-4" d="M216.78,243.63a1.17,1.17,0,0,1,.29-.52Z"/><path class="cls-12" d="M50.82,151.71c5-.56,10-.57,14.93-1s9.84-.2,14.71-1.05v1c-4.68.75-9.52.35-14.72,1.83,6.73,2,12.4,4.89,19.27,4.16,13.83-1.45,27.74-2.16,41.61-3.23,10.34-.8,20.67-1.68,31-2.52-6.46-1.85-12.72-4.28-19.53-3.78-9.78.73-19.55,1.65-29.36,1.71v-.49a3.43,3.43,0,0,1,2.38-.83c4.88.47,9.73-.4,14.55-.75,6.19-.45,12.52.09,18.56-1.89,6.19,1.69,12.61,2.2,18.89,3.41,8.88,1.7,17.89,2.74,26.6,5.3a4.43,4.43,0,0,1-3.25,1.25c-2.92.18-5.85.36-8.76.72a292.14,292.14,0,0,1-30.14,2.57c-4.46-.83-8.85.24-13.26.57-.78.05-.24.86-.21,1.33a12.29,12.29,0,0,0-2.24-.25c-7.07.52-14.13,1-21.19,1.64s-14.32,1.32-21.49,1.88A17.28,17.28,0,0,1,83,163C72,160,61.4,155.87,50.82,151.71Z"/><path class="cls-2" d="M50.82,151.71C61.4,155.87,72,160,83,163a17.28,17.28,0,0,0,6.2.28c7.17-.56,14.32-1.28,21.49-1.88s14.12-1.12,21.19-1.64a12.29,12.29,0,0,1,2.24.25c4.53.72,8.95-.2,13.38-1,.08,0,.06-.6.09-.92a292.14,292.14,0,0,0,30.14-2.57c2.91-.36,5.84-.54,8.76-.72a4.43,4.43,0,0,0,3.25-1.25c1.46,1.91.9,3-1.39,3.27-5.1.62-10.19,1.34-15.3,1.78-15.37,1.34-30.76,2.28-46.11,3.83-9.47,1-19,1.44-28.49,2.15-2.4.18-4.8.33-7.19.65-9,1.21-16.89-3-25.07-5.6-4.25-1.37-8.37-3.16-12.63-4.51a5.61,5.61,0,0,1-4.06-3.85Z"/><path class="cls-13" d="M319,160.09a12.79,12.79,0,0,1,7.89,9.28,35,35,0,0,0,4,10.63c1.74,2.71,3.8,5.08,7.36,5.32l2.17,5c-3.39,1.87-7.21,2.13-10.88,3-10.14,2.45-20.29,4.76-30.77,5-2.6,0-3.26,1-2.94,3.32.74,5.29,1.44,10.59,2.15,15.88l1.74,17,.1,2c.09,6.58.44,13.16.05,19.74a6.27,6.27,0,0,1-1.61,2.55,28.88,28.88,0,0,1-9.94,1.54c-5.48.06-10.85-.76-16.26-1.41l-2.56-1.88-.6-4.08c-1.52-12.88-2-25.83-2.88-38.76-.3-4.51-1.09-9.1-1.55-13.61-.93-9,1.89-16.4,10.75-21.39,12.38-7,25.67-12,38.25-18.57C315.27,159.72,317.15,160.33,319,160.09Z"/><path class="cls-5" d="M298,217.52c-.72-5.29-1.42-10.59-2.16-15.88-.32-2.31.34-3.28,2.94-3.32,10.48-.2,20.63-2.51,30.77-5,3.67-.89,7.49-1.15,10.88-3,5.94,9,14.56,11.1,24.25,6,1-.53,1.87-2.07,3.42-1,.31,1.6-.24,2.52-1.89,3.07-2,.67-3.9,1.68-5.84,2.55-1.24,3.13-.29,6.4-.56,9.59-.14,1.63-.12,3.27-.16,4.91-.85.18-1.71.35-2.55.55-3.37.81-3.9.48-3.89-2.92,0-2.39-.4-4.82.39-7.19a1.68,1.68,0,0,0-.21-1.86c-.74-.69-1.37,0-2,.29-1.36.67-2.76,1.26-4.14,1.88l-.64.16-16.48,5.79c-.84-1.54-2.41-2.51-3.09-4.21-1.66-4.15-1.64-3.88-6-2.49-5.86,1.88-11.6,4.82-18.12,2.91-1.52-.45-1.81.74-1.81,2,0,2.52,0,5,0,7.57Z"/><path class="cls-4" d="M272.08,258.94c5.41.65,10.78,1.47,16.26,1.41a28.88,28.88,0,0,0,9.94-1.54c.11,2.75,1.07,5.46.41,8.24-1.44.35-2.35,1.54-3.53,2.31-10.39,6.73-20.83,13.27-34.15,10.09-4.22-2.81-4.36-7.07-4.09-11.47v.13l.73-.77,1.3-2.5c.93-.58,2.17-.75,2.64-1.95,1.95.27,3.58-.72,5.31-1.34l1.28-.73-.08,0C269.55,260.48,271.14,260.38,272.08,258.94Z"/><path class="cls-11" d="M301.08,217.88c0-2.53,0-5,0-7.57,0-1.24.29-2.43,1.81-2,6.52,1.91,12.26-1,18.12-2.91,4.34-1.39,4.32-1.66,6,2.49.68,1.7,2.25,2.67,3.09,4.21l-10.55,4.21-.21.12.08.21a.73.73,0,0,1-.42.14c-1.49.29-3,.51-4.46.9-1.66.44-1.77,1.81-1.48,3.16.35,1.71,1.56.57,2.36.5a32.74,32.74,0,0,0,3.51-.64c.06,15.95.18,31.9.11,47.85,0,4.12-4,4.52-6.7,6.09q0-23.15,0-46.3c0-5.68,0-5.68-5.79-5.72.33-2.9-.88-4.42-3.87-4.43A8.89,8.89,0,0,1,301.08,217.88Z"/><path class="cls-3" d="M319.54,216.33l10.55-4.21,16.48-5.79.49.53.23,9.86L347,229.9c-8.26-1.32-16.59-2-24.93-2.55-2.08-.13-2.58-.9-2.56-2.78s.39-3.93-.3-5.85L319,216.8a.73.73,0,0,0,.42-.14A2.26,2.26,0,0,0,319.54,216.33Z"/><path class="cls-11" d="M261.58,262.89c-.47,1.2-1.71,1.37-2.64,1.95a7.15,7.15,0,0,0-1.87.39c-6.07,3-12.32,4.66-19.11,2.91-3.7-2.13-3.78-5.61-3.44-9.24.93-2.45,2.83-3.72,5.21-4.62,3-1.1,6.07-1.87,8.64-3.85A111,111,0,0,0,268.92,253l.6,4.08a.42.42,0,0,1-.09.53Z"/><path class="cls-4" d="M306.53,222.64c5.8,0,5.79,0,5.79,5.72q0,23.14,0,46.3c-6,.37-5.95.37-6-5.38l-.12-42C306.34,225.73,306.44,224.18,306.53,222.64Z"/><path class="cls-11" d="M347.29,216.72q-.12-4.92-.23-9.86l.15-.69c1.38-.62,2.78-1.21,4.14-1.88.68-.33,1.31-1,2-.29a1.68,1.68,0,0,1,.21,1.86c-.79,2.37-.39,4.8-.39,7.19,0,3.4.52,3.73,3.89,2.92.84-.2,1.7-.37,2.55-.55,0,10.42.25,20.84.09,31.25-.05,3.94-4,4.32-6.62,5.78,0-9.93.06-19.86,0-29.79C353.12,215.71,354,216.89,347.29,216.72Z"/><path class="cls-4" d="M347.29,216.72c6.71.17,5.83-1,5.86,5.94,0,9.93,0,19.86,0,29.79-1,.76-2.1.35-3.16.48-2.11.26-2.86-.56-2.84-2.75.08-6.75-.05-13.52-.1-20.28Q347.15,223.32,347.29,216.72Z"/><path class="cls-3" d="M306.53,222.64c-.09,1.54-.19,3.09-.28,4.63-2.68.07-4.32,1.19-4,4.13-1.83.11-.6-1.7-1.59-2-.8,1.65.55,3.69-.94,5.2l-1.74-17,3.08.36a8.89,8.89,0,0,0,1.58.33C305.65,218.22,306.86,219.74,306.53,222.64Z"/><path class="cls-10" d="M261,279.45c13.32,3.18,23.76-3.36,34.15-10.09,1.18-.77,2.09-2,3.53-2.31a4.2,4.2,0,0,1-1.66,2.74,57.51,57.51,0,0,1-23,12.15A14.75,14.75,0,0,1,261,279.45Z"/><path class="cls-8" d="M238,268.14c6.79,1.75,13,.09,19.11-2.91a7.15,7.15,0,0,1,1.87-.39c-.43.83-.87,1.66-1.3,2.5-.36.15-1,0-.73.77V268c-2.79.82-5.53,1.81-8.36,2.44C244.74,271.26,241,271.13,238,268.14Z"/><path class="cls-3" d="M299.89,256.26c.39-6.58,0-13.16-.05-19.74,1.15.19,1.26,1,1.26,2,0,5.26,0,10.52,0,15.78C301.1,255.19,301,256.05,299.89,256.26Z"/><path class="cls-5" d="M319,216.8l.24,1.92c-.1.67-.2,1.33-.31,2a32.74,32.74,0,0,1-3.51.64c-.8.07-2,1.21-2.36-.5-.29-1.35-.18-2.72,1.48-3.16C316,217.31,317.5,217.09,319,216.8Z"/><path class="cls-4" d="M217,208.38q-.09-17.91-.19-35.82c0-2.63-.06-5.26-.09-7.89q0-3.24,0-6.5l.7-.66q0,22.05,0,44.11C217.07,203.85,217.81,206.17,217,208.38Z"/><path class="cls-4" d="M217.14,240.46A1.54,1.54,0,0,1,217,239,1.37,1.37,0,0,1,217.14,240.46Z"/><path class="cls-1" d="M147.12,191.74l-.3-2.68c-.34-2.71,1.09-3.24,3.48-3.11,2.61.13,5.24-.12,7.86-.21l30.27-14.33c2.58-1.22,5.17-2.38,7.76-3.57.93.7.81,1.72.8,2.69q0,10.59-.05,21.2Z"/><path class="cls-14" d="M307.05,91.56c.47,1.21.88,2.44,1.43,3.61,1.55,3.3,4,4.06,7.19,2.29,4.93-2.75,7.79-7,9.29-12.39.27-1,.21-2.28,1.57-2.66a54.61,54.61,0,0,1,4.63,14c2.63,11.81,4.53,23.72,4.29,35.94-.09,4.49-2.13,8.3-2.82,12.52a3.36,3.36,0,0,1-4.47-.07c-3.91-3-8.44-5.29-11.34-9.51a22.14,22.14,0,0,1,1-5.72c.47-1.55,2.13-3.29,1.07-4.82-3-4.37-6.27-8.67-12.41-8.72q0-11.16-.08-22.3A2.68,2.68,0,0,1,307.05,91.56Z"/><path class="cls-5" d="M152.81,32.35c1.77-2.09,3.48-4.23,5.32-6.27,3.3-3.66,8.24-4.14,11.77-1.23,3.68,3,4.08,8,.87,12-1.72,2.13-3.56,4.15-5.35,6.22l-1.8-.93C160.37,38.49,156,36.11,152.81,32.35Z"/><path class="cls-3" d="M152.81,32.35c3.16,3.76,7.56,6.14,10.81,9.8-2,1.07-3.25,2.92-4.85,4.41a7.55,7.55,0,0,1-12.3-2.17c-.35-.71-.5-1.46-1.47-1.5.81-3.34,3.94-5,5.55-7.81A20.86,20.86,0,0,1,152.81,32.35Z"/><path class="cls-2" d="M145,42.89c1,0,1.12.79,1.47,1.5a7.55,7.55,0,0,0,12.3,2.17c1.6-1.49,2.87-3.34,4.85-4.41l1.8.93c-2,2.46-3.94,4.94-6,7.36s-5.93,3.6-8.6,2.56c-3.41-1.32-5.71-3.59-5.87-7.49C144.93,44.64,145,43.76,145,42.89Z"/><path class="cls-9" d="M306.51,116c6.14,0,9.39,4.35,12.41,8.72,1.06,1.53-.6,3.27-1.07,4.82a22.14,22.14,0,0,0-1,5.72,19.31,19.31,0,0,1-5.73-1.22c-3.37-1.47-6.82-.88-10.27-.08-1.64.39-3.72,1.22-3-2.09.21-1-.91-.62-1.43-.63-1.26,0-2.54-.06-2.84-1.59-.36-1.82,1.32-1.63,2.44-2.13-.75-1.49-3.5-2.09-2.24-4.4s2.65.18,4.29-.07a19.36,19.36,0,0,1-1.39-2.37,2.23,2.23,0,0,1,.73-2.66,1.9,1.9,0,0,1,2.42,0,17,17,0,0,0,1.61,1.1C304.47,120.47,306.28,119.35,306.51,116Z"/><path class="cls-11" d="M311.63,50.71a16.35,16.35,0,0,0-6.41,1.07c-1.82.72-3.67-1.34-5.34.31l-.1,0-.53-.17c-3.16-2.29-3.15-2.45-.36-4.9,1.3-1.14,2.47-2.43,3.86-3.81a7.24,7.24,0,0,0,7.07,4.95C311.41,48.15,311.68,49.39,311.63,50.71Z"/><path class="cls-11" d="M296.42,54.75c-3.34,2.36-6.9,1.28-10.42.64.26-4.07,4-3.25,6.3-4.39,2-1,2,1.44,2.94,2.23A8.45,8.45,0,0,1,296.42,54.75Z"/><path class="cls-9" d="M299.25,51.88l.53.17A1.11,1.11,0,0,1,299.25,51.88Z"/><path class="cls-12" d="M94.27,145c-7.9.8-15.83,1.11-23.76,1.35.7-2.48,1.5-4.94,2.08-7.45,1-4.38,3.58-8.39,3.24-13.1,2-4,1-8.26.69-12.5L71,123.92A12.2,12.2,0,0,0,68.1,134.5a57.47,57.47,0,0,1,1.23,11.91,88,88,0,0,1-13.28.6c0-2,.19-3.95,0-5.91-.89-10.55,1.87-20.34,6-29.89,2.06-4.8,4-9.64,6-14.47.39-.35,1-.64,1.14-1.08,3.45-8.2,10.56-10.85,18.5-12.26a1.43,1.43,0,0,0,0,.46c0,.88,0,1.75,0,2.62,0,15.36-1,30.78,3.9,45.75A45.87,45.87,0,0,1,94.27,145Z"/><path class="cls-15" d="M68,96.74c-2,4.83-3.93,9.67-6,14.47-4.09,9.55-6.85,19.34-6,29.89.16,2,0,3.94,0,5.91-4.78.89-4.79.89-5.13-3.67C49.36,122.56,47.78,101.78,46.3,81c-.11-1.5-1-3.25.6-4.58l20.83.23Z"/><path class="cls-4" d="M92.24,61.31c1.89,2.11-.59,3.23-1.26,4.58-.54,1.07-2.15,1.17-3.21-.09,1.68.54,2.19-.63,2.42-1.84.39-2.14.61-4.31.91-6.47C92.25,58.53,91,60.29,92.24,61.31Z"/><path class="cls-13" d="M67.73,76.64,46.9,76.41c2-1.17,4.23-.5,6.34-.55,4.87-.11,9.74,0,14.62,0C67.81,76.11,67.77,76.38,67.73,76.64Z"/><path class="cls-11" d="M92.24,61.31c-1.23-1,0-2.78-1.14-3.82.67-1.09-1.83-4,1.86-3.33C92.89,56.56,93.48,59,92.24,61.31Z"/><path class="cls-3" d="M293.73,78.46c-1.05-.09-2.41.29-2.29-1.22.17-2,1.66-3,3.59-3.06,1.5,0,3.36.78,3.12,2.16C297.77,78.57,295.29,78,293.73,78.46Z"/><path class="cls-8" d="M299,59c1.15-.21,1.43.42,1.36,1.3-.09,1-.46,2.1-1.62,2.1a2.06,2.06,0,0,1-2-2.16C296.8,58.93,298.3,59.43,299,59Z"/><path class="cls-8" d="M286.52,64.06c-.08,1-.45,2.14-1.56,2.2a2,2,0,0,1-2.13-2c0-1.32,1.36-1.18,2.25-1.4S286.56,63,286.52,64.06Z"/><path class="cls-12" d="M101.6,85.77c2.23-1.35,4.7-.38,7-.72.54,1,1.48,1.13,2.47,1.39a9.49,9.49,0,0,1,5.05,3.37c6,7.31,9.57,15.89,13.88,24.13,4.81,9.17,5.61,18.91,5.7,28.9-4.17,0-8.29,1.24-12.49.67,0-4.47,0-8.95.06-13.42,0-2.1-.68-3.71-2.81-5.58.51,6.8,1,12.92,1.44,19l-11.85.67c2.11-2.42,1.71-5.48,1.9-8.3.27-3.92-.27-7.92.24-11.79.71-5.4.7-10.54-1.26-15.74C108.08,100.74,105,93.19,101.6,85.77Z"/><path class="cls-15" d="M135.73,142.84c-.09-10-.89-19.73-5.7-28.9-4.31-8.24-7.92-16.82-13.88-24.13a9.49,9.49,0,0,0-5.05-3.37c-1-.26-1.93-.42-2.47-1.39,3.12-1.81,4.59-5,6.56-7.78,6.14.07,12.27.21,18.41.16,2.11,0,3.1.48,3.31,2.8q2.7,29.77,5.63,59.53c.22,2.22-.43,3-2.55,2.89C138.57,142.6,137.15,142.77,135.73,142.84Z"/><path class="cls-16" d="M91.56,92.86c1.19-.2,2,.49,2.92,1.09,2.47,1.6,5.08,2.31,7.74.27,4.5,16.33,6.16,33,6.67,49.91l-12.64.77C95.91,127.44,95.14,110,91.56,92.86Z"/><path class="cls-1" d="M91.56,92.86c3.58,17.16,4.35,34.58,4.69,52l-2,.06a45.87,45.87,0,0,0-2.68-12.73c-4.93-15-3.87-30.39-3.9-45.75,0-.87,0-1.74,0-2.62C90.61,86.15,90.14,89.91,91.56,92.86Z"/><path class="cls-1" d="M108.89,144.13c-.51-16.87-2.17-33.58-6.67-49.91-.26-1.28-.51-2.55-.76-3.83,0-1.35,0-2.69.05-4a.84.84,0,0,1,.09-.6c3.4,7.43,6.48,15,9.36,22.62,2,5.2,2,10.34,1.26,15.74-.51,3.87,0,7.87-.24,11.79-.19,2.82.21,5.88-1.9,8.3Z"/><path class="cls-15" d="M69.33,146.41A57.47,57.47,0,0,0,68.1,134.5,12.2,12.2,0,0,1,71,123.92c1.36,1.28,3.31,1,4.85,1.84.34,4.71-2.22,8.72-3.24,13.1-.58,2.51-1.38,5-2.08,7.45Z"/><path class="cls-15" d="M121.93,143.54c-.46-6.11-.93-12.23-1.44-19,2.13,1.87,2.85,3.48,2.81,5.58-.09,4.47,0,8.95-.06,13.42Z"/><path class="cls-1" d="M108.73,148.37v.49c-9.4,1.08-18.84,1.35-28.27,1.83v-1C89.9,149.65,99.26,147.81,108.73,148.37Z"/><path class="cls-5" d="M216.73,158.17q0,3.26,0,6.5L207,169.23c0-1.1,0-2.2-.08-3.29-.27-2.54.59-4.12,3.21-4.88C212.43,160.4,214.32,158.67,216.73,158.17Z"/><path class="cls-2" d="M196.94,191.73q0-10.6.05-21.2c0-1,.13-2-.8-2.69,1.89-1,1.26.78,1.59,1.49q-.08,29.26-.17,58.54c0,1.39.38,2.87-.51,4.16q-.06-15.24-.13-30.49Z"/><path class="cls-3" d="M104.4,79.23c-3.75,0-6.84-3-6.72-6.14.07-1.87.82-2.92,2.95-2.07a32.79,32.79,0,0,0,7.56,2.19c2,.28,2.34,1.41,1.14,3A6.72,6.72,0,0,1,104.4,79.23Z"/><path class="cls-8" d="M103.42,62.9c-.07,1.28-.35,2.73-1.71,2.82-1.68.11-2-1.46-2-2.79s.33-2.9,2-2.8C103.12,60.22,103.31,61.69,103.42,62.9Z"/><path class="cls-8" d="M98.33,56.85c.06-1,.85-1.21,1.48-1.53,1.09-.56,2.36-1.06,3.32-.08,1.16,1.17,0,1.28-.89,1.38a4.31,4.31,0,0,0-1.26.18C100.09,57.21,99.24,57.63,98.33,56.85Z"/><path class="cls-8" d="M114,61.59c-.08,1-.21,2.15-1.47,2.13-1,0-1.33-1-1.3-2s.19-2.17,1.47-2.15C113.74,59.61,113.86,60.69,114,61.59Z"/><path class="cls-5" d="M114.59,55.58c-1.23,2-3.14,1.28-4.55.67-.91-.4.1-1.25.79-1.5,1.34-.49,2.48.36,3.7.71Z"/><path class="cls-12" d="M101.51,86.36c0,1.34,0,2.68-.05,4A3.87,3.87,0,0,1,101.51,86.36Z"/><path class="cls-6" d="M196.94,191.73l0,9.81-49.85,0v-9.83Z"/><path class="cls-10" d="M80.46,150.69c9.43-.48,18.87-.75,28.27-1.83,9.81-.06,19.58-1,29.36-1.71,6.81-.5,13.07,1.93,19.53,3.78-10.33.84-20.66,1.72-31,2.52-13.87,1.07-27.78,1.78-41.61,3.23-6.87.73-12.54-2.19-19.27-4.16C70.94,151,75.78,151.44,80.46,150.69Z"/><path class="cls-10" d="M147.56,158.15c0,.32,0,.91-.09.92-4.43.78-8.85,1.7-13.38,1,0-.47-.57-1.28.21-1.33C138.71,158.39,143.1,157.32,147.56,158.15Z"/><path class="cls-2" d="M269.43,257.59a.42.42,0,0,0,.09-.53l2.56,1.88c-.94,1.44-2.53,1.54-4,1.91C268,259.55,269.83,259,269.43,257.59Z"/><path class="cls-2" d="M347.21,206.17l-.15.69c-.17-.17-.33-.35-.49-.53Z"/><path class="cls-8" d="M269.43,257.59c.4,1.43-1.4,2-1.34,3.26l.08,0c-.74-.3-1,.25-1.28.73-1.73.62-3.36,1.61-5.31,1.34Z"/><path class="cls-2" d="M266.89,261.55c.29-.48.54-1,1.28-.73Z"/><path class="cls-2" d="M256.91,268.11c-.26-.73.37-.62.73-.77Z"/><path class="cls-2" d="M319.54,216.33a2.26,2.26,0,0,1-.13.33l-.08-.21Z"/><path class="cls-8" d="M75.83,125.76c-1.54-.81-3.49-.56-4.85-1.84l5.54-10.66C76.8,117.5,77.79,121.73,75.83,125.76Z"/></g></g></svg>