<svg xmlns="http://www.w3.org/2000/svg" viewBox="0 0 1000 76.57"><defs><style>.cls-1{fill:#f2f2f2;}.cls-2{font-size:19.7px;}.cls-10,.cls-11,.cls-13,.cls-14,.cls-15,.cls-16,.cls-2{fill:#353535;}.cls-10,.cls-11,.cls-13,.cls-2{font-family:ProductSans-Bold, Product Sans;font-weight:700;}.cls-3{letter-spacing:-0.01em;}.cls-4{letter-spacing:-0.01em;}.cls-5{letter-spacing:0em;}.cls-6{letter-spacing:-0.04em;}.cls-7{letter-spacing:-0.08em;}.cls-8{letter-spacing:0em;}.cls-10,.cls-11,.cls-13,.cls-14,.cls-15,.cls-9{isolation:isolate;}.cls-10,.cls-11,.cls-13{font-size:4.35px;}.cls-10{letter-spacing:-0.02em;}.cls-12{letter-spacing:0em;}.cls-13{letter-spacing:-0.01em;}.cls-14,.cls-15{font-size:2.08px;font-family:ProductSans-Regular, Product Sans;}.cls-15{letter-spacing:-0.01em;}.cls-17{fill:#0f9d58;}.cls-18{fill:#727272;}.cls-19{fill:#1e55af;}</style></defs><g id="Layer_2" data-name="Layer 2"><g id="Layer_1-2" data-name="Layer 1"><rect class="cls-1" width="1000" height="76.05"/><text class="cls-2" transform="translate(79.62 50.44)">Pri<tspan class="cls-3" x="24.79" y="0">v</tspan><tspan class="cls-4" x="35.57" y="0">a</tspan><tspan class="cls-5" x="46.01" y="0">cy &amp;</tspan><tspan class="cls-6" x="84.73" y="0"> </tspan><tspan class="cls-7" x="88.28" y="0">T</tspan><tspan class="cls-5" x="98.19" y="0">er</tspan><tspan class="cls-8" x="117.16" y="0">m</tspan><tspan x="134.4" y="0">s</tspan></text><g id="Layer_2-2" data-name="Layer 2"><g id="Layer_2-2-2" data-name="Layer 2-2"><g class="cls-9"><text class="cls-10" transform="translate(969.94 74.23)">D</text><text class="cls-11" transform="translate(973.01 74.23)">o</text><text class="cls-11" transform="translate(975.51 74.23)"><tspan class="cls-12">c</tspan><tspan x="2.35" y="0">t</tspan></text><text class="cls-13" transform="translate(979.58 74.23)">o</text><text class="cls-11" transform="translate(982.04 74.23)">r</text></g><g class="cls-9"><text class="cls-14" transform="translate(990.09 73.71)">M</text><text class="cls-14" transform="translate(991.81 73.71)">e</text><text class="cls-15" transform="translate(992.94 73.71)">e</text><text class="cls-14" transform="translate(994.02 73.71)">tup</text></g><path class="cls-16" d="M987.62,71.08h0v0l0,0Z"/><path class="cls-17" d="M989.06,71h-1.19v0h-.27l0,0h-1.26v0H986v0h-1.16a.4.4,0,0,0-.4.4h0v2.75a.4.4,0,0,0,.4.4h4.22a.4.4,0,0,0,.4-.4h0V71.44A.4.4,0,0,0,989.06,71Zm-2.11,3a1.25,1.25,0,1,1,1.25-1.25A1.25,1.25,0,0,1,987,74.06Z"/><path class="cls-17" d="M987.85,72.6V73a0,0,0,0,1-.05.05h-.62v.62a0,0,0,0,1,0,0h-.38a0,0,0,0,1,0,0h0V73h-.62A0,0,0,0,1,986,73V72.6a.05.05,0,0,1,.05,0h.62v-.61a0,0,0,0,1,0,0h.38a0,0,0,0,1,0,0h0v.62h.62A0,0,0,0,1,987.85,72.6Z"/><rect class="cls-17" x="986" y="71.04" width="0.31" height="0.04"/><path class="cls-17" d="M987.87,71v0h-.27l0,0h.3Z"/><path class="cls-18" d="M987.32,74.74c0,.06-.07.16-.12.28a2.8,2.8,0,0,0-.21.84.6.6,0,0,0,.09.5.42.42,0,0,0,.21.13h.3v-.1h-.16l-.15,0a.35.35,0,0,1-.16-.18.88.88,0,0,1,0-.36,4.11,4.11,0,0,1,.23-.85,1,1,0,0,1,.09-.22Z"/><path class="cls-19" d="M987.8,76.54a.17.17,0,0,0,.06-.11.15.15,0,0,0-.07-.12.2.2,0,0,0-.17,0l-.11.05,0,0v.1h.07l.08,0C987.71,76.55,987.76,76.56,987.8,76.54Z"/><path class="cls-18" d="M988.63,74.82c0,.07,0,.17.08.3a2.86,2.86,0,0,1,.12.85c0,.21,0,.38-.15.49a.43.43,0,0,1-.23.1l-.29,0v-.1l.16,0h.15a.3.3,0,0,0,.17-.16.63.63,0,0,0,.06-.36,3.64,3.64,0,0,0-.11-.87c0-.1-.05-.18-.06-.23Z"/><path class="cls-19" d="M987.94,76.55a.12.12,0,0,1,0-.11.12.12,0,0,1,.07-.11.2.2,0,0,1,.17,0l.1.07,0,0a.34.34,0,0,1,0,.1h-.15C988,76.57,988,76.58,987.94,76.55Z"/><path class="cls-19" d="M988.7,74.88h-.16a3.69,3.69,0,0,0-.11-.45c-.07-.2-.1-.24-.13-.27a.46.46,0,0,0-.49,0,.55.55,0,0,0-.26.37l-.11.32h0l-.09,0h0a2.51,2.51,0,0,1,.1-.26,1.67,1.67,0,0,1,.23-.44c.12-.12.17-.08.27-.18s.15-.17.17-.77a3.63,3.63,0,0,0,0-.82,1.74,1.74,0,0,0-.19-.73,1.31,1.31,0,0,0-1-.61,1.22,1.22,0,0,0-.46.06h0v-.19h0a1.68,1.68,0,0,1,1.18.19l.05,0h0l0,0a1.24,1.24,0,0,1,.43.5,1.42,1.42,0,0,1,.12.43,3,3,0,0,1,0,.6c0,.28,0,.49,0,.88a.79.79,0,0,0,.12.44c.05.07.08.07.15.16a1,1,0,0,1,.17.37A1.35,1.35,0,0,1,988.7,74.88Z"/><path class="cls-16" d="M987.87,70.67V71h-.3v-.29h-1.25V71H986v-.37a.14.14,0,0,1,.14-.15h1.57a.14.14,0,0,1,.15.14Z"/><path class="cls-16" d="M985.42,70.89h.15a.13.13,0,0,1,.13.13h0v.2h-.41V71A.13.13,0,0,1,985.42,70.89Z"/><path class="cls-16" d="M988.3,70.89h.15a.13.13,0,0,1,.13.13v.2h-.41V71A.13.13,0,0,1,988.3,70.89Z"/></g></g></g></g></svg>