<svg xmlns="http://www.w3.org/2000/svg" viewBox="0 0 313.68 57.43"><defs><style>.cls-1{font-size:37.03px;font-family:ProductSans-Regular, Product Sans;}.cls-1,.cls-7{fill:#353535;}.cls-2{letter-spacing:-0.01em;}.cls-3{letter-spacing:0em;}.cls-4{letter-spacing:0em;}.cls-5{letter-spacing:-0.04em;}.cls-6{letter-spacing:-0.08em;}.cls-8{fill:#0f9d58;}.cls-9{fill:#727272;}.cls-10{fill:#1e55af;}</style></defs><g id="Layer_2" data-name="Layer 2"><g id="Layer_1-2" data-name="Layer 1"><text class="cls-1" transform="translate(60.46 35.79)">Pri<tspan class="cls-2" x="42.47" y="0">v</tspan><tspan class="cls-3" x="60.54" y="0">a</tspan><tspan class="cls-4" x="79.24" y="0">cy &amp;</tspan><tspan class="cls-5" x="148.03" y="0"> </tspan><tspan class="cls-6" x="154.69" y="0">T</tspan><tspan x="171.73" y="0">er</tspan><tspan class="cls-3" x="205.01" y="0">m</tspan><tspan x="236.37" y="0">s</tspan></text><g id="Layer_2-2" data-name="Layer 2"><g id="Layer_2-2-2" data-name="Layer 2-2"><path class="cls-7" d="M30.15,5.33H29.7V5l.25.17A1.32,1.32,0,0,1,30.15,5.33Z"/><path class="cls-8" d="M43.8,5H32.6v.34H30.15L30,5.19,29.71,5V5H17.78v.34h-3V5h-11A3.8,3.8,0,0,0,0,8.79V34.85a3.81,3.81,0,0,0,3.8,3.81h40a3.8,3.8,0,0,0,3.8-3.8V8.79A3.8,3.8,0,0,0,43.8,5Zm-20,28.59A11.84,11.84,0,1,1,35.64,21.74,11.84,11.84,0,0,1,23.8,33.58Z"/><path class="cls-8" d="M32.34,19.8v3.68a.48.48,0,0,1-.46.46H26V29.8a.46.46,0,0,1-.45.46H21.88a.47.47,0,0,1-.46-.46V23.94H15.56a.46.46,0,0,1-.45-.46h0V19.8a.46.46,0,0,1,.45-.46h5.86V13.48a.46.46,0,0,1,.46-.45h3.68a.46.46,0,0,1,.46.45h0v5.85h5.86a.46.46,0,0,1,.46.47Z"/><rect class="cls-8" x="14.83" y="4.99" width="2.95" height="0.36"/><path class="cls-8" d="M32.6,5v.34H30.15L30,5.19,29.71,5V5Z"/><path class="cls-9" d="M27.36,40c-.28.62-.66,1.56-1.12,2.71a26,26,0,0,0-2.07,7.89c-.14,2-.23,3.56.86,4.78a4.09,4.09,0,0,0,2.06,1.21h2.77v-.93c-.51,0-1,0-1.52,0a4.57,4.57,0,0,1-1.43-.18,2.92,2.92,0,0,1-1.43-1.74,6.43,6.43,0,0,1-.2-3.34A37.43,37.43,0,0,1,27.4,42.3c.34-.87.67-1.58.84-2Z"/><path class="cls-10" d="M31.88,57.15a1.41,1.41,0,0,0,.54-1A1.36,1.36,0,0,0,31.84,55a1.84,1.84,0,0,0-1.62.07c-.74.36-.85.42-1,.5a2.74,2.74,0,0,1-.51.15v.92l.67.12c.18.06.45.15.79.24C31.06,57.23,31.55,57.37,31.88,57.15Z"/><path class="cls-9" d="M39.77,40.82c.2.67.49,1.63.78,2.83a25.63,25.63,0,0,1,1.09,8.09c-.1,2-.21,3.55-1.43,4.63a4.16,4.16,0,0,1-2.21,1L35.25,57l.11-.92c.35.06.88.13,1.52.18a4.29,4.29,0,0,0,1.43,0A2.88,2.88,0,0,0,40,54.66a6.19,6.19,0,0,0,.61-3.33A36.71,36.71,0,0,0,39.45,43c-.22-.9-.43-1.64-.57-2.12Z"/><path class="cls-10" d="M33.2,57.27a1.32,1.32,0,0,1-.4-1.11,1.31,1.31,0,0,1,.7-1,1.83,1.83,0,0,1,1.6.28,10.85,10.85,0,0,0,1,.61,3.48,3.48,0,0,0,.48.21l-.1.92-.66,0-.82.14C34,57.44,33.5,57.52,33.2,57.27Z"/><path class="cls-10" d="M40.4,41.33l-.5.06-.9.1h-.08a30.3,30.3,0,0,0-1.07-4.27c-.67-1.9-1-2.31-1.25-2.56a4.3,4.3,0,0,0-4.66-.47,4.75,4.75,0,0,0-2.38,3.51l-1.13,3-.29,0-.9-.17h0l-.41-.07c.22-.62.53-1.47,1-2.49,1.34-3.21,2-3.92,2.2-4.16,1.11-1.14,1.66-.8,2.62-1.67.66-.61,1.33-1.65,1.6-7.33a38.08,38.08,0,0,0-.12-7.84c-.46-3.34-.66-5-1.78-6.83a12.58,12.58,0,0,0-9.9-5.76A12.36,12.36,0,0,0,18,4.9L17.8,5V3.15l.2,0A15.29,15.29,0,0,1,29.2,4.9l.5.31.25.16.19.14a12.16,12.16,0,0,1,4.14,4.72,15.46,15.46,0,0,1,1.07,4.16,35.05,35.05,0,0,1,.35,5.7c0,2.63-.38,4.62-.24,8.26a7.18,7.18,0,0,0,1.12,4.17c.5.67.76.67,1.44,1.59a10.8,10.8,0,0,1,1.66,3.45A15.06,15.06,0,0,1,40.4,41.33Z"/><path class="cls-7" d="M32.6,1.41V5H29.71V2.14H17.82V5h-3V1.41A1.41,1.41,0,0,1,16.24,0H31.18A1.42,1.42,0,0,1,32.6,1.41Z"/><path class="cls-7" d="M9.28,3.56h1.49A1.22,1.22,0,0,1,12,4.77h0V6.67H8.06V4.78A1.22,1.22,0,0,1,9.28,3.56Z"/><path class="cls-7" d="M36.6,3.56h1.49a1.23,1.23,0,0,1,1.24,1.2V6.67H35.38V4.78A1.22,1.22,0,0,1,36.6,3.56Z"/></g></g></g></g></svg>