<svg xmlns="http://www.w3.org/2000/svg" viewBox="0 0 129.14 115.97"><defs><style>.cls-1{fill:#e6e6e6;}</style></defs><g id="Layer_2" data-name="Layer 2"><g id="Layer_3" data-name="Layer 3"><path class="cls-1" d="M129.14,116,0,115.61A34.65,34.65,0,0,1,2.25,104.8a41,41,0,0,1,6.89-11c4.86-5.49,24-21.37,53.35-22,9.6-.2,36.65-.77,54.3,19.36A56.27,56.27,0,0,1,129.14,116Z"/><path class="cls-1" d="M32.67,32.32C33.55,16.23,46.56.22,64.15,0,82.22-.21,96,16.33,96.47,33.15,97,51,82.72,68.84,64,68.56S31.71,50,32.67,32.32Z"/></g></g></svg>