<svg xmlns="http://www.w3.org/2000/svg" viewBox="0 0 126.92 189.29"><defs><style>.cls-1{fill:#353535;}.cls-2{fill:#ccc;}.cls-10,.cls-13,.cls-14,.cls-15,.cls-16,.cls-17,.cls-3,.cls-4,.cls-5,.cls-8{fill:none;}.cls-3,.cls-4,.cls-5,.cls-7,.cls-8{stroke:#353535;}.cls-10,.cls-13,.cls-14,.cls-15,.cls-16,.cls-3,.cls-4,.cls-7,.cls-8{stroke-linecap:round;}.cls-15,.cls-16,.cls-3,.cls-4,.cls-7,.cls-8{stroke-linejoin:round;}.cls-10,.cls-3{stroke-width:0.25px;}.cls-4{stroke-width:0.25px;}.cls-10,.cls-13,.cls-14,.cls-5{stroke-miterlimit:10;}.cls-5{stroke-width:0.5px;}.cls-6{fill:#c07055;}.cls-12,.cls-7{fill:#4285f4;}.cls-13,.cls-15,.cls-7{stroke-width:0.15px;}.cls-8{stroke-width:0.15px;}.cls-9{fill:#f4b400;}.cls-10{stroke:#000;}.cls-11{fill:#db4437;}.cls-13,.cls-14,.cls-15,.cls-16{stroke:#ccc;}.cls-14{stroke-width:0.14px;}.cls-16{stroke-width:0.15px;}</style></defs><g id="Layer_2" data-name="Layer 2"><g id="Layer_3" data-name="Layer 3"><path class="cls-1" d="M59.79,19.57v-.38c1.33-.09,1.4-.16,1.4-1.19V12.76c0-.7-.08-.73-.61-.78L60,11.91v-.34a9.16,9.16,0,0,0,2.2-.67V18c0,1,.07,1.1,1.41,1.19v.38Z"/><path class="cls-1" d="M65.61,19.57v-.38C66.94,19.1,67,19,67,18V12.76c0-.7-.08-.73-.61-.78l-.59-.07v-.34A9.16,9.16,0,0,0,68,10.9V18c0,1,.07,1.1,1.41,1.19v.38Z"/><path class="cls-1" d="M77.58,14.2v-.38c1.33-.1,1.4-.17,1.4-1.19V7.39c0-.7-.08-.73-.61-.78l-.58-.07V6.2A8.94,8.94,0,0,0,80,5.53v7.1c0,1,.07,1.09,1.42,1.19v.38Z"/><path class="cls-1" d="M87.71,12.38c-.16.62-.36,1.31-.48,1.82H82.71v-.33c.66-.74,1.38-1.54,2-2.32a5.8,5.8,0,0,0,1.48-3.29c0-1.13-.53-1.79-1.4-1.79s-1.35.74-1.66,1.27l-.28-.29.69-1.1a2.06,2.06,0,0,1,1.64-.82,2.11,2.11,0,0,1,2,2.36,4.68,4.68,0,0,1-1.51,3.31c-.52.61-1.27,1.44-1.79,2h2.29c.65,0,.83-.07,1.24-.93Z"/><path class="cls-1" d="M98.26,19.34V19c1.33-.09,1.4-.16,1.4-1.18V12.52c0-.7-.09-.72-.61-.78l-.59-.07v-.34a8.94,8.94,0,0,0,2.19-.67v7.11c0,1,.08,1.09,1.42,1.18v.39Z"/><path class="cls-1" d="M113.73,28.92c-.16.62-.36,1.31-.48,1.82h-4.52v-.33c.66-.74,1.38-1.54,2-2.32a5.8,5.8,0,0,0,1.48-3.29c0-1.13-.53-1.79-1.41-1.79s-1.34.74-1.65,1.27l-.28-.29.69-1.1a2,2,0,0,1,1.64-.82,2.11,2.11,0,0,1,2,2.36,4.68,4.68,0,0,1-1.51,3.31c-.52.61-1.27,1.44-1.79,2h2.29c.65,0,.83-.07,1.24-.93Z"/><path class="cls-1" d="M65.56,69.15c-1,2.82-2,5.62-3.07,8.5l-.86.13-.09-.15A81.06,81.06,0,0,0,64.74,70l-2.57.11c-.78,0-.82.15-1.11,1.07h-.37c.09-.77.11-1.45.15-2L65.49,69Z"/><path class="cls-1" d="M80.8,78a1.51,1.51,0,0,1,.76-.28,2.3,2.3,0,0,1,2.31,2.37,2.76,2.76,0,0,1-2.27,3.18c-1.41.1-2.57-1.15-2.71-3.24a5.53,5.53,0,0,1,3-5.36,10.07,10.07,0,0,1,1.32-.44l.11.44a6.86,6.86,0,0,0-1.28.55,4.23,4.23,0,0,0-2,3.3Zm.33.53A2.16,2.16,0,0,0,80,79a5.62,5.62,0,0,0,0,.93c.12,1.7.77,2.92,1.78,2.85s1.15-1.2,1.09-2.11C82.77,79.52,82.22,78.45,81.13,78.53Z"/><path class="cls-1" d="M102.06,69.24l.08.1-.28.92-2.75.11c-.08.76-.19,1.83-.27,2.5a5,5,0,0,1,1.4-.45,2.22,2.22,0,0,1,2.34,2.22,3,3,0,0,1-.93,2.34,3.46,3.46,0,0,1-2.08,1,1.69,1.69,0,0,1-1.27-.48.49.49,0,0,1-.21-.46.69.69,0,0,1,.23-.47.23.23,0,0,1,.34,0,2,2,0,0,0,1.54.68c1,0,1.44-1,1.4-2.06a1.84,1.84,0,0,0-2-2,3.35,3.35,0,0,0-1.19.29l0,0c.14-1.07.32-3,.41-4.1Z"/><path class="cls-1" d="M113.81,63.1v1c0,.91,0,1,.9,1.07v.38H111.9V65.2c.9-.1,1-.18,1-1.08v-1H109.7v-.41c1.14-1.85,2.37-3.84,3.57-5.74h.54v5.49H115v.66Zm-1-4.72c-.75,1.26-1.59,2.65-2.42,4.06h2.42Z"/><path class="cls-1" d="M115.49,40.9l.57-.86a2,2,0,0,1,1.55-.78,1.74,1.74,0,0,1,1.81,1.82,1.64,1.64,0,0,1-.37,1,5.69,5.69,0,0,1-.86.73A2.17,2.17,0,0,1,120,44.93a3.42,3.42,0,0,1-3.16,3.17,1.8,1.8,0,0,1-1.24-.48.63.63,0,0,1-.18-.45.79.79,0,0,1,.27-.52.2.2,0,0,1,.31,0,2.11,2.11,0,0,0,1.49.73c.87,0,1.48-.74,1.48-2.07a1.57,1.57,0,0,0-1.59-1.74,2.65,2.65,0,0,0-.8.15l-.08-.41c1.06-.4,1.93-1,1.93-2a1.13,1.13,0,0,0-1.15-1.27,1.9,1.9,0,0,0-1.5,1.08Z"/><path class="cls-1" d="M50.37,56.29a2,2,0,0,1,2,2A1.82,1.82,0,0,1,52,59.42a10.88,10.88,0,0,1-1,.87,2.81,2.81,0,0,1,1.65,2.36,2.42,2.42,0,0,1-2.41,2.48,2.18,2.18,0,0,1-2.32-2.26,1.74,1.74,0,0,1,.55-1.35,12.89,12.89,0,0,1,1.08-.85,2.51,2.51,0,0,1-1.33-2.14A2.16,2.16,0,0,1,50.37,56.29Zm0,8.37c.8,0,1.3-.6,1.3-1.6s-.81-1.62-1.78-2.15a2.13,2.13,0,0,0-1,1.87C48.88,64,49.58,64.66,50.37,64.66Zm-.16-7.92c-.72,0-1.09.64-1.09,1.41,0,1,.59,1.36,1.53,1.92a2.08,2.08,0,0,0,.79-1.69C51.44,57.23,50.84,56.74,50.21,56.74Z"/><path class="cls-1" d="M46.45,44.58l-.8.46a1.4,1.4,0,0,1-.72.21,2.31,2.31,0,0,1-2.16-2.56,2.66,2.66,0,0,1,2.46-2.82c1.55,0,2.41,1.55,2.41,3.41a5.48,5.48,0,0,1-3,5.11,4.74,4.74,0,0,1-1.43.35l-.1-.39A4.35,4.35,0,0,0,46.45,44.58Zm-1.36-4.24c-.94,0-1.26,1-1.26,2,0,1.2.59,2.2,1.59,2.2a1.67,1.67,0,0,0,1.08-.4,7,7,0,0,0,0-.88C46.55,42,46.25,40.34,45.09,40.34Z"/><path class="cls-1" d="M48.76,31.13v-.39c1.33-.09,1.4-.16,1.4-1.18V24.31c0-.69-.08-.72-.61-.78L49,23.47v-.35a8.94,8.94,0,0,0,2.19-.66v7.1c0,1,.08,1.09,1.42,1.18v.39Z"/><path class="cls-1" d="M56.41,22.46c1.8,0,2.47,2.29,2.47,4.41s-.67,4.42-2.47,4.42S53.9,29,53.9,26.88C53.9,24.89,54.59,22.46,56.41,22.46Zm0,.47c-1.11,0-1.39,2-1.39,3.92s.34,4,1.39,4,1.37-2,1.37-3.94S57.48,22.93,56.41,22.93Z"/><polygon class="cls-1" points="59.86 81.66 57.35 83.24 59.74 84.62 59.86 81.66"/><polygon class="cls-1" points="79.42 0.25 81.09 2.69 82.38 0.25 79.42 0.25"/><polygon class="cls-1" points="101.9 5.05 102.17 8.01 104.49 6.5 101.9 5.05"/><polygon class="cls-1" points="60.56 8.44 60.45 5.47 58.05 6.86 60.56 8.44"/><polygon class="cls-1" points="38.74 44.59 36.23 43.01 36.02 45.76 38.74 44.59"/><polygon class="cls-1" points="81.23 87.6 79.85 90.22 82.61 90.22 81.23 87.6"/><polygon class="cls-1" points="41.95 23.29 44.92 23.18 43.54 20.78 41.95 23.29"/><polygon class="cls-1" points="41.87 61.14 38.93 60.71 39.85 63.32 41.87 61.14"/><polygon class="cls-1" points="102.88 81.65 102.88 84.62 105.33 83.33 102.88 81.65"/><polygon class="cls-1" points="118.49 65.92 120.17 68.36 121.45 65.92 118.49 65.92"/><polygon class="cls-1" points="123.78 44.44 126.48 45.68 126.33 42.92 123.78 44.44"/><polygon class="cls-1" points="119.11 20.43 117.84 23.11 120.6 22.99 119.11 20.43"/><path class="cls-1" d="M58.34,64.17q-.09-.09,27.71-27.89a1.33,1.33,0,0,1,.53-1.87,1.28,1.28,0,0,1,1.7.78,1.33,1.33,0,0,1-.76,1.4,1.56,1.56,0,0,1-1.16.09Q58.43,64.27,58.34,64.17Z"/><path class="cls-1" d="M57.77,29.59c-.26.36,4.67,4.48,16.38,13.46a5,5,0,0,0,1.25,4.1,5,5,0,0,0,6.42.05q33-2.49,32.93-3.34t-31.91-.1a3.72,3.72,0,0,0-.09-1,4.28,4.28,0,0,0-2.85-3,4.67,4.67,0,0,0-4.19.89C63.49,32.55,58,29.22,57.77,29.59Z"/><circle class="cls-2" cx="78.48" cy="43.99" r="2.78"/><circle class="cls-1" cx="78.48" cy="43.99" r="1.31"/><circle class="cls-2" cx="78.48" cy="43.99" r="0.36"/><line class="cls-3" x1="63.49" y1="3.95" x2="65.12" y2="7.95"/><line class="cls-3" x1="67.8" y1="2.39" x2="68.94" y2="6.56"/><line class="cls-3" x1="72.06" y1="1.14" x2="72.69" y2="5.42"/><line class="cls-3" x1="76.95" y1="0.34" x2="76.95" y2="4.57"/><line class="cls-3" x1="85.47" y1="0.52" x2="85.47" y2="4.77"/><line class="cls-3" x1="90.06" y1="1.02" x2="89.72" y2="5.38"/><path class="cls-3" d="M98.83,3.74,97.6,7.81"/><line class="cls-3" x1="107.54" y1="8.4" x2="104.62" y2="11.64"/><line class="cls-3" x1="110.97" y1="11.08" x2="108.16" y2="14.2"/><line class="cls-3" x1="114.36" y1="14.37" x2="111.31" y2="17.2"/><line class="cls-3" x1="117.18" y1="17.71" x2="114.15" y2="20.52"/><line class="cls-3" x1="122.09" y1="25.54" x2="118.57" y2="27.91"/><line class="cls-3" x1="124.23" y1="30.41" x2="120.05" y2="31.56"/><line class="cls-3" x1="125.45" y1="34.88" x2="121.35" y2="35.48"/><line class="cls-3" x1="126.33" y1="39.75" x2="122.16" y2="39.75"/><line class="cls-3" x1="126.53" y1="48.89" x2="122.34" y2="48.68"/><line class="cls-3" x1="126.04" y1="53.48" x2="121.87" y2="53"/><line class="cls-3" x1="123.1" y1="62.66" x2="119.21" y2="61.08"/><line class="cls-3" x1="118.52" y1="71.07" x2="115.04" y2="68.72"/><line class="cls-3" x1="115.4" y1="74.93" x2="112.23" y2="72.18"/><line class="cls-3" x1="112.03" y1="78.24" x2="109.06" y2="75.27"/><line class="cls-3" x1="108.11" y1="81.38" x2="105.74" y2="77.91"/><line class="cls-3" x1="99.77" y1="86.35" x2="98.24" y2="82.43"/><line class="cls-3" x1="95.12" y1="88.12" x2="94.19" y2="84.02"/><line class="cls-3" x1="90.63" y1="89.31" x2="90.14" y2="85.14"/><line class="cls-3" x1="86" y1="90.07" x2="85.82" y2="85.66"/><line class="cls-3" x1="76.76" y1="90.07" x2="76.76" y2="85.66"/><line class="cls-3" x1="72.09" y1="89.17" x2="72.36" y2="84.78"/><line class="cls-3" x1="67.12" y1="88.02" x2="68.42" y2="83.81"/><line class="cls-3" x1="54.17" y1="81.08" x2="56.95" y2="77.73"/><line class="cls-3" x1="50.68" y1="78.26" x2="53.67" y2="75.02"/><line class="cls-3" x1="47.21" y1="74.76" x2="50.48" y2="71.81"/><line class="cls-3" x1="44.26" y1="71.07" x2="47.78" y2="68.42"/><line class="cls-3" x1="36.81" y1="53.53" x2="41.2" y2="53.11"/><line class="cls-3" x1="36.18" y1="48.86" x2="40.58" y2="48.69"/><line class="cls-3" x1="36.39" y1="40.22" x2="40.79" y2="40.38"/><line class="cls-3" x1="37.12" y1="35.59" x2="41.52" y2="35.75"/><line class="cls-3" x1="38.57" y1="30.44" x2="42.76" y2="31.82"/><line class="cls-3" x1="40.39" y1="26.05" x2="44.4" y2="27.88"/><line class="cls-3" x1="45.12" y1="18.34" x2="48.83" y2="20.8"/><line class="cls-3" x1="48.12" y1="14.68" x2="51.43" y2="17.67"/><line class="cls-3" x1="51.64" y1="11.38" x2="54.67" y2="14.64"/><line class="cls-3" x1="55.37" y1="8.21" x2="57.78" y2="11.73"/><line class="cls-3" x1="62.64" y1="86.18" x2="64.53" y2="82.2"/><path class="cls-4" d="M94.55,2.25l-.76,4.19"/><ellipse class="cls-5" cx="81.34" cy="45.28" rx="45.33" ry="45.03"/><ellipse class="cls-5" cx="81.55" cy="45.18" rx="40.97" ry="40.7"/><path class="cls-6" d="M36.55,40.29c-1.51-.94-3-1.65-3.62-1.13-.86.74.55,3.57,0,3.86s-1.64-2.21-3.09-2.14-3.23,2.92-2.62,5,3.6,2.75,3.39,3.57-4.11-.09-6.18,2.08a4.6,4.6,0,0,0-1.13,2.31l-.06,3.51,8.66-.6,11-.73a50.61,50.61,0,0,0,5.08-.3,10.92,10.92,0,0,0,4-.83c.45-.23,1.54-.9,3.53-4.93,1.19-2.4,1.18-2.92,3.08-7.28.46-1.06.87-2,1.48-3.27a15.5,15.5,0,0,0,1.07-2.2C61.47,35.62,61,33.4,61,32a.88.88,0,0,1,.23-.71.65.65,0,0,1,.54-.12c.72.22.15,2.64.83,3,.46.26,1.55-.32,4.1-3.21a5.82,5.82,0,0,1,.12,3.92,5.33,5.33,0,0,1-1,1.61c-1.51,1.81-1.61,4-2.08,6.95a75.1,75.1,0,0,1-1.9,8.14c-1.3,4.48-2,6.72-3.69,8.5-2.54,2.59-5.91,3-8.67,3.32-6.69.79-15.64-1-17.41-5.82-.15-.41-1-2.82.12-4.1.72-.83,1.66-.5,2.86-1.61a5.61,5.61,0,0,0,1.48-2.55,9.24,9.24,0,0,0,.24-3.68C36.66,44.4,36.58,42.58,36.55,40.29Z"/><path class="cls-6" d="M11.15,76.74l5.88.57,2.19,8.07-3.16,5.21a1.83,1.83,0,0,1-.5.54,2.89,2.89,0,0,1-3.2-.27,3.3,3.3,0,0,1-1.07-1.52A5.93,5.93,0,0,1,11,86.72c0-1,0-2,0-3.57Z"/><path class="cls-6" d="M9.28,189.22c.69.1,1.5.14,1.7-.23.35-.65-1.34-2.14-3.48-4.23-1.33-1.29-3.16-3.14-5.28-5.51A2.44,2.44,0,0,0,0,181a2,2,0,0,0,.35,1.31,3.34,3.34,0,0,0,2.44,1.37"/><path class="cls-6" d="M27.4,185.54a2.4,2.4,0,0,0-.41,2.14,2.06,2.06,0,0,0,1.48.95,4.89,4.89,0,0,0,3-.42c1.22-.47,3.18-.65,6.35.73a2,2,0,0,0,1.61-.08c.34-.19.83-.63.77-1-.11-.76-2.43-1-5.4-1.3C32.94,186.33,30.42,186,27.4,185.54Z"/><path class="cls-1" d="M15.88,97.23c-.06,1.19-.14,2.94-.18,5.09a19.41,19.41,0,0,0,0,2.68A7.82,7.82,0,0,0,17,109a6.16,6.16,0,0,0,2.12,1.87q1.58,19.92,3.16,39.84L1.08,176.92l10,9,29.59-36.59,2.61-4.16-1.54-27.92q-.6-10.12-1.19-20.26Z"/><path class="cls-1" d="M24.13,167.3l.95,17.46,13.79.12L38.75,147Q31.45,157.14,24.13,167.3Z"/><path class="cls-7" d="M38.86,70.1c-.38.91.48,1.6.48,3.21,0,1.32-.59,1.63-1.13,3.27a12.39,12.39,0,0,0-.36,5.4A30.19,30.19,0,0,0,39,87a51.36,51.36,0,0,1,1.78,7.9,21.28,21.28,0,0,1,.06,3.21L15,98l.42-5.28a16.72,16.72,0,0,1,1.18-3.27c.69-1.41,1-1.48,1.37-2.44a8.53,8.53,0,0,0,.3-5.34,8.73,8.73,0,0,0-2.14-3.75,29.46,29.46,0,0,1-3.63-.36c-.75-.12-1.46-.26-2.13-.41a23.11,23.11,0,0,1,.35-9.21c.6-2.41,1.23-5,3.45-7.18a12.21,12.21,0,0,1,6.59-3.33l27-2.2,2.91,10.16-9,3.39C39.74,69,39.09,69.57,38.86,70.1Z"/><path class="cls-8" d="M14.25,70.59c.23,2.41.53,6,2.36,7.8"/><rect class="cls-9" x="15.2" y="59.92" width="33.66" height="0.34"/><rect class="cls-9" x="11.72" y="64.72" width="38.51" height="0.39"/><rect class="cls-9" x="10.25" y="70.88" width="28.34" height="0.33"/><rect class="cls-9" x="15.99" y="76.66" width="21.74" height="0.31"/><rect class="cls-9" x="18.49" y="82.14" width="19.18" height="0.28"/><rect class="cls-9" x="18.17" y="86.67" width="20.59" height="0.29"/><rect class="cls-9" x="15.67" y="92.16" width="24.5" height="0.31"/><path class="cls-10" d="M18.94,35.55c-.85,2.45-2.28,4.17-3.21,3.85"/><rect class="cls-11" x="20.03" y="34.22" width="2.67" height="1.69" rx="0.4" transform="translate(-18.54 25.38) rotate(-45)"/><path d="M17.45,45.28a12.32,12.32,0,0,1,2.44-7.9A14.17,14.17,0,0,1,32.13,31.6c3.21.21,8,1.74,8.25,4.32.16,1.58-1.4,3.28-2.94,4a5.71,5.71,0,0,1-4,.36l0,2.61a1,1,0,0,1-.09.75c-.32.5-1.16.4-1.28.38-.89-.12-1-.82-1.66-.92a2.14,2.14,0,0,0-2.11,1.66,2,2,0,0,0,.42,1.76c.46.46.91.26,1.75.71a3.26,3.26,0,0,1,1.28,1.16c.68,1.37-1.11,4.21-3.54,5.4a7.3,7.3,0,0,1-5.63.15C18,52.09,17.48,45.77,17.45,45.28Z"/><path d="M19.52,35.6l2.26-1.82a3.7,3.7,0,0,0,.71-1A5,5,0,0,0,21,26.6a4.49,4.49,0,0,0-4.72-.21c-2.34,1.41-2.66,5.15-1,7.31A5.59,5.59,0,0,0,19.52,35.6Z"/><path class="cls-12" d="M2.69,177.87a2.41,2.41,0,0,0-.45,1.63c.1.8.66,1.09.92,1.88a2.9,2.9,0,0,1-.35,2.32l5.05,4.81.4,0s.31,0,.61-.08c1-.15,1.44-.23,1.54-.48s-.28-.84-.89-1.3a1.62,1.62,0,0,1-.89-1.13,1.58,1.58,0,0,1,.83-1.61Z"/><path class="cls-12" d="M26.29,184.22a2.46,2.46,0,0,0,.69,1.56l.1.09a3.43,3.43,0,0,1,1.84.78,3.53,3.53,0,0,1,1.21,2l7.07.48a2.22,2.22,0,0,0,1-.54c.11-.1.95-.93.61-1.58a1.32,1.32,0,0,0-1.54-.44,1.65,1.65,0,0,1-1.43-.3,1.6,1.6,0,0,1-.38-1.79Z"/><path class="cls-13" d="M22.11,151l6.15-8.37Q27.15,127.4,26,112.2"/><path class="cls-14" d="M27.45,110.68c-1.67,1.28-6.38,0-6.44-1.5"/><path class="cls-15" d="M33.46,99.53c.43,3,4.52,3.21,6.48.62"/><path class="cls-16" d="M28.75,142.88c.72-1.55,5.26-1,10.15,1.29"/><line class="cls-17" x1="25.19" y1="168.43" x2="40.65" y2="149.36"/></g></g></svg>