<svg xmlns="http://www.w3.org/2000/svg" viewBox="0 0 165.93 197.59"><defs><style>.cls-1{fill:#4285f4;}</style></defs><g id="Layer_2" data-name="Layer 2"><g id="Layer_1-2" data-name="Layer 1"><path class="cls-1" d="M0,0S10,.37,15.81.52c10.48.26,18.63.1,23.7,0C48.66.32,52.7,0,63.16,0A76.1,76.1,0,0,1,76.94.87c5.56.93,9.34,1.55,13.24,3.8,9.51,5.48,12.21,16.2,12.48,17.35,3,12.86-4.47,23-6.24,25.43C91.56,54,85.4,57.07,81.57,59a49,49,0,0,1-15.92,4.75l42.06,55.84,34.69-51.2,18.42.23c.05.64.12,1.6.24,3.09a2.55,2.55,0,0,1-.24,1.79,2.13,2.13,0,0,1-1.31.71,10.84,10.84,0,0,1-3.56.24,8.43,8.43,0,0,0-4.76,1.3L112,126.46l41.58,60.23a11,11,0,0,0,12.36,5.11v5.79H139l-37.43-57-22.1,32.08L64.22,197.59H44.74L44.5,192l6.42-.59a10,10,0,0,0,4-1.55,9.86,9.86,0,0,0,3-3.09l39-53.46L70.4,96.75,57.69,79.88,43,62.18l.71-2.85,7.49.35a40.79,40.79,0,0,0,12.71-1.54,31.05,31.05,0,0,0,7.36-3,26.79,26.79,0,0,0,10.22-10.1c4.36-7.77,3.2-15.38,2.73-18.42a21.05,21.05,0,0,0-2.85-8.55,20.37,20.37,0,0,0-7.24-6.89,26.12,26.12,0,0,0-6.9-2.62A48.62,48.62,0,0,0,57,7.05a56.26,56.26,0,0,0-9.27,0A53,53,0,0,0,36.78,9.19l-.71,5.11-.6,47.05.36,53.22a10.53,10.53,0,0,0,.35,3.45,6.3,6.3,0,0,0,1.31,2.73,5.76,5.76,0,0,0,2.14,1.43,12.87,12.87,0,0,0,5.11.95c2.24,0,5.13.07,9.15.36l-.36,5.82-27.68-.72L0,129.19V123.6l12.66-.95a4.82,4.82,0,0,0,2-.71,5.09,5.09,0,0,0,1.54-1.54,6.32,6.32,0,0,0,1.07-3.21l.95-10.1q-.16-44.43-.35-88.87c-.17-1.76-.29-3.09-.36-3.8-.27-3-.32-3.76-1-4.76A6.46,6.46,0,0,0,14.74,7.8a7.1,7.1,0,0,0-2.2-1A66.26,66.26,0,0,0,0,5.74Z"/></g></g></svg>