<svg id="Layer_1" data-name="Layer 1" xmlns="http://www.w3.org/2000/svg" viewBox="0 0 750 500"><defs><style>.cls-1{fill:#dff1fd;}.cls-2{fill:#e8dbcb;}.cls-3{fill:#f4e7d7;}.cls-4{fill:#c59b6e;}.cls-5{fill:#8c623a;}.cls-6{fill:#fdfdfc;}.cls-7{fill:#0a2131;}.cls-8{fill:#513625;}.cls-9{fill:#f39663;}.cls-10{fill:#363a3d;}.cls-11{fill:#a77d54;}.cls-12{fill:#e4e3e3;}.cls-13{fill:#113043;}.cls-14{fill:#f4b400;}.cls-15{fill:#98c9d5;}.cls-16{fill:#4285f4;}</style></defs><g id="Layer_2" data-name="Layer 2"><g id="Layer_1-2" data-name="Layer 1-2"><path class="cls-1" d="M-2.15,237q0-116.55-.13-233.12c0-3.68.47-4.78,4.83-4.78q371.15.21,742.14,0c4.44,0,4.75,1.24,4.75,4.82q-.16,163.19-.09,326.38H676c6.51-8.48,13.76-16.17,17.93-26.5,5-12.56,8.43-25,8.52-38.31v-25a11,11,0,0,0-.25-3.95c-3.66-8.83-3.77-18.35-6.53-27.43-3.24-10.61-6-21.32-10.11-31.69a97.65,97.65,0,0,0-24-34.92c-2.65-2.51-5.88-3.82-8.81-5.67a104.3,104.3,0,0,0-35-13.82,89.1,89.1,0,0,0-18.72-2.14c-2,0-2.67-1.37-3.12-2.9a87.23,87.23,0,0,0,2.72-47.11c-2.21-10.23-6.23-19.61-19.07-22,1.41-1.73,4.06-1.73,4.75-4-2.32-1.72-6.27-1.33-7.22-5.18-.34-1.35-2.08-.43-2.32.88-.31,1.73-.31,3.46-.51,5.82A35.34,35.34,0,0,0,556,33.58c-23.36-7.2-48.66,3.68-58.25,25.05-3.4,7.26-6,14.79-10.68,21.54-3.88,5.56.38,12.47,7.57,13.44,5,.67,10-.53,14.92-1.12l.89,3.78a3.8,3.8,0,0,0,.59,5,77.57,77.57,0,0,0,6.34,28.64c5.82,12.56,13.18,25.21,33.19,22.77,3.12,0,5.48.45,2.17,3.66a30.94,30.94,0,0,0-4.5,6.6c-9.65,15.9-14.22,33.46-16.45,51.24-1.46,12.25-3.77,24.61-2.93,37.09.13,1.84.75,4.12-.69,5.49-4.35,4.08-4.28,9.12-4.13,14.25-2,.81-4,1.73-6.07,2.42-18.67,7.22-37.61,13.66-55.45,22.77-10.55,5.35-16.22,13.66-18.05,24.58-.53,3.16-.77,6.35-1.13,9.53-13.19,0-26.39-.34-39.53.18-6.4.24-7.61-1.89-7.5-7.38.35-17.36.13-34.7.11-52.06,7.61-4.58,16-7.61,24.08-11.3,12.91-5.94,13.38-6.69,11.85-20.11-.15-1.4-.2-2.69-2.21-2.57-1.19-.09-2.4-.24-3.66-.24H268.91c-1.83,0-3.66.27-5.37.43a9.51,9.51,0,0,1-1-5q-4.59-47.76-9.15-95.53c-.67-7.1-2.63-8.63-10.29-8.81l-32.45-.41c-1-1.21-.37-2.49-.24-3.77a78.39,78.39,0,0,0-3.25-28.66l-.11-.22.69-1.73,3.66-.33c.47.57.86.42,1.19-.13a40.42,40.42,0,0,0,6.85-2c4.32-2.13,5.76-7.6,2.23-10.57C214.9,74.4,210.22,67.06,203.9,61c-13.92-13.35-41.91-8.12-50,2.56-4.43,5.77-8,11.19-15.84,14.23-7.31,2.82-9.14,11-11.37,18-3.18,10-3.27,20.56-5,30.82-11.61-.21-23.21-.49-34.74-.62-8.1,0-10.48,2.21-9.91,9.83,1.39,19,3,38,4.35,57.1,1,14.69,3,29.37,2.94,44.09H83.28ZM222.18,113.48a11.78,11.78,0,0,0,6.09,3c8.41,2.33,16.18.4,23.66-3a9.86,9.86,0,0,1,9.59,0c9.15,5,19.22,5.07,29.49,5.43,24.05.83,47.89-18.62,53.26-40.61,4.63-19,.55-36.19-13.51-50.53-18.31-18.78-48-22.92-71.3-9.93-18.85,10.36-28.3,25.91-29.25,46.29-.53,12.34,4.38,23.25,11.2,33.45a4.42,4.42,0,0,1-.09,6C237,109.92,230,111.85,222.18,113.48Z"/><path class="cls-2" d="M285.68,499.78q-141.51,0-283,.12c-4.12,0-5-.76-4.94-4.66.22-31.86.13-63.71.13-95.58H230.13c0,2.26.18,4.53.18,6.79v74.12c0,2-1.37,4.94,2.18,5.62,5.25,1,10.55,1.95,15.78-.14,4.39-2.59,8.65-5.43,13.22-7.67,3.93-1.94,5-4.56,5-8.64-.11-23.37,0-46.76.14-70.13h83.87c2.85,0,5.58,0,7.55,2.35,0,8.06,0,16.13.11,24.18,0,2.23-.33,5,3.14,5,4.89,0,9.86,1.09,14.63-.72,6.6-2.63,12.1-6.91,18.06-10.56l.53-.9.57-4.52c2-1.73,1.26-3.87,1.3-5.86.16-10-1.26-8.9,9.8-9,5.48,0,10.84.13,16.25,0,4.32-.16,8.34.29,9.8,4.68s-2.12,6.39-5.48,8.39c-23.19,14.11-46.31,28.31-69.48,42.36C334.89,468.6,312.42,482,290,495.5,288.42,496.57,286,497.26,285.68,499.78Z"/><path class="cls-3" d="M749.35,347.34q0,74.28.11,148.47c0,3.45-.73,4.08-4.31,4.08q-86.42-.21-172.83-.11c2.83-5.72,9.47-6.49,14.33-9.38,29.82-17.76,58.14-37.26,82.69-61.32a43.85,43.85,0,0,0,9.26-11.75,6.33,6.33,0,0,0-1.63-8.19,27.34,27.34,0,0,0-15.4-7c-4-.55-5-2.14-5-5.55.13-16.46.13-32.94.17-49.4Z"/><path class="cls-4" d="M-2.15,237H83.34a47.51,47.51,0,0,0,.44,10.18c1,4.19-1.16,9.2,3.32,12.57l1.06.74a10,10,0,0,0,7.43,6.65c7.79,2.34,15.32,5.43,23.09,7.79,14.95,4.57,29.25,11.77,45.83,9.68,4.37-.55,8.76-.81,13.15-1.12,17.37-1.23,34.74-2.06,52.09-3.72,28.06-2.68,56.2-4.3,84.3-6.61,9.34-.76,18.65-2,28-3.08,4.19-.48,5.21-2.35,2.55-5.65-15.93-4.42-32.4-6.22-48.64-9.15-11.48-2.09-23.22-3-34.53-5.89,3.12-3.67,2-8,2.21-12.1,1.83-.15,3.65-.43,5.37-.43h157.6c1.19,0,2.4.16,3.66.24-14.35,8.33-30.06,14.08-45.1,21.11-32.6,15.24-65.46,30-98.2,44.92L-2.15,303Z"/><path class="cls-3" d="M230.13,399.64H-2.15v-52.3H230Q230.13,373.46,230.13,399.64Z"/><path class="cls-2" d="M656.77,347.18c0,16.46,0,32.94-.17,49.4,0,3.46,1,5,5,5.55a27.34,27.34,0,0,1,15.4,7,6.33,6.33,0,0,1,1.63,8.19,43.85,43.85,0,0,1-9.26,11.75c-24.55,24.06-52.87,43.56-82.69,61.32-4.86,2.89-11.5,3.66-14.33,9.38H467.59c-3.53-4.06-9-4.09-13.66-5.66-11.7-3.91-23-8.52-33.11-15.45-7.42-5.09-8.7-13-2.52-19,4-4,7.75-7.62,8.25-13.34-.63,6.28-.48,12.29,6.29,16,5.48,5.18,12.39,5.39,19.38,3.93,5.17-1.08,10.18-2.79,15.28-4.21-.49,7.6-.24,15,7.48,19.81a28.21,28.21,0,0,0,23.77,4.3,107.16,107.16,0,0,0,42-21,7.22,7.22,0,0,0,3-4.74c1.21-4.8-.55-9.48-.75-14.23a10.74,10.74,0,0,0,2.95-4.41c2.1-.36,2.21-1.84,2.21-3.45V411.06c0-1.62-.2-3.07-2.31-3.45l-.18-3.46c2.73-2.61.26-6.13,1.72-9,1.83.59-.44,3.71,2.91,3.45-.62-5.08,2.37-7,7.31-7.13l.22,72.55c0,9.93,0,9.93,11,9.29,4.86-2.71,12.21-3.45,12.25-10.52.13-27.55,0-55.1-.2-82.65.2-1.16.38-2.3.56-3.46,1.27,3.32.59,6.76.55,10.11s.88,4.58,4.68,4.8c15.25.9,30.48,2.12,45.6,4.41.09,11.67.33,23.37.18,35,0,3.78,1.34,5.18,5.2,4.75,1.93-.23,4,.48,5.77-.83,4.81-2.52,12-3.18,12.11-10,.29-18,0-36-.17-54a80,80,0,0,1,.3-8.48c.49-5.51-1.25-11.16,1-16.57A9.2,9.2,0,0,0,656.77,347.18Z"/><path class="cls-3" d="M426.49,446.3c-.49,5.72-4.2,9.38-8.24,13.34-6.18,6-4.9,13.94,2.52,19,10.07,6.91,21.41,11.54,33.11,15.44,4.66,1.57,10.13,1.61,13.66,5.67H285.68c.27-2.52,2.67-3.23,4.4-4.29,22.4-13.52,44.87-26.89,67.25-40.44,23.23-14,46.36-28.24,69.47-42.35,3.31-2,6.89-4,5.49-8.4s-5.49-4.83-9.8-4.68c-5.49.19-10.83,0-16.26,0-11,0-9.63-1.09-9.8,9,0,2,.74,4.21-1.29,5.85h-.44a2.27,2.27,0,0,0-.24-2.49v-52.8c1.55-3.82.2-7.83.88-11.68h49.45c.17,2.63.4,5.18.46,7.89.62,22.65-.59,45.35,1.65,68,.34,3.66,1.48,6.58,5,8.43-4.7,3.45-10.41,4.75-15.8,6.65C431.67,439.87,428.19,442.07,426.49,446.3Z"/><path class="cls-5" d="M-2.15,303l289,.08v16.88c-4.79.16-9.59.59-14.37.36-4.37-.22-7,.7-6.36,5.38-4.77,1.15-9.54,2.28-14.31,3.45-2.49.62-3.88.09-3.46-2.59.93-6-2.71-6.91-7.82-6.56a40.39,40.39,0,0,0-10,1.05l-.4.22c-2-1.93-4.55-1-6.82-1h-178c-15.84,0-31.67-.1-47.54-.17Z"/><path class="cls-6" d="M230.1,347.28H-2.1V330.22H230.19l.44,1.1C230.41,336.64,230.26,342,230.1,347.28Z"/><path class="cls-1" d="M230.13,330.23H-2.06v-9.1H230.26l.4-.22Z"/><path class="cls-6" d="M656.77,347.18a3.48,3.48,0,0,0-.17-1c3.55-1.5,7-3.24,10.68-4.4,3-.95,4-2.54,3.45-5.3,0-3.32,2.67-4.72,5.21-6.19h73.41v17.07Z"/><path class="cls-2" d="M230.17,321.25H-2.15v-1.14c15.83,0,31.66.17,47.53.17h178C225.62,320.25,228.18,319.32,230.17,321.25Z"/><path class="cls-3" d="M676,330.25c-2.54,1.47-5.16,2.87-5.21,6.19-2.84-1.82-4.39.84-6.26,1.72-17.71,8.85-33.47,5.19-44.33-10.36l-4-8.64a15.9,15.9,0,0,0,15.07-7.37C640,299.05,636.69,279.26,625,269c-4.24-3.73-9.14-7.15-12.23-11.61-2.09-2.94-6.53-4-6.84-8.13,1.26-7.29,5-13.82,5.15-21.63.44-21.11-3-41.69-7.84-62.09a90.91,90.91,0,0,0-8.46-24.18c-2.23-7.62-7.32-14.15-9.35-21.83,3.48-.87,7.63,2.12,10.59-1.73.46,1.54,1.13,2.92,3.13,2.9a89.25,89.25,0,0,1,18.72,2.14,104.33,104.33,0,0,1,35,13.82c2.93,1.85,6.16,3.16,8.82,5.67a97.68,97.68,0,0,1,23.87,34.84c4.13,10.36,6.88,21.07,10.11,31.68,2.76,9.09,3,18.61,6.53,27.43a11,11,0,0,1,.26,4v25c-.09,13.32-3.48,25.76-8.52,38.32C689.71,314.08,682.45,321.77,676,330.25Z"/><path class="cls-6" d="M222.18,113.48c7.86-1.63,14.84-3.56,19.27-10a4.42,4.42,0,0,0,.09-6c-6.82-10.2-11.74-21.11-11.21-33.45.88-20.33,10.33-35.95,29.26-46.29,23.27-13,53-8.85,71.3,9.93C345,42.05,349,59.27,344.4,78.24c-5.37,22-29.25,41.46-53.26,40.61-10.27-.36-20.33-.45-29.49-5.43a9.88,9.88,0,0,0-9.6,0c-7.47,3.46-15.24,5.34-23.65,3A11.77,11.77,0,0,1,222.18,113.48Zm40.64-40.32c0,1.5-.13,3,0,4.52.29,6.74,4.5,10.66,10.73,12.94,4.89,1.73,12-.2,15.73-4.42s7.31-8.46,11-12.71c3.27-3.58,6.63-7.07,9.78-10.75,5.87-6.91,5.14-15.54-1.59-20.73C302,37,293,37.82,286.92,44.14c-3.37,3.45-6.49,7.22-9.73,10.83a36.85,36.85,0,0,0-4.13,4.71C270,64.47,264.3,67.39,262.82,73.16Z"/><path class="cls-7" d="M451.81,431.67c-3.51-1.85-4.64-4.77-5-8.43-2.23-22.63-1-45.33-1.64-68,0-2.64-.3-5.18-.46-7.89a62.76,62.76,0,0,0-1.35-17.12c.36-3.18.6-6.37,1.13-9.53,1.83-10.92,7.5-19.23,18.05-24.59,17.82-9.05,36.78-15.54,55.48-22.68,2.05-.76,4-1.6,6.07-2.41,4.94-.57,9.88-1.46,14.83-1.73,14.43-.64,28.78-.55,42.05,6.23-3.34.42-6.78-.64-10,1-23,11.3-47.3,20-69.94,32.08-16.2,8.64-21.35,21.49-19.65,37,.84,7.79,2.28,15.72,2.83,23.51,1.59,22.34,2.49,44.71,5.27,66.95A214.28,214.28,0,0,1,451.81,431.67Z"/><path class="cls-2" d="M581,275.61c-13.2-6.79-27.56-6.91-42.05-6.23-5,.2-9.9,1.09-14.83,1.72-.15-5.18-.22-10.17,4.13-14.25,1.44-1.36.82-3.64.69-5.49-.84-12.47,1.47-24.84,2.93-37.09,2.14-17.77,6.71-35.34,16.45-51.23a30.69,30.69,0,0,1,4.5-6.6c3.29-3.22,1-3.72-2.17-3.66,7.86-3.7,8.28-3.46,8.55,4.52A4.48,4.48,0,0,0,558,161q0,19.25.15,38.52c-.43,5.79-3.66,7.72-9.33,5.34a32.08,32.08,0,0,1-2.94-1.9,3.65,3.65,0,0,0-4.43,0,3.72,3.72,0,0,0-1.33,4.59,32.84,32.84,0,0,0,2.54,4.1c-3,.43-5.69-3.63-7.84.12s2.72,5,4.09,7.6c-2,.86-5.12.53-4.46,3.68.55,2.64,2.89,2.69,5.19,2.74,1,0,3-.62,2.62,1.09-1.32,5.72,2.48,4.29,5.48,3.61,6.31-1.38,12.62-2.4,18.78.14A37.33,37.33,0,0,0,577,232.74c5.3,7.29,13.58,11.21,20.73,16.43a6.42,6.42,0,0,0,8.17.12c.31,4.09,4.75,5.18,6.84,8.13,3.16,4.46,8,7.88,12.23,11.61,11.68,10.28,14.94,30.08,6.31,42.81a15.9,15.9,0,0,1-15.07,7.37c-6.51-.41-10.27-4.51-13.45-9.19a58.52,58.52,0,0,1-7.32-18.36A22.49,22.49,0,0,0,581,275.61Z"/><path class="cls-8" d="M596,117.93c-3,3.79-7.12.8-10.59,1.73a17.22,17.22,0,0,1-3.14-7.06c8.66.25,11.62-4.69,8.57-13.6-1-2.9-2.23-6-6-6.36s-5.08,2.51-6.07,5.19c-1.46,4.09-3.22,2.43-4.66.19-2.36-3.68-4.43-7.54-6.64-11.32.09-2.28-.4-4.42-3.31-4.47a13.21,13.21,0,0,1-12.92-8.55c-2.55,2.38-4.68,4.61-7.06,6.58-5.1,4.23-5.12,4.51.66,8.46a2,2,0,0,0,1,.3h.2a25.81,25.81,0,0,0,2.74,1c2.29.6,4.48,1.73,3.88,4.18-.68,2.76-3.22,3.13-5.8,2.23s-4.77-1.9-7.17-2.87A14.56,14.56,0,0,0,537.51,91c-1.83-1.37-1.83-5.55-5.38-3.86-4.17,2-11,.56-11.52,7.59-2.16,3.56-4.71,6.54-9.6,6.54a3.8,3.8,0,0,1-.58-5,4.75,4.75,0,0,0,4.44-4.37,5,5,0,0,0-5.34.59c-4.95.59-9.87,1.73-14.92,1.12-7.18-1-11.44-7.88-7.57-13.44,4.7-6.75,7.32-14.28,10.68-21.54,9.6-21.36,34.91-32.22,58.25-25a35.25,35.25,0,0,1,18.28,12.73c.21-2.44.21-4.16.52-5.82.23-1.32,2-2.23,2.32-.88.95,3.83,4.9,3.45,7.22,5.18-.69,2.33-3.35,2.19-4.75,4,12.79,2.44,16.85,11.82,19.07,22A87.24,87.24,0,0,1,596,117.93Z"/><path class="cls-8" d="M211.63,92.83l-3.66.33c-4.75-4.64-10.8-4.52-16.82-3.71-7.8,1-15.46,1.73-23-2.32-.13,2.13-.24,3.82-.35,5.5-6.74-1.07-2.17,3.87-3.4,5.75-.55,3.73-.95,7.48-1.66,11.18-.42,2.09-1.36,4.11-4.43,3.17-1.83-2.38-3.51-6-7.31-4s-2.85,6.38-2.08,9.82c.65,3,2.3,6.18,6.41,5.18,2.95-.76,3.44.58,4.15,2.47,2.25,5.87.37,11.42-1.33,17-14.52,2.43-27.43,7-33.83,21.17-.32.76-1.37,1.26-2.08,1.87l-.55-34.72.24-1.38v-3.56c1.68-10.26,1.83-20.73,5-30.82,2.2-6.91,4.14-15.13,11.38-18,7.8-3,11.41-8.46,15.83-14.23,8.14-10.68,36.13-15.91,50-2.56,6.33,6.1,11,13.44,17.81,19.18,3.53,3,2.08,8.44-2.23,10.57a40.29,40.29,0,0,1-6.84,2Z"/><path class="cls-9" d="M511,101.3c4.89,0,7.44-3,9.6-6.55,6.44,1.11,12.95,3,19-1.1,2.4,1,4.74,2,7.17,2.86s5.12.54,5.8-2.23c.6-2.48-1.59-3.57-3.88-4.18a27,27,0,0,1-2.76-1c3-2.85,6.43.71,9.76-.53a31.31,31.31,0,0,1,11.72-1.85c2.21,3.78,4.28,7.63,6.64,11.31,1.44,2.25,3.2,3.91,4.66-.19,1-2.71,2.34-5.6,6.07-5.18s5,3.45,6,6.36c3.05,8.91.09,13.82-8.57,13.59a17.32,17.32,0,0,0,3.14,7.07c2,7.68,7.11,14.21,9.34,21.83-2.48.66-2.37,2.92-2.87,4.6-2.74,9.24-8,16.65-17,21.4-5.8,3.06-10.31,1.73-13.15-4a66.18,66.18,0,0,1-2.61-6.23c-.28-8-.7-8.23-8.56-4.53-20,2.44-27.42-10.21-33.18-22.77A77.73,77.73,0,0,1,511,101.3Zm23.77,33.3c2.85-.74,7.31.19,8.08-3.66.44-2.38-3-3.78-5.7-3.73-3.53,0-6.25,1.73-6.57,5.29-.25,2.6,2.24,1.95,4.15,2.1Zm9.6-33.61c-1.33.76-4.08-.11-4.19,2.14a3.65,3.65,0,0,0,3.58,3.73h.08c2.12,0,2.8-1.83,3-3.63C547.05,101.7,546.54,100.61,544.38,101Zm-22.87,8.74c0-1.73-1-2.45-2.63-2.06s-4.1.14-4.12,2.42a3.56,3.56,0,0,0,3.65,3.46h.25c2.08-.13,2.76-2,2.9-3.84Z"/><path class="cls-10" d="M121.82,126.52v3.56c-8.92,0-17.82-.16-26.73,0-3.85,0-7.89-1.07-11.59.95-2.94,2.29-1.3,5.32-1.09,7.91,2.7,35.91,5.59,71.81,8.44,107.7.62,7.88.64,7.88,9.38,6.34a169.71,169.71,0,0,0,24.28-1l2.16-.18c14.5-.41,29-1,43.44-2.33l3.66-.1L196.88,248l2.17.14L220.72,247h2.39c7.68,1,15.21-1.09,22.84-1.16,2.59-.12,5.19-.41,7.79-.33,3.87.14,5.06-1.15,4.66-5q-5.34-51.4-10.3-102.83c-.38-4-2.19-4.87-6-4.84-11.22,0-22.43-.15-33.66-.28.26-1.9-.18-4.11,2.4-5l32.45.42c7.66.12,9.62,1.72,10.29,8.8q4.64,47.77,9.15,95.53a9.58,9.58,0,0,0,1,5c-.16,4.15.92,8.5-2.21,12.09-11,3.46-22.61,2.49-33.93,3.27-8.81.6-17.68,2.1-26.6,1.29a6.46,6.46,0,0,0-4.35,1.44c-17.32-1-34.43,2.21-51.69,2.28-8.9,1.46-17.94,1.12-26.89,1.81s-18.29.71-27.3,1.73l-2.47-.66-1.06-.74q-1.33-11.4-2.71-22.82c0-14.75-1.93-29.37-2.94-44.09-1.3-19-3-38-4.35-57.1-.57-7.62,1.83-9.92,9.91-9.83C98.62,126,110.21,126.31,121.82,126.52Z"/><path class="cls-11" d="M286.88,319.92V303c32.75-14.94,65.6-29.69,98.2-44.91,15.05-7,30.75-12.78,45.1-21.11,2-.12,2.07,1.18,2.22,2.58,1.53,13.42,1.06,14.16-11.85,20.1-8.06,3.7-16.46,6.72-24.08,11.3l-1.21.17L394,272.31c-4.4.87-7.86,3.86-12,5-4.79,1.31-6.37,4-5.87,8.43a56.54,56.54,0,0,1,.14,5.68l-.2.19H359.34c-.61-1.23.55-4.23-2.91-2.57-4.73,2-9.47,4-14.19,6.16Z"/><path class="cls-9" d="M210.72,127.5c-2.58.94-2.14,3.15-2.4,5.05-3.66,4.8-6.29,10.36-12,13.44-4.26.58-8.78-1.09-12.8,1.22a1.42,1.42,0,0,0-.17,1,6.38,6.38,0,0,0-.09,6.91c.46,2.21.92,4.4,1.39,6.62-4.86,3.45-9.63,2.29-14.15-.47-1.72-1-3.16-2.23-5.34-1.88-2.59-5.19-1.83-11.59-7.13-15.55a2.68,2.68,0,0,1,0-.8c1.7-5.57,3.66-11.12,1.34-17-.72-1.89-1.21-3.23-4.15-2.47-4.12,1.07-5.76-2.08-6.42-5.19-.77-3.45-1.83-7.67,2.08-9.81s5.49,1.61,7.32,4,4.86,2.2,5.88.28c1.23-2.33,5.76-4.27,2.31-7.91,2.26-3.94,1.19-8.21,1.31-12.35l.31-5.46c7.5,4.06,15.16,3.45,23,2.31,6-.81,12.06-.93,16.82,3.72l-.7,1.72c-2.23-.6-4.31-2.07-6.76-1.22-1.26.43-3.11,1.9-1.45,2.59,2.58,1,6.07,2.37,8.32-1.16a78.4,78.4,0,0,1,3.26,28.66C210.35,125,209.8,126.29,210.72,127.5Zm-22.13,8.43a12.43,12.43,0,0,0,9-5.18c2.19-2.78,1.48-4.73-2.09-5.18a63.28,63.28,0,0,1-13.82-3.85c-3.89-1.47-5.27.34-5.39,3.57C176.09,130.66,181.74,136,188.59,135.93Zm-1.83-28.21c-.2-2.09-.54-4.63-3.1-4.78-3.07-.17-3.66,2.52-3.66,4.84s.59,5,3.66,4.82c2.5-.16,3-2.66,3.14-4.88Zm-9.3-10.36c1.66,1.35,3.22.62,4.84-.09a8.58,8.58,0,0,1,2.31-.31c1.64-.17,3.75-.36,1.62-2.38-1.82-1.73-4.07-.83-6.07.14-1.11.46-2.55.91-2.66,2.55Zm28.68,8.1c-.18-1.55-.4-3.45-2.37-3.45-2.34,0-2.62,2-2.69,3.71s.51,3.46,2.38,3.46C205.69,109.18,205.93,107.19,206.14,105.46Z"/><path class="cls-6" d="M395.25,271.16l1.2-.18c0,17.36.24,34.71-.11,52.07-.11,5.49,1.1,7.62,7.5,7.37,13.14-.51,26.34-.15,39.53-.17a62.76,62.76,0,0,1,1.35,17.12H395.26Z"/><path class="cls-2" d="M84.4,236.92q1.36,11.4,2.7,22.82c-4.48-3.46-2.28-8.38-3.32-12.58A47.44,47.44,0,0,1,83.34,237Z"/><path class="cls-11" d="M509.53,92.52a5,5,0,0,1,5.34-.58,4.77,4.77,0,0,1-4.44,4.37C510.14,95,509.83,93.78,509.53,92.52Z"/><path class="cls-9" d="M211.63,92.83l1.21-.13C212.42,93.25,212,93.4,211.63,92.83Z"/><path class="cls-3" d="M358.09,402c-2-2.36-4.69-2.35-7.55-2.35H266.68V347.27h91.14l.24,52.68Z"/><path class="cls-11" d="M266.7,347.27v52.37c0,23.37-.26,46.76-.15,70.14,0,4-1.06,6.65-5,8.63-4.57,2.25-8.83,5.08-13.22,7.67V373.61c0-11.94-.2-23.87.11-35.79.13-5.08-1.83-6.83-7-6.43-3.66.3-7.22,0-10.82,0l-.44-1.1.44-9.21a39.84,39.84,0,0,1,10-1.05c5.12-.32,8.76.55,7.83,6.56-.43,2.68,1,3.21,3.45,2.59,4.77-1.19,9.54-2.31,14.32-3.45l.54,4.63Z"/><path class="cls-4" d="M230.57,331.34c3.66,0,7.31.29,10.82,0,5.16-.4,7.15,1.35,7,6.43-.32,11.92-.11,23.85-.11,35.79V486c-5.23,2.09-10.54,1.12-15.78.14-3.55-.67-2.16-3.63-2.18-5.61V406.43c0-2.26-.13-4.52-.18-6.79V347.28C230.26,342,230.41,336.64,230.57,331.34Z"/><path class="cls-11" d="M394.46,359v52.81a2.52,2.52,0,0,0,.26,2.61h.43c-.18,1.52-.36,3-.56,4.52a1.93,1.93,0,0,0-.53.9c-6,3.61-11.47,7.93-18.07,10.56V291.54l.2-.19,17.68-7.88c0,4.55.13,9.09.17,13.63Q394.24,328.09,394.46,359Z"/><path class="cls-4" d="M376,291.59V430.48c-4.79,1.72-9.76.74-14.62.72-3.48,0-3.13-2.78-3.15-5,0-8.06,0-16.13-.11-24.18V399.9c1.63-2.23.92-4.78.94-7.18q.18-50.55.31-101.13Z"/><path class="cls-4" d="M394.06,419.92a2,2,0,0,1,.53-.9Z"/><path class="cls-12" d="M90.63,261.14c9.14-1,18.29-1,27.3-1.73s18-.35,26.89-1.81v1.72c-8.55,1.3-17.4.61-26.91,3.16,12.31,3.46,22.67,8.45,35.23,7.19,25.29-2.5,50.72-3.73,76.08-5.58,18.9-1.38,37.79-2.9,56.68-4.35-11.82-3.2-23.26-7.4-35.71-6.53-17.88,1.26-35.74,2.85-53.68,3v-.84a6.46,6.46,0,0,1,4.35-1.44c8.92.81,17.79-.69,26.6-1.29,11.32-.78,22.89.15,33.94-3.27,11.31,2.92,23.05,3.8,34.53,5.89,16.24,2.94,32.71,4.74,48.64,9.16a8.45,8.45,0,0,1-5.95,2.16c-5.34.31-10.69.62-16,1.24q-27.42,3.57-55.11,4.44c-8.15-1.43-16.18.41-24.24,1-1.43.09-.44,1.49-.38,2.3a24.47,24.47,0,0,0-4.1-.43c-12.93.9-25.83,1.73-38.74,2.83s-26.18,2.28-39.29,3.25a33.15,33.15,0,0,1-11.28-.5C129.36,275.46,110,268.32,90.63,261.14Z"/><path class="cls-2" d="M90.63,261.14c19.35,7.18,38.73,14.32,58.84,19.5a33.17,33.17,0,0,0,11.33.48c13.11-1,26.18-2.21,39.29-3.24s25.82-1.94,38.74-2.84a24.47,24.47,0,0,1,4.1.43c8.28,1.25,16.36-.34,24.46-1.72.15,0,.11-1,.17-1.59,18.43-.58,36.83-2.06,55.1-4.44,5.32-.62,10.68-.93,16-1.25a8.37,8.37,0,0,0,5.94-2.15c2.67,3.3,1.65,5.18-2.54,5.64-9.33,1.08-18.63,2.32-28,3.08-28.11,2.31-56.24,3.94-84.31,6.62-17.31,1.72-34.73,2.48-52.09,3.71-4.38.31-8.77.57-13.14,1.12-16.46,2.09-30.88-5.18-45.84-9.67-7.77-2.37-15.3-5.46-23.09-7.79a10,10,0,0,1-7.42-6.65Z"/><path class="cls-13" d="M581,275.61a22.49,22.49,0,0,1,14.42,16A58.41,58.41,0,0,0,602.68,310c3.19,4.68,7,8.77,13.46,9.19l4,8.63c-6.2,3.23-13.18,3.68-19.89,5.19-18.54,4.23-37.1,8.22-56.26,8.63-4.75,0-6,1.73-5.38,5.74,1.36,9.14,2.64,18.29,3.94,27.43l3.18,29.37.18,3.45c.16,11.37.8,22.73.09,34.1a10.85,10.85,0,0,1-2.94,4.4,55.64,55.64,0,0,1-18.18,2.67c-10,.1-19.83-1.32-29.72-2.44l-4.68-3.25-1.1-7.05c-2.78-22.25-3.66-44.62-5.27-66.95-.55-7.79-2-15.72-2.83-23.51-1.7-15.55,3.45-28.33,19.65-36.95,22.64-12.09,46.94-20.73,69.94-32.08C574.13,275,577.56,276,581,275.61Z"/><path class="cls-5" d="M542.55,374.82c-1.31-9.14-2.59-18.29-3.95-27.43-.58-4,.62-5.67,5.38-5.74,19.16-.34,37.72-4.33,56.25-8.63,6.71-1.54,13.7-2,19.9-5.19C631,343.38,646.75,347,664.46,338.2c1.83-.92,3.42-3.58,6.26-1.73.56,2.76-.44,4.35-3.46,5.3-3.66,1.16-7.13,2.91-10.68,4.41-2.26,5.41-.53,11.05-1,16.56-.26,2.82-.22,5.65-.29,8.49-1.56.31-3.13.6-4.67.95-6.16,1.4-7.13.83-7.11-5.05,0-4.13-.73-8.32.72-12.42a2.77,2.77,0,0,0-.39-3.21c-1.35-1.19-2.5,0-3.66.5-2.48,1.16-5,2.18-7.56,3.25l-1.17.27-30.14,10c-1.53-2.66-4.4-4.34-5.64-7.28-3-7.17-3-6.7-11-4.3-10.72,3.25-21.21,8.33-33.13,5-2.78-.78-3.31,1.28-3.31,3.45v13.08Z"/><path class="cls-4" d="M495.16,446.37c9.89,1.12,19.71,2.54,29.73,2.44a55.54,55.54,0,0,0,18.17-2.67c.2,4.76,2,9.44.75,14.24-2.63.6-4.29,2.66-6.45,4-19,11.62-38.08,22.92-62.44,17.43-7.71-4.86-8-12.21-7.47-19.81v.22l1.33-1.33,2.38-4.32c1.7-1,4-1.29,4.82-3.37,3.57.47,6.55-1.24,9.71-2.31l2.34-1.26h-.14C490.54,449,493.44,448.86,495.16,446.37Z"/><path class="cls-11" d="M548.18,375.44V362.36c0-2.14.53-4.19,3.31-3.45,11.92,3.3,22.42-1.73,33.13-5,7.94-2.4,7.9-2.86,11,4.3,1.24,2.94,4.11,4.62,5.65,7.28L582,372.73l-.38.21.14.36a1.37,1.37,0,0,1-.76.24c-2.73.5-5.49.88-8.16,1.56-3,.76-3.23,3.12-2.7,5.45.64,3,2.85,1,4.31.87a63.32,63.32,0,0,0,6.42-1.11c.11,27.56.33,55.11.2,82.66,0,7.12-7.31,7.81-12.25,10.52v-80c0-9.81,0-9.81-10.59-9.88.61-5-1.61-7.64-7.07-7.65A18.21,18.21,0,0,1,548.18,375.44Z"/><path class="cls-3" d="M581.93,372.76l19.29-7.27,30.13-10,.9.91.42,17-.53,22.76c-15.1-2.28-30.33-3.45-45.58-4.4-3.8-.22-4.72-1.55-4.68-4.8s.71-6.79-.55-10.11l-.38-3.31a1.38,1.38,0,0,0,.76-.25A2.8,2.8,0,0,0,581.93,372.76Z"/><path class="cls-11" d="M476,453.19c-.86,2.08-3.13,2.37-4.83,3.37a13.65,13.65,0,0,0-3.42.68c-11.1,5.18-22.53,8-34.94,5-6.76-3.68-6.91-9.69-6.29-16,1.7-4.23,5.18-6.43,9.53-8,5.48-1.9,11.09-3.23,15.79-6.65a214.47,214.47,0,0,0,37.57,4.44l1.1,7.05a.69.69,0,0,1-.16.91Z"/><path class="cls-4" d="M558.15,383.66c10.6,0,10.58,0,10.58,9.88v80c-11,.64-10.88.64-11-9.29l-.22-72.55C557.8,389,558,386.32,558.15,383.66Z"/><path class="cls-11" d="M632.67,373.44q-.23-8.51-.42-17l.27-1.19c2.53-1.07,5.09-2.09,7.57-3.24,1.24-.57,2.4-1.73,3.66-.51a2.78,2.78,0,0,1,.38,3.22c-1.44,4.09-.71,8.29-.71,12.42,0,5.87,1,6.44,7.11,5,1.54-.34,3.11-.64,4.66-.95,0,18,.46,36,.17,54-.09,6.81-7.32,7.47-12.11,10,0-17.15.11-34.31,0-51.46C643.33,371.69,644.94,373.73,632.67,373.44Z"/><path class="cls-4" d="M632.67,373.44c12.27.29,10.66-1.73,10.71,10.26v51.46c-1.83,1.31-3.84.6-5.77.83-3.86.45-5.23-1-5.2-4.75.15-11.66-.09-23.36-.18-35Q632.41,384.85,632.67,373.44Z"/><path class="cls-3" d="M558.15,383.66c-.17,2.66-.35,5.34-.51,8-4.9.12-7.9,2.06-7.32,7.14-3.34.19-1.09-2.94-2.9-3.46-1.47,2.85,1,6.38-1.72,9L542.52,375l5.63.62a17.59,17.59,0,0,0,2.89.57C556.54,376,558.75,378.65,558.15,383.66Z"/><path class="cls-10" d="M474.9,481.8c24.36,5.49,43.45-5.81,62.44-17.43,2.16-1.33,3.82-3.46,6.46-4a7.25,7.25,0,0,1-3,4.73,107.31,107.31,0,0,1-42.05,21A28.23,28.23,0,0,1,474.9,481.8Z"/><path class="cls-8" d="M432.85,462.26c12.42,3,23.77.16,34.94-5a13.83,13.83,0,0,1,3.42-.68c-.78,1.44-1.59,2.87-2.38,4.32-.65.26-1.82,0-1.33,1.33V462c-5.1,1.42-10.11,3.13-15.28,4.21C445.18,467.65,438.34,467.43,432.85,462.26Z"/><path class="cls-3" d="M546,441.74c.71-11.37,0-22.73-.09-34.1,2.1.33,2.3,1.73,2.3,3.46v27.25C548.22,439.89,548,441.38,546,441.74Z"/><path class="cls-5" d="M581,373.58l.43,3.31c-.18,1.16-.36,2.3-.56,3.46a63.29,63.29,0,0,1-6.42,1.1c-1.46.12-3.66,2.09-4.31-.86-.53-2.33-.33-4.7,2.7-5.46C575.46,374.46,578.2,374.08,581,373.58Z"/><path class="cls-4" d="M394.46,359q-.16-30.93-.35-61.88c0-4.54-.11-9.08-.16-13.63V272.3l1.28-1.14v76.19C394.59,351.21,395.94,355.21,394.46,359Z"/><path class="cls-4" d="M394.72,414.45a2.53,2.53,0,0,1-.26-2.53A2.3,2.3,0,0,1,394.72,414.45Z"/><path class="cls-1" d="M266.7,330.29l-.55-4.63c-.62-4.68,2-5.6,6.36-5.38,4.77.23,9.58-.2,14.37-.36l55.35-24.75c4.71-2.11,9.45-4.11,14.18-6.17,1.7,1.21,1.48,3,1.47,4.65q0,18.28-.1,36.62Z"/><path class="cls-14" d="M559.1,157.23c.86,2.09,1.61,4.22,2.61,6.24,2.84,5.7,7.32,7,13.15,3.95,9-4.75,14.24-12.09,17-21.4.5-1.73.39-3.94,2.87-4.59a90.47,90.47,0,0,1,8.47,24.18c4.81,20.4,8.28,41,7.84,62.08-.16,7.76-3.89,14.34-5.15,21.63a6.41,6.41,0,0,1-8.18-.12c-7.15-5.18-15.43-9.14-20.73-16.43a36.36,36.36,0,0,1,1.83-9.88c.86-2.68,3.89-5.68,2-8.32-5.48-7.55-11.46-15-22.68-15.07q0-19.27-.15-38.52A4.44,4.44,0,0,1,559.1,157.23Z"/><path class="cls-5" d="M277.1,55c3.24-3.61,6.36-7.31,9.73-10.83,6-6.32,15.06-7.15,21.52-2.12,6.72,5.18,7.46,13.81,1.59,20.72-3.15,3.68-6.51,7.17-9.78,10.75l-3.3-1.61C290.92,65.56,282.93,61.45,277.1,55Z"/><path class="cls-3" d="M277.1,55c5.78,6.5,13.82,10.61,19.76,16.93-3.65,1.85-5.94,5-8.86,7.62a14.39,14.39,0,0,1-19.52.26,13,13,0,0,1-3-4c-.64-1.23-.91-2.52-2.69-2.59C264.3,67.39,270,64.52,273,59.67A36.18,36.18,0,0,1,277.1,55Z"/><path class="cls-2" d="M262.82,73.16c1.83,0,2.05,1.36,2.69,2.59,3.12,6.57,11.29,9.5,18.25,6.55A13.79,13.79,0,0,0,288,79.5c2.92-2.58,5.24-5.77,8.87-7.62l3.29,1.61c-3.66,4.25-7.21,8.53-11,12.71s-10.85,6.22-15.73,4.42c-6.23-2.28-10.44-6.2-10.73-12.94C262.69,76.18,262.82,74.66,262.82,73.16Z"/><path class="cls-9" d="M558.11,199.45c11.23,0,17.17,7.52,22.69,15.06,1.94,2.65-1.1,5.65-2,8.33a36.27,36.27,0,0,0-1.82,9.88,36.64,36.64,0,0,1-10.48-2.11c-6.16-2.54-12.47-1.52-18.78-.13-3,.67-6.8,2.1-5.48-3.61.38-1.73-1.67-1.08-2.62-1.09-2.3,0-4.64-.11-5.19-2.75-.66-3.14,2.41-2.82,4.46-3.68-1.37-2.57-6.4-3.61-4.09-7.6s4.84.31,7.84-.12a33.47,33.47,0,0,1-2.54-4.09,3.74,3.74,0,0,1,1.33-4.6,3.65,3.65,0,0,1,4.43,0,30.1,30.1,0,0,0,2.94,1.9C554.38,207.17,557.69,205.24,558.11,199.45Z"/><path class="cls-11" d="M567.47,86.67a31.31,31.31,0,0,0-11.72,1.85c-3.33,1.24-6.71-2.32-9.76.53h-.18l-1-.29c-5.78-4-5.76-4.24-.66-8.47,2.38-2,4.51-4.2,7.06-6.58a13.21,13.21,0,0,0,12.92,8.55C567.07,82.24,567.56,84.39,567.47,86.67Z"/><path class="cls-11" d="M539.66,93.65c-6.1,4.07-12.61,2.21-19,1.1.48-7,7.32-5.61,11.52-7.58,3.66-1.73,3.66,2.49,5.38,3.85A14.63,14.63,0,0,1,539.66,93.65Z"/><path class="cls-9" d="M544.84,88.69l1,.29A2.15,2.15,0,0,1,544.84,88.69Z"/><path class="cls-12" d="M170.07,249.55c-14.44,1.38-28.94,1.91-43.44,2.33,1.28-4.29,2.74-8.54,3.8-12.87,1.83-7.57,6.55-14.49,5.93-22.63,3.66-6.91,1.83-14.27,1.26-21.59l-10.09,18.34a20.27,20.27,0,0,0-5.3,18.28A93.73,93.73,0,0,1,124.47,252a169.71,169.71,0,0,1-24.28,1c0-3.46.35-6.83,0-10.21-1.62-18.23,3.42-35.14,11-51.63,3.77-8.3,7.32-16.66,11-25,.72-.6,1.83-1.11,2.09-1.87,6.31-14.16,19.31-18.74,33.82-21.17a2.62,2.62,0,0,0,0,.79v4.53c0,26.53-1.83,53.17,7.13,79A75.26,75.26,0,0,1,170.07,249.55Z"/><path class="cls-15" d="M122,166.18c-3.65,8.34-7.18,16.7-11,25-7.47,16.49-12.52,33.4-11,51.63.3,3.45,0,6.81,0,10.21-8.74,1.54-8.75,1.54-9.38-6.34C88,210.78,85.07,174.89,82.37,139c-.2-2.59-1.83-5.61,1.1-7.91l38.08.4Z"/><path class="cls-4" d="M166.36,105c3.46,3.64-1.08,5.58-2.3,7.91-1,1.85-3.93,2-5.87-.16,3.07.94,4-1.08,4.42-3.17.72-3.7,1.12-7.45,1.67-11.18C166.38,100.18,164.09,103.22,166.36,105Z"/><path class="cls-13" d="M121.55,131.46l-38.08-.4c3.65-2,7.73-.86,11.59-.95,8.9-.19,17.81,0,26.73,0C121.7,130.54,121.62,131,121.55,131.46Z"/><path class="cls-11" d="M166.36,105c-2.25-1.73,0-4.8-2.08-6.6,1.22-1.88-3.35-6.91,3.4-5.75C167.55,96.77,168.63,101,166.36,105Z"/><path class="cls-3" d="M534.74,134.6c-1.91-.15-4.4.5-4.18-2.1.31-3.46,3-5.19,6.56-5.29,2.74,0,6.14,1.35,5.71,3.73C542.13,134.79,537.6,133.81,534.74,134.6Z"/><path class="cls-8" d="M544.38,101c2.1-.37,2.61.72,2.49,2.24-.17,1.73-.84,3.63-3,3.63a3.65,3.65,0,0,1-3.65-3.66v-.07C540.36,100.87,543.1,101.73,544.38,101Z"/><path class="cls-8" d="M521.56,109.73c-.14,1.73-.82,3.69-2.85,3.8a3.61,3.61,0,0,1-3.89-3.22v-.24c0-2.28,2.48-2,4.11-2.41S521.64,107.9,521.56,109.73Z"/><path class="cls-12" d="M183.47,147.23c4.08-2.33,8.6-.66,12.8-1.24,1,1.72,2.71,1.95,4.52,2.4a17.43,17.43,0,0,1,9.23,5.82c11,12.63,17.5,27.45,25.38,41.68,8.79,15.84,10.25,32.67,10.42,49.92-7.63,0-15.16,2.15-22.84,1.16,0-7.72,0-15.46.11-23.18,0-3.63-1.24-6.41-5.13-9.64.93,11.75,1.82,22.32,2.63,32.82l-21.67,1.16c3.86-4.18,3.13-9.47,3.48-14.34.49-6.77-.5-13.68.44-20.36,1.29-9.33,1.28-18.21-2.31-27.19C195.32,173.09,189.69,160.05,183.47,147.23Z"/><path class="cls-15" d="M245.87,245.81c-.16-17.27-1.62-34.08-10.42-49.92-7.88-14.23-14.48-29-25.37-41.68a17.46,17.46,0,0,0-9.24-5.82c-1.83-.45-3.53-.73-4.51-2.4,5.7-3.13,8.39-8.64,12-13.44,11.23.12,22.43.36,33.66.27,3.86,0,5.67.83,6.05,4.84q4.93,51.42,10.29,102.83c.41,3.84-.78,5.19-4.66,5C251.07,245.4,248.47,245.69,245.87,245.81Z"/><path class="cls-16" d="M165.12,159.48c2.17-.35,3.65.84,5.34,1.88,4.51,2.76,9.28,4,14.15.47,8.22,28.21,11.26,57,12.19,86.21l-23.11,1.33C173.07,219.21,171.66,189.09,165.12,159.48Z"/><path class="cls-1" d="M165.12,159.48c6.54,29.64,7.95,59.73,8.57,89.82l-3.65.11a75.52,75.52,0,0,0-4.9-22c-9-25.91-7.08-52.5-7.13-79v-4.53C163.38,147.89,162.52,154.38,165.12,159.48Z"/><path class="cls-1" d="M196.8,248c-.93-29.14-4-58-12.19-86.21-.48-2.21-.93-4.41-1.39-6.62,0-2.33,0-4.65.09-6.91a1.38,1.38,0,0,1,.16-1c6.22,12.83,11.85,25.91,17.12,39.07,3.65,9,3.65,17.86,2.3,27.19-.93,6.68,0,13.59-.44,20.37-.35,4.87.39,10.15-3.47,14.33Z"/><path class="cls-15" d="M124.47,252a93.73,93.73,0,0,0-2.24-20.57,20.27,20.27,0,0,1,5.3-18.28c2.48,2.21,6.05,1.73,8.87,3.18.62,8.14-4.06,15.06-5.93,22.63-1.06,4.34-2.52,8.64-3.8,12.87Z"/><path class="cls-15" d="M220.64,247c-.84-10.55-1.7-21.12-2.63-32.82,3.89,3.23,5.21,6,5.14,9.64-.17,7.72,0,15.46-.11,23.18Z"/><path class="cls-1" d="M196.51,255.37v.84c-17.19,1.87-34.45,2.34-51.69,3.17v-1.73C162.08,257.58,179.2,254.4,196.51,255.37Z"/><path class="cls-5" d="M394,272.3v11.22l-17.79,7.88c0-1.9,0-3.8-.15-5.68-.49-4.39,1.08-7.12,5.87-8.43C386.1,276.15,389.56,273.16,394,272.3Z"/><path class="cls-2" d="M357.78,330.27q0-18.31.1-36.62c0-1.73.23-3.46-1.47-4.65,3.46-1.73,2.31,1.35,2.91,2.57q-.15,50.55-.31,101.13c0,2.4.69,5-.93,7.18l-.24-52.66Z"/><path class="cls-3" d="M188.59,135.93c-6.85,0-12.5-5.18-12.28-10.6.12-3.23,1.5-5,5.39-3.58a62.57,62.57,0,0,0,13.82,3.78c3.66.49,4.28,2.44,2.09,5.19A12.39,12.39,0,0,1,188.59,135.93Z"/><path class="cls-8" d="M186.8,107.72c-.13,2.22-.64,4.72-3.12,4.88-3.08.19-3.66-2.53-3.66-4.82s.6-5,3.66-4.84C186.25,103.09,186.6,105.63,186.8,107.72Z"/><path class="cls-8" d="M177.5,97.27c.11-1.72,1.55-2.09,2.7-2.64,2-1,4.32-1.83,6.07-.14,2.12,2,0,2.21-1.63,2.39a8.13,8.13,0,0,0-2.3.31C180.71,97.9,179.16,98.62,177.5,97.27Z"/><path class="cls-8" d="M206.14,105.46c-.14,1.73-.38,3.72-2.68,3.68-1.83,0-2.43-1.73-2.38-3.45s.35-3.75,2.69-3.72C205.67,102,205.89,103.91,206.14,105.46Z"/><path class="cls-5" d="M207.22,95.08c-2.25,3.45-5.74,2.21-8.32,1.16-1.66-.69.19-2.16,1.45-2.59,2.45-.85,4.53.62,6.76,1.22Z"/><path class="cls-12" d="M183.31,148.25c0,2.31,0,4.63-.09,6.91A6.36,6.36,0,0,1,183.31,148.25Z"/><path class="cls-6" d="M357.78,330.27v17H266.64v-17Z"/><path class="cls-10" d="M144.82,259.38c17.24-.83,34.5-1.3,51.69-3.17,17.94-.1,35.8-1.72,53.68-2.95,12.45-.86,23.89,3.33,35.71,6.53-18.89,1.45-37.78,3-56.68,4.35-25.36,1.85-50.79,3.08-76.08,5.58-12.56,1.26-22.92-3.78-35.23-7.18C127.42,259.91,136.27,260.67,144.82,259.38Z"/><path class="cls-10" d="M267.5,272.26c0,.55,0,1.57-.16,1.59-8.1,1.35-16.18,2.94-24.46,1.73,0-.81-1-2.21.38-2.3C251.32,272.68,259.35,270.83,267.5,272.26Z"/><path class="cls-2" d="M490.32,444a.7.7,0,0,0,.16-.92l4.68,3.25c-1.72,2.49-4.62,2.66-7.31,3.3C487.7,447.42,491.05,446.47,490.32,444Z"/><path class="cls-2" d="M632.52,355.21l-.27,1.19c-.31-.29-.61-.6-.9-.91Z"/><path class="cls-8" d="M490.32,444c.73,2.47-2.56,3.45-2.45,5.63H488c-1.35-.52-1.82.43-2.34,1.26-3.16,1.07-6.14,2.78-9.7,2.31Z"/><path class="cls-2" d="M485.67,450.88c.53-.83,1-1.73,2.34-1.26Z"/><path class="cls-2" d="M467.43,462.21c-.48-1.26.67-1.07,1.33-1.33Z"/><path class="cls-2" d="M581.93,372.76a3.57,3.57,0,0,1-.23.57l-.15-.36Z"/><path class="cls-8" d="M136.36,216.31c-2.82-1.4-6.38-1-8.87-3.18l10.13-18.41C138.13,202,139.94,209.35,136.36,216.31Z"/></g></g></svg>